<svg width="800" height="600" viewBox="0 0 800 600" fill="none" xmlns="http://www.w3.org/2000/svg" data-reactroot="">
<path opacity="0.43" d="M97.9985 272.839C70.0643 299.625 48.1118 347.327 64.6658 374.537C74.0559 389.971 93.0751 394.274 158.068 397.701C278.031 404.026 369.099 397.587 377.475 396.966C461.576 390.732 448.434 388.089 506.354 385.237C571.86 382.013 601.769 384.75 652.245 372.562C692.807 362.77 716.229 357.114 739.51 336.86C791.283 291.819 790.038 220.104 789.832 208.26C789.55 192.006 786.389 136.062 745.102 90.8434C682.91 22.7277 566.45 14.2613 504.677 60.091C432.341 113.757 476.25 211.265 411.023 246.001C353.433 276.671 296.864 212.559 168.895 238.68C149.866 242.564 121.867 249.952 97.9985 272.839Z" fill="#B5CDFB"></path>
<path opacity="0.2" d="M58.9744 466.42C50.2725 466.42 43.2292 464.326 38.4798 458.924C24.9483 443.534 33.8836 405.258 55.863 384.46C79.6532 361.951 113.059 366.741 168.404 374.678C187.585 377.429 209.326 380.546 234.195 383.027C288.439 388.437 344.678 389.355 401.356 385.752C401.652 385.735 401.896 385.954 401.914 386.245C401.932 386.535 401.712 386.784 401.422 386.803C344.688 390.408 288.39 389.493 234.09 384.074C209.2 381.592 187.447 378.472 168.255 375.72C113.222 367.83 80.0048 363.065 56.5869 385.225C34.9663 405.683 26.0649 443.21 39.2705 458.229C51.0211 471.596 78.0481 463.745 109.341 454.654C117.869 452.176 126.688 449.614 135.609 447.364C202.752 430.421 241.879 440.067 279.719 449.396C313.644 457.76 348.727 466.406 404.363 456.74C461.237 446.856 497.197 425.622 528.923 406.887C565.754 385.138 594.848 367.961 640.818 379.658C664.882 385.781 682.66 397.219 696.945 406.409C714.703 417.834 728.732 426.857 745.621 420.411C761.894 414.2 774.637 395.916 781.502 368.927C787.686 344.623 788.457 314.882 783.567 289.372C769.168 214.259 695.614 165.229 633.717 157.232C596.745 152.452 575.38 163.467 550.641 176.219C527.409 188.193 501.077 201.765 456.438 203.913C409.998 206.15 382.064 194.465 352.477 182.099C326.487 171.236 299.612 160.002 258.478 158.17C258.188 158.156 257.963 157.911 257.976 157.62C257.988 157.337 258.221 157.117 258.501 157.117C258.509 157.117 258.517 157.117 258.525 157.118C299.846 158.959 326.809 170.229 352.883 181.127C382.357 193.446 410.201 205.076 456.386 202.862C500.799 200.724 527.022 187.208 550.159 175.283C575.054 162.452 596.561 151.371 633.853 156.187C696.115 164.232 770.109 213.574 784.602 289.175C789.52 314.829 788.742 344.74 782.523 369.187C775.571 396.518 762.598 415.059 745.998 421.394C728.607 428.033 714.383 418.881 696.375 407.295C681.414 397.669 664.456 386.76 640.559 380.678C595.003 369.087 566.08 386.167 529.459 407.794C497.654 426.574 461.607 447.86 404.544 457.776C348.691 467.488 313.499 458.809 279.467 450.418C240.015 440.692 202.752 431.505 135.867 448.384C126.964 450.63 118.154 453.19 109.635 455.665C90.3211 461.276 72.6119 466.419 58.9744 466.42Z" fill="#3913B8"></path>
<path d="M562.872 338.017C614.024 338.017 655.491 296.551 655.491 245.399C655.491 194.247 614.024 152.78 562.872 152.78C511.721 152.78 470.254 194.247 470.254 245.399C470.254 296.551 511.721 338.017 562.872 338.017Z" fill="#B5CDFB"></path>
<path d="M620.189 331.487H480.746V429.147H620.189V331.487Z" fill="#3913B8"></path>
<path opacity="0.43" d="M342.486 179.614C372.135 179.614 396.17 155.579 396.17 125.93C396.17 96.2813 372.135 72.2461 342.486 72.2461C312.837 72.2461 288.802 96.2813 288.802 125.93C288.802 155.579 312.837 179.614 342.486 179.614Z" fill="#3913B8"></path>
<path d="M382.235 433.968C372.984 433.968 365.455 426.501 365.391 417.235C365.328 407.932 372.819 400.338 382.123 400.275L444.682 399.85L449.016 325.214C449.554 315.925 457.498 308.821 466.81 309.373C476.098 309.912 483.191 317.878 482.651 327.167L477.973 407.74C477.14 422.087 465.231 433.403 450.86 433.502L382.352 433.968C382.314 433.968 382.274 433.968 382.235 433.968Z" fill="#B3825D"></path>
<path d="M553.172 433.399C544.18 433.399 536.715 426.294 536.352 417.226C535.979 407.929 543.214 400.091 552.511 399.719L612.704 397.309V326.19C612.704 316.886 620.246 309.344 629.55 309.344C638.855 309.344 646.397 316.886 646.397 326.19V401.381C646.397 417.25 633.976 430.178 618.118 430.813L553.858 433.385C553.629 433.395 553.401 433.399 553.172 433.399Z" fill="#B3825D"></path>
<path d="M752.021 450.151H77.2817C72.339 450.151 68.332 446.144 68.332 441.202C68.332 436.259 72.339 432.252 77.2817 432.252H752.021C756.963 432.252 760.97 436.259 760.97 441.202C760.97 446.144 756.963 450.151 752.021 450.151Z" fill="#9F8AFF"></path>
<path d="M445.059 346.414C445.059 285.335 488.28 258.68 544.596 258.68C600.913 258.68 648.999 285.335 648.999 346.414" fill="#3913B8"></path>
<path d="M522.2 183.23C526.619 183.23 530.201 179.648 530.201 175.229C530.201 170.811 526.619 167.229 522.2 167.229C517.781 167.229 514.199 170.811 514.199 175.229C514.199 179.648 517.781 183.23 522.2 183.23Z" fill="#F05936"></path>
<path d="M566.825 183.23C571.244 183.23 574.826 179.648 574.826 175.229C574.826 170.811 571.244 167.229 566.825 167.229C562.406 167.229 558.824 170.811 558.824 175.229C558.824 179.648 562.406 183.23 566.825 183.23Z" fill="#F05936"></path>
<path d="M566.823 205.299V272.522C566.823 284.705 556.947 294.581 544.763 294.581C532.579 294.581 522.701 284.705 522.701 272.522V205.299C522.701 200.739 524.083 196.504 526.454 192.989C530.416 187.106 537.138 183.237 544.763 183.237C550.856 183.237 556.37 185.706 560.361 189.699C564.354 193.692 566.823 199.206 566.823 205.299Z" fill="#B3825D"></path>
<path d="M566.822 195.338L563.195 219.574C563.195 231.609 558.458 247.635 546.811 248.718C525.321 250.716 522.701 238.842 522.701 226.658V183.028C527.032 177.145 534.378 173.276 542.712 173.276C549.371 173.276 555.398 175.745 559.76 179.738C564.123 183.731 566.822 189.245 566.822 195.338Z" fill="#303030"></path>
<path d="M546.008 244.341H543.516C532.02 244.341 522.701 235.022 522.701 223.527V166.033C522.701 154.538 532.02 145.219 543.516 145.219H546.008C557.503 145.219 566.822 154.538 566.822 166.033V223.527C566.822 235.022 557.503 244.341 546.008 244.341Z" fill="#B3825D"></path>
<path d="M525.841 159.956L563.874 159.817C571.898 159.784 572.566 132.131 559.237 135.446L556.727 137.003C553.662 134.833 549.995 133.674 546.239 133.69L525.734 133.817C519.74 133.842 514.901 138.72 514.926 144.714V144.714C514.95 150.708 519.847 159.98 525.841 159.956Z" fill="#3913B8"></path>
<path d="M531.255 179.415C532.411 179.415 533.348 178.478 533.348 177.322C533.348 176.166 532.411 175.229 531.255 175.229C530.099 175.229 529.162 176.166 529.162 177.322C529.162 178.478 530.099 179.415 531.255 179.415Z" fill="#303030"></path>
<path d="M549.899 179.415C551.055 179.415 551.992 178.478 551.992 177.322C551.992 176.166 551.055 175.229 549.899 175.229C548.744 175.229 547.807 176.166 547.807 177.322C547.807 178.478 548.744 179.415 549.899 179.415Z" fill="#303030"></path>
<path d="M539.591 207.649C538.897 207.649 538.201 207.409 537.583 206.947C536.555 206.179 535.842 204.896 535.719 203.597C535.539 201.697 536.26 199.921 536.957 198.204L537.153 197.722C539.063 192.951 540.179 187.931 540.469 182.799L541.52 182.858C541.224 188.103 540.083 193.236 538.13 198.112L537.933 198.6C537.283 200.2 536.612 201.853 536.768 203.498C536.862 204.494 537.429 205.518 538.213 206.104C538.599 206.393 539.215 206.703 539.96 206.561L540.161 207.594C539.973 207.631 539.782 207.649 539.591 207.649Z" fill="#303030"></path>
<path d="M539.308 220.105C538.059 220.105 537.163 219.901 537.084 219.881L537.326 218.857C537.363 218.865 541.204 219.733 543.959 217.657C545.714 216.333 546.678 214.083 546.828 210.973L547.878 211.022C547.715 214.465 546.606 216.982 544.586 218.503C542.858 219.803 540.823 220.105 539.308 220.105Z" fill="#303030"></path>
<path d="M545.158 299.767C544.456 299.767 544.023 299.74 543.934 299.734C543.296 299.69 542.816 299.138 542.86 298.5C542.903 297.863 543.434 297.377 544.093 297.425C544.208 297.429 556.008 298.137 564.075 290.597C569.166 285.838 571.748 278.803 571.748 269.688C571.748 269.048 572.266 268.531 572.905 268.531C573.545 268.531 574.062 269.048 574.062 269.688C574.062 279.48 571.228 287.089 565.638 292.304C558.328 299.124 548.573 299.767 545.158 299.767Z" fill="#B5CDFB"></path>
<path d="M747.343 421.626L681.195 421.536L681.182 431.572L747.33 431.662L747.343 421.626Z" fill="#B5CDFB"></path>
<path d="M739.576 411.579L673.428 411.489L673.414 421.526L739.562 421.615L739.576 411.579Z" fill="#9F8AFF"></path>
<path d="M749.593 401.556L683.445 401.466L683.432 411.502L749.58 411.592L749.593 401.556Z" fill="#3913B8"></path>
<path d="M372.072 430.738H331.666C331.666 424.096 337.05 418.712 343.692 418.712H360.046C366.688 418.712 372.072 424.096 372.072 430.738Z" fill="#3913B8"></path>
<path d="M711.498 455.701H148.523C147.172 455.701 146.076 454.605 146.076 453.254C146.076 451.903 147.172 450.807 148.523 450.807H711.498C712.849 450.807 713.945 451.903 713.945 453.254C713.945 454.605 712.849 455.701 711.498 455.701Z" fill="#B5CDFB"></path>
<path d="M657.026 167.507C672.201 167.507 684.502 155.206 684.502 140.031C684.502 124.857 672.201 112.556 657.026 112.556C641.852 112.556 629.551 124.857 629.551 140.031C629.551 155.206 641.852 167.507 657.026 167.507Z" fill="#3913B8"></path>
<path d="M533.327 170.055L522.076 172.766L522.323 173.79L533.574 171.079L533.327 170.055Z" fill="#303030"></path>
<path d="M547.328 170.058L547.082 171.082L558.334 173.789L558.58 172.765L547.328 170.058Z" fill="#303030"></path>
<path d="M558.509 164.24C558.801 164.24 559.037 164.004 559.037 163.712C559.037 163.42 558.801 163.184 558.509 163.184C558.217 163.184 557.98 163.42 557.98 163.712C557.98 164.004 558.217 164.24 558.509 164.24Z" fill="#3913B8"></path>
<path d="M557.979 161.937C558.271 161.937 558.508 161.701 558.508 161.409C558.508 161.117 558.271 160.881 557.979 160.881C557.688 160.881 557.451 161.117 557.451 161.409C557.451 161.701 557.688 161.937 557.979 161.937Z" fill="#3913B8"></path>
<path d="M554.046 161.938C554.338 161.938 554.574 161.702 554.574 161.41C554.574 161.118 554.338 160.882 554.046 160.882C553.754 160.882 553.518 161.118 553.518 161.41C553.518 161.702 553.754 161.938 554.046 161.938Z" fill="#3913B8"></path>
<path d="M555.997 161.937C556.289 161.937 556.525 161.701 556.525 161.409C556.525 161.117 556.289 160.881 555.997 160.881C555.705 160.881 555.469 161.117 555.469 161.409C555.469 161.701 555.705 161.937 555.997 161.937Z" fill="#3913B8"></path>
<path d="M564.177 161.937C564.468 161.937 564.705 161.701 564.705 161.409C564.705 161.117 564.468 160.881 564.177 160.881C563.885 160.881 563.648 161.117 563.648 161.409C563.648 161.701 563.885 161.937 564.177 161.937Z" fill="#3913B8"></path>
<path d="M560.245 161.937C560.537 161.937 560.773 161.701 560.773 161.409C560.773 161.117 560.537 160.881 560.245 160.881C559.953 160.881 559.717 161.117 559.717 161.409C559.717 161.701 559.953 161.937 560.245 161.937Z" fill="#3913B8"></path>
<path d="M562.194 161.937C562.486 161.937 562.723 161.701 562.723 161.409C562.723 161.117 562.486 160.881 562.194 160.881C561.903 160.881 561.666 161.117 561.666 161.409C561.666 161.701 561.903 161.937 562.194 161.937Z" fill="#3913B8"></path>
<path d="M564.8 163.752C565.091 163.752 565.328 163.515 565.328 163.224C565.328 162.932 565.091 162.695 564.8 162.695C564.508 162.695 564.271 162.932 564.271 163.224C564.271 163.515 564.508 163.752 564.8 163.752Z" fill="#3913B8"></path>
<path d="M560.69 164.22C560.982 164.22 561.219 163.983 561.219 163.691C561.219 163.4 560.982 163.163 560.69 163.163C560.399 163.163 560.162 163.4 560.162 163.691C560.162 163.983 560.399 164.22 560.69 164.22Z" fill="#3913B8"></path>
<path d="M562.876 164.24C563.168 164.24 563.404 164.004 563.404 163.712C563.404 163.42 563.168 163.184 562.876 163.184C562.584 163.184 562.348 163.42 562.348 163.712C562.348 164.004 562.584 164.24 562.876 164.24Z" fill="#3913B8"></path>
<path d="M565.075 165.694C565.367 165.694 565.603 165.458 565.603 165.166C565.603 164.874 565.367 164.638 565.075 164.638C564.783 164.638 564.547 164.874 564.547 165.166C564.547 165.458 564.783 165.694 565.075 165.694Z" fill="#3913B8"></path>
<path d="M560.77 166.223C561.062 166.223 561.299 165.987 561.299 165.695C561.299 165.403 561.062 165.167 560.77 165.167C560.479 165.167 560.242 165.403 560.242 165.695C560.242 165.987 560.479 166.223 560.77 166.223Z" fill="#3913B8"></path>
<path d="M563.149 166.183C563.441 166.183 563.678 165.947 563.678 165.655C563.678 165.363 563.441 165.127 563.149 165.127C562.858 165.127 562.621 165.363 562.621 165.655C562.621 165.947 562.858 166.183 563.149 166.183Z" fill="#3913B8"></path>
<path d="M565.233 167.699C565.525 167.699 565.762 167.463 565.762 167.171C565.762 166.879 565.525 166.643 565.233 166.643C564.942 166.643 564.705 166.879 564.705 167.171C564.705 167.463 564.942 167.699 565.233 167.699Z" fill="#3913B8"></path>
<path d="M563.308 168.185C563.599 168.185 563.836 167.949 563.836 167.657C563.836 167.365 563.599 167.129 563.308 167.129C563.016 167.129 562.779 167.365 562.779 167.657C562.779 167.949 563.016 168.185 563.308 168.185Z" fill="#3913B8"></path>
<path d="M565.392 169.702C565.683 169.702 565.92 169.465 565.92 169.174C565.92 168.882 565.683 168.646 565.392 168.646C565.1 168.646 564.863 168.882 564.863 169.174C564.863 169.465 565.1 169.702 565.392 169.702Z" fill="#3913B8"></path>
<path d="M563.464 170.189C563.756 170.189 563.992 169.953 563.992 169.661C563.992 169.369 563.756 169.133 563.464 169.133C563.172 169.133 562.936 169.369 562.936 169.661C562.936 169.953 563.172 170.189 563.464 170.189Z" fill="#3913B8"></path>
<path d="M565.392 171.713C565.683 171.713 565.92 171.476 565.92 171.184C565.92 170.893 565.683 170.656 565.392 170.656C565.1 170.656 564.863 170.893 564.863 171.184C564.863 171.476 565.1 171.713 565.392 171.713Z" fill="#3913B8"></path>
<path d="M563.464 172.201C563.756 172.201 563.992 171.964 563.992 171.673C563.992 171.381 563.756 171.145 563.464 171.145C563.172 171.145 562.936 171.381 562.936 171.673C562.936 171.964 563.172 172.201 563.464 172.201Z" fill="#3913B8"></path>
<path d="M565.392 173.724C565.683 173.724 565.92 173.488 565.92 173.196C565.92 172.904 565.683 172.668 565.392 172.668C565.1 172.668 564.863 172.904 564.863 173.196C564.863 173.488 565.1 173.724 565.392 173.724Z" fill="#3913B8"></path>
<path d="M563.464 174.253C563.756 174.253 563.992 174.016 563.992 173.725C563.992 173.433 563.756 173.196 563.464 173.196C563.172 173.196 562.936 173.433 562.936 173.725C562.936 174.016 563.172 174.253 563.464 174.253Z" fill="#3913B8"></path>
<path d="M565.392 175.775C565.683 175.775 565.92 175.539 565.92 175.247C565.92 174.955 565.683 174.719 565.392 174.719C565.1 174.719 564.863 174.955 564.863 175.247C564.863 175.539 565.1 175.775 565.392 175.775Z" fill="#3913B8"></path>
<path d="M563.464 176.304C563.756 176.304 563.992 176.068 563.992 175.776C563.992 175.485 563.756 175.248 563.464 175.248C563.172 175.248 562.936 175.485 562.936 175.776C562.936 176.068 563.172 176.304 563.464 176.304Z" fill="#3913B8"></path>
<path d="M65.8824 176.349L295.274 184.359C297.886 184.45 301.624 187.263 303.613 190.634L313.051 206.63L313.961 206.662L304.523 190.665C302.156 186.655 297.7 183.302 294.586 183.193L65.1943 175.182C62.0867 175.074 61.4829 178.251 63.8491 182.261L73.2875 198.257L74.191 198.288L64.7527 182.293C62.7641 178.922 63.2761 176.258 65.8824 176.349Z" fill="#B5CDFB"></path>
<path fill-rule="evenodd" clip-rule="evenodd" d="M295.54 183.317C295.211 183.246 294.892 183.204 294.586 183.193L65.1945 175.182C63.059 175.108 62.1059 176.585 62.4864 178.817C62.6597 179.834 63.1092 181.006 63.8494 182.261L73.2877 198.257L74.1913 198.288L64.7529 182.293C64.6688 182.15 64.5891 182.009 64.5139 181.869C64.5139 181.869 64.5139 181.869 64.5139 181.869C63.8761 180.682 63.558 179.598 63.5407 178.71C63.5119 177.228 64.3217 176.294 65.8827 176.349L295.274 184.359C295.311 184.361 295.349 184.363 295.386 184.365C297.993 184.531 301.653 187.311 303.614 190.634L313.052 206.63L313.962 206.662L304.523 190.666C304.44 190.525 304.355 190.386 304.268 190.248C302.093 186.814 298.439 183.942 295.54 183.317ZM65.8458 177.405L295.237 185.415C296.23 185.45 297.608 186.032 299.042 187.111C300.45 188.17 301.785 189.614 302.704 191.171L312.436 207.666L315.852 207.785L305.433 190.129C304.174 187.994 302.371 186.052 300.47 184.622C298.596 183.212 296.493 182.202 294.623 182.137L65.2314 174.126C64.2753 174.093 63.3986 174.31 62.7033 174.836C62.002 175.366 61.5929 176.129 61.4311 176.98C61.1182 178.627 61.699 180.696 62.9393 182.798C62.9393 182.798 62.9393 182.798 62.9393 182.798L72.6721 199.293L76.0809 199.411L65.663 181.756C65.6631 181.756 65.663 181.756 65.663 181.756C64.726 180.167 64.4971 178.932 64.6327 178.221C64.6953 177.893 64.825 177.713 64.9639 177.609C65.1088 177.499 65.3735 177.389 65.8458 177.405C65.8458 177.405 65.8458 177.405 65.8458 177.405Z" fill="#B5CDFB"></path>
<path d="M409.124 367.943L403.042 357.636L338.927 248.976L327.154 229.023L326.245 228.991L338.018 248.944L402.133 357.604L408.215 367.912C410.199 371.275 409.697 373.947 407.085 373.856L177.694 365.845C175.087 365.754 171.339 362.934 169.354 359.571L166.269 354.342L146.824 321.387L143.126 315.12L123.686 282.173L118.603 273.558L99.1575 240.603L87.3843 220.65L86.4805 220.618L98.2537 240.571L117.699 273.526L122.782 282.141L142.222 315.088L145.92 321.355L165.365 354.31L168.451 359.539C170.817 363.549 175.274 366.903 178.382 367.011L407.773 375.022C410.887 375.131 411.491 371.954 409.124 367.943Z" fill="#B5CDFB"></path>
<path fill-rule="evenodd" clip-rule="evenodd" d="M327.771 227.987L339.839 248.439L410.036 367.407C411.276 369.508 411.857 371.578 411.543 373.225C411.381 374.077 410.971 374.839 410.269 375.369C409.573 375.895 408.695 376.112 407.738 376.078L178.346 368.068C176.479 368.003 174.378 366.993 172.504 365.583C170.604 364.153 168.801 362.21 167.542 360.076L145.012 321.892L97.3451 241.109L84.5918 219.494L88.0017 219.614L119.514 273.021L144.038 314.583L167.181 353.805L170.266 359.034C171.182 360.586 172.518 362.03 173.928 363.091C175.364 364.172 176.743 364.755 177.732 364.789L407.124 372.8C407.597 372.816 407.862 372.705 408.006 372.596C408.145 372.491 408.275 372.312 408.337 371.983C408.472 371.27 408.241 370.034 407.306 368.449L324.356 227.867L327.771 227.987ZM408.216 367.912C408.301 368.056 408.381 368.198 408.456 368.338C409.084 369.506 409.402 370.577 409.428 371.458C409.471 372.96 408.663 373.911 407.087 373.856L177.695 365.845C177.659 365.844 177.623 365.842 177.587 365.84C174.986 365.676 171.313 362.888 169.356 359.571L87.3858 220.65L86.482 220.618L168.452 359.539C168.534 359.678 168.619 359.817 168.706 359.954C170.88 363.39 174.538 366.264 177.434 366.889C177.761 366.959 178.078 367.001 178.383 367.011L407.775 375.022C409.929 375.097 410.881 373.6 410.481 371.343C410.302 370.337 409.855 369.18 409.126 367.944L327.156 229.023L326.246 228.991L408.216 367.912Z" fill="#B5CDFB"></path>
<path d="M565.392 177.827C565.683 177.827 565.92 177.59 565.92 177.299C565.92 177.007 565.683 176.771 565.392 176.771C565.1 176.771 564.863 177.007 564.863 177.299C564.863 177.59 565.1 177.827 565.392 177.827Z" fill="#3913B8"></path>
<path d="M561.218 168.226C561.509 168.226 561.746 167.99 561.746 167.698C561.746 167.406 561.509 167.17 561.218 167.17C560.926 167.17 560.689 167.406 560.689 167.698C560.689 167.99 560.926 168.226 561.218 168.226Z" fill="#3913B8"></path>
<path d="M325.131 432.369H291.859L266.668 386.804L299.94 388.225L325.131 432.369Z" fill="#B5CDFB"></path>
<path opacity="0.2" d="M321.329 426.227L288.899 426.466L283.605 417.361L316.035 417.122L321.329 426.227Z" fill="#303030"></path>
<path d="M378.683 432.368H237.631V431.589C237.631 428.759 239.925 426.465 242.755 426.465H373.559C376.389 426.465 378.683 428.759 378.683 431.589V432.368Z" fill="#B5CDFB"></path>
<path d="M32.3961 196.829L73.2859 198.257L74.1897 198.289L78.924 198.454L308.316 206.465L313.05 206.63L313.96 206.662L329.113 207.191C333.894 207.358 340.73 212.497 344.374 218.674C348.015 224.844 347.088 229.719 342.307 229.552L327.154 229.023L326.244 228.991L321.51 228.826L92.1181 220.815L87.3838 220.65L86.48 220.618L45.5902 219.19C40.8034 219.023 33.9692 213.877 30.3289 207.707C26.6841 201.53 27.6093 196.662 32.3961 196.829Z" fill="#3913B8"></path>
<path d="M333.283 248.779L236.496 245.399L300.611 354.059L397.398 357.439L402.133 357.605L338.018 248.944L333.283 248.779Z" fill="#3913B8"></path>
<path d="M362.746 249.808L337.808 248.937L401.923 357.597L426.861 358.468L362.746 249.808Z" fill="#3913B8"></path>
<path d="M48.0854 239.094L67.5306 272.049L124.876 273.779L105.43 240.824L48.0854 239.094Z" fill="#3913B8"></path>
<path d="M218.63 244.776L103.891 240.769L99.1562 240.604L118.601 273.558L123.336 273.724L238.075 277.731L218.63 244.776Z" fill="#3913B8"></path>
<path d="M578.367 433.645H430.008V430.519C430.008 427.276 432.637 424.646 435.88 424.646H572.495C575.738 424.646 578.367 427.276 578.367 430.519V433.645Z" fill="#3913B8"></path>
<path d="M479.021 568.531H99.4902C89.4315 568.531 81.2773 560.377 81.2773 550.318V483.522C81.2773 473.464 89.4315 465.31 99.4902 465.31H479.021C489.08 465.31 497.234 473.464 497.234 483.522V550.318C497.234 560.377 489.08 568.531 479.021 568.531Z" fill="#B5CDFB"></path>
<path d="M750.148 568.531H528.553C518.494 568.531 510.34 560.377 510.34 550.318V483.522C510.34 473.464 518.494 465.31 528.553 465.31H750.148C760.206 465.31 768.361 473.464 768.361 483.522V550.318C768.361 560.377 760.206 568.531 750.148 568.531Z" fill="#B5CDFB"></path>
<path d="M782.506 518.047H73.6959C69.5635 518.047 66.2012 514.685 66.2012 510.552C66.2012 506.42 69.5635 503.058 73.6959 503.058H782.506C786.639 503.058 790.001 506.42 790.001 510.552C790.001 514.685 786.639 518.047 782.506 518.047ZM73.6959 505.311C70.8056 505.311 68.4551 507.662 68.4551 510.552C68.4551 513.443 70.8056 515.793 73.6959 515.793H782.506C785.397 515.793 787.747 513.443 787.747 510.552C787.747 507.662 785.397 505.311 782.506 505.311H73.6959Z" fill="#3913B8"></path>
<path d="M233.427 259.206C233.229 259.206 233.038 259.093 232.949 258.9L231.849 256.508C231.728 256.244 231.843 255.931 232.107 255.81C232.369 255.689 232.684 255.803 232.805 256.068L233.906 258.459C234.027 258.724 233.912 259.036 233.647 259.158C233.576 259.191 233.501 259.206 233.427 259.206Z" fill="#303030"></path>
<path d="M230.145 252.071C229.947 252.071 229.755 251.958 229.667 251.764L227.485 247.021C227.364 246.757 227.479 246.444 227.743 246.323C228.005 246.202 228.32 246.316 228.441 246.581L230.623 251.324C230.745 251.589 230.629 251.901 230.365 252.022C230.294 252.055 230.219 252.071 230.145 252.071ZM225.782 242.584C225.584 242.584 225.393 242.471 225.304 242.278L223.122 237.535C223.001 237.27 223.116 236.958 223.38 236.837C223.642 236.714 223.957 236.83 224.079 237.095L226.26 241.838C226.382 242.102 226.267 242.415 226.002 242.536C225.931 242.569 225.856 242.584 225.782 242.584ZM221.419 233.098C221.22 233.098 221.029 232.985 220.94 232.791L218.759 228.048C218.637 227.784 218.752 227.471 219.017 227.35C219.279 227.231 219.593 227.343 219.715 227.608L221.897 232.351C222.018 232.616 221.903 232.928 221.639 233.05C221.568 233.082 221.493 233.098 221.419 233.098ZM217.056 223.611C216.857 223.611 216.666 223.498 216.578 223.305L214.396 218.562C214.274 218.298 214.39 217.985 214.654 217.864C214.915 217.742 215.23 217.856 215.352 218.122L217.534 222.865C217.655 223.129 217.54 223.442 217.276 223.563C217.205 223.596 217.13 223.611 217.056 223.611ZM212.692 214.124C212.493 214.124 212.302 214.011 212.214 213.818L210.033 209.074C209.912 208.81 210.027 208.497 210.291 208.376C210.55 208.253 210.867 208.369 210.989 208.634L213.17 213.377C213.291 213.642 213.176 213.954 212.912 214.076C212.841 214.109 212.766 214.124 212.692 214.124ZM208.329 204.637C208.131 204.637 207.939 204.524 207.851 204.331L205.669 199.588C205.548 199.324 205.663 199.011 205.927 198.89C206.188 198.767 206.505 198.883 206.625 199.148L208.807 203.891C208.929 204.155 208.813 204.468 208.549 204.589C208.478 204.622 208.403 204.637 208.329 204.637ZM203.966 195.151C203.768 195.151 203.577 195.038 203.488 194.845L201.306 190.101C201.185 189.837 201.3 189.525 201.564 189.403C201.825 189.284 202.141 189.396 202.263 189.661L204.445 194.405C204.566 194.669 204.451 194.981 204.186 195.103C204.115 195.136 204.04 195.151 203.966 195.151ZM199.603 185.665C199.404 185.665 199.213 185.551 199.124 185.358L196.943 180.615C196.821 180.351 196.936 180.038 197.201 179.917C197.461 179.795 197.776 179.91 197.899 180.175L200.081 184.918C200.202 185.182 200.087 185.495 199.823 185.616C199.752 185.649 199.677 185.665 199.603 185.665ZM195.24 176.178C195.041 176.178 194.85 176.065 194.762 175.872L192.58 171.128C192.458 170.864 192.574 170.552 192.838 170.43C193.098 170.308 193.415 170.423 193.536 170.688L195.718 175.432C195.839 175.696 195.724 176.008 195.46 176.13C195.389 176.163 195.314 176.178 195.24 176.178ZM190.876 166.692C190.677 166.692 190.486 166.579 190.398 166.385L188.217 161.642C188.096 161.378 188.211 161.065 188.475 160.944C188.738 160.825 189.052 160.937 189.173 161.202L191.354 165.945C191.475 166.209 191.36 166.522 191.096 166.643C191.025 166.676 190.95 166.692 190.876 166.692ZM186.513 157.205C186.315 157.205 186.124 157.092 186.035 156.899L183.853 152.156C183.732 151.891 183.847 151.579 184.111 151.457C184.37 151.337 184.688 151.45 184.809 151.716L186.991 156.459C187.113 156.723 186.998 157.036 186.733 157.157C186.662 157.19 186.587 157.205 186.513 157.205ZM182.149 147.719C181.95 147.719 181.76 147.606 181.671 147.412L179.49 142.668C179.369 142.404 179.484 142.091 179.748 141.97C180.009 141.848 180.325 141.963 180.447 142.228L182.628 146.972C182.749 147.237 182.634 147.549 182.369 147.67C182.298 147.703 182.223 147.719 182.149 147.719ZM177.787 138.231C177.588 138.231 177.397 138.118 177.308 137.925L175.127 133.182C175.005 132.917 175.12 132.605 175.385 132.483C175.648 132.361 175.962 132.476 176.083 132.742L178.265 137.485C178.386 137.749 178.271 138.062 178.007 138.183C177.936 138.216 177.861 138.231 177.787 138.231ZM173.424 128.745C173.225 128.745 173.034 128.632 172.946 128.438L171.977 126.334C171.534 125.371 171.296 124.357 171.27 123.32C171.262 123.029 171.492 122.787 171.783 122.78C172.072 122.814 172.316 123.003 172.323 123.293C172.345 124.187 172.551 125.062 172.933 125.894L173.902 127.998C174.023 128.263 173.908 128.575 173.644 128.697C173.573 128.729 173.498 128.745 173.424 128.745ZM173.513 119.024C173.392 119.024 173.271 118.983 173.172 118.899C172.951 118.709 172.924 118.377 173.112 118.156C174.344 116.709 176.054 115.781 177.929 115.54C178.21 115.494 178.481 115.706 178.518 115.996C178.555 116.284 178.351 116.548 178.062 116.585C176.449 116.792 174.975 117.593 173.914 118.839C173.81 118.961 173.662 119.024 173.513 119.024ZM334.621 116.529H329.4C329.109 116.529 328.874 116.294 328.874 116.003C328.874 115.712 329.109 115.477 329.4 115.477H334.621C334.912 115.477 335.147 115.712 335.147 116.003C335.147 116.294 334.912 116.529 334.621 116.529ZM324.179 116.529H318.957C318.667 116.529 318.431 116.294 318.431 116.003C318.431 115.712 318.667 115.477 318.957 115.477H324.179C324.47 115.477 324.705 115.712 324.705 116.003C324.705 116.294 324.47 116.529 324.179 116.529ZM313.737 116.529H308.516C308.225 116.529 307.989 116.294 307.989 116.003C307.989 115.712 308.225 115.477 308.516 115.477H313.737C314.028 115.477 314.264 115.712 314.264 116.003C314.264 116.294 314.028 116.529 313.737 116.529ZM303.296 116.529H298.074C297.783 116.529 297.548 116.294 297.548 116.003C297.548 115.712 297.783 115.477 298.074 115.477H303.296C303.586 115.477 303.822 115.712 303.822 116.003C303.822 116.294 303.586 116.529 303.296 116.529ZM292.853 116.529H287.632C287.341 116.529 287.106 116.294 287.106 116.003C287.106 115.712 287.341 115.477 287.632 115.477H292.853C293.144 115.477 293.379 115.712 293.379 116.003C293.379 116.294 293.144 116.529 292.853 116.529ZM282.411 116.529H277.191C276.9 116.529 276.664 116.294 276.664 116.003C276.664 115.712 276.9 115.477 277.191 115.477H282.411C282.702 115.477 282.938 115.712 282.938 116.003C282.938 116.294 282.702 116.529 282.411 116.529ZM271.969 116.529H266.748C266.457 116.529 266.222 116.294 266.222 116.003C266.222 115.712 266.457 115.477 266.748 115.477H271.969C272.26 115.477 272.496 115.712 272.496 116.003C272.496 116.294 272.26 116.529 271.969 116.529ZM261.528 116.529H256.306C256.015 116.529 255.78 116.294 255.78 116.003C255.78 115.712 256.015 115.477 256.306 115.477H261.528C261.819 115.477 262.054 115.712 262.054 116.003C262.054 116.294 261.819 116.529 261.528 116.529ZM251.086 116.529H245.865C245.574 116.529 245.338 116.294 245.338 116.003C245.338 115.712 245.574 115.477 245.865 115.477H251.086C251.377 115.477 251.613 115.712 251.613 116.003C251.613 116.294 251.377 116.529 251.086 116.529ZM240.643 116.529H235.423C235.132 116.529 234.897 116.294 234.897 116.003C234.897 115.712 235.132 115.477 235.423 115.477H240.643C240.934 115.477 241.17 115.712 241.17 116.003C241.17 116.294 240.934 116.529 240.643 116.529ZM230.202 116.529H224.981C224.69 116.529 224.455 116.294 224.455 116.003C224.455 115.712 224.69 115.477 224.981 115.477H230.202C230.493 115.477 230.728 115.712 230.728 116.003C230.728 116.294 230.493 116.529 230.202 116.529ZM219.76 116.529H214.539C214.248 116.529 214.012 116.294 214.012 116.003C214.012 115.712 214.248 115.477 214.539 115.477H219.76C220.051 115.477 220.286 115.712 220.286 116.003C220.286 116.294 220.051 116.529 219.76 116.529ZM209.318 116.529H204.097C203.806 116.529 203.571 116.294 203.571 116.003C203.571 115.712 203.806 115.477 204.097 115.477H209.318C209.609 115.477 209.845 115.712 209.845 116.003C209.845 116.294 209.609 116.529 209.318 116.529ZM198.877 116.529H193.655C193.364 116.529 193.129 116.294 193.129 116.003C193.129 115.712 193.364 115.477 193.655 115.477H198.877C199.168 115.477 199.403 115.712 199.403 116.003C199.403 116.294 199.168 116.529 198.877 116.529ZM188.434 116.529H183.214C182.923 116.529 182.687 116.294 182.687 116.003C182.687 115.712 182.923 115.477 183.214 115.477H188.434C188.725 115.477 188.96 115.712 188.96 116.003C188.96 116.294 188.725 116.529 188.434 116.529Z" fill="#303030"></path>
<path d="M342.489 116.529H339.857C339.566 116.529 339.33 116.294 339.33 116.003C339.33 115.712 339.566 115.477 339.857 115.477H342.489C342.78 115.477 343.015 115.712 343.015 116.003C343.015 116.294 342.78 116.529 342.489 116.529Z" fill="#303030"></path>
<path d="M245.871 266.404C247.186 263.108 244.19 258.815 239.18 256.817C234.169 254.818 229.041 255.87 227.726 259.167C226.412 262.463 229.408 266.756 234.418 268.754C239.429 270.753 244.556 269.701 245.871 266.404Z" fill="#303030"></path>
<path d="M345.538 125.015C340.297 125.015 335.923 120.979 335.788 116.018C335.726 113.7 336.592 111.496 338.231 109.813C340.001 107.994 342.432 106.992 345.075 106.992C350.316 106.992 354.69 111.028 354.825 115.989C354.888 118.308 354.021 120.511 352.382 122.195C350.612 124.014 348.182 125.015 345.538 125.015ZM345.075 108.045C342.719 108.045 340.556 108.933 338.986 110.547C337.548 112.025 336.786 113.957 336.841 115.989C336.961 120.386 340.862 123.962 345.538 123.962C347.895 123.962 350.058 123.074 351.628 121.46C353.066 119.983 353.828 118.05 353.772 116.018C353.653 111.621 349.752 108.045 345.075 108.045Z" fill="#303030"></path>
<path d="M345.308 120.151C347.599 120.151 349.456 118.294 349.456 116.003C349.456 113.713 347.599 111.855 345.308 111.855C343.017 111.855 341.16 113.713 341.16 116.003C341.16 118.294 343.017 120.151 345.308 120.151Z" fill="#3913B8"></path>
<path d="M354.046 135.737H303.45C302.961 135.737 302.566 135.342 302.566 134.854C302.566 134.366 302.961 133.971 303.45 133.971H354.046C354.534 133.971 354.929 134.366 354.929 134.854C354.929 135.342 354.534 135.737 354.046 135.737Z" fill="#3913B8"></path>
<path d="M354.046 140.915H303.45C302.961 140.915 302.566 140.52 302.566 140.032C302.566 139.543 302.961 139.148 303.45 139.148H354.046C354.534 139.148 354.929 139.543 354.929 140.032C354.929 140.52 354.534 140.915 354.046 140.915Z" fill="#3913B8"></path>
<path d="M84.2537 73.1288H33.6586C33.1702 73.1288 32.7754 72.734 32.7754 72.2456C32.7754 71.7571 33.1702 71.3623 33.6586 71.3623H84.2537C84.7421 71.3623 85.137 71.7571 85.137 72.2456C85.137 72.734 84.7421 73.1288 84.2537 73.1288Z" fill="#3913B8"></path>
<path d="M84.2537 80.5429H33.6586C33.1702 80.5429 32.7754 80.148 32.7754 79.6596C32.7754 79.1712 33.1702 78.7764 33.6586 78.7764H84.2537C84.7421 78.7764 85.137 79.1712 85.137 79.6596C85.137 80.148 84.7421 80.5429 84.2537 80.5429Z" fill="#3913B8"></path>
<path d="M147.511 315.088L128.071 282.141L116.914 281.937L136.355 314.884L147.511 315.088Z" fill="#9F8AFF"></path>
<path d="M147.86 315.285L175.229 316.241L155.788 283.294L128.42 282.338L123.686 282.173L143.126 315.12L147.86 315.285Z" fill="#9F8AFF"></path>
<path d="M140.055 321.15L159.5 354.105L168.399 354.31L148.954 321.355L140.055 321.15Z" fill="#9F8AFF"></path>
<path d="M262.598 319.293L243.158 286.346L204.291 284.988L223.732 317.935L262.598 319.293Z" fill="#9F8AFF"></path>
<path d="M218.913 317.767L199.472 284.819L160.605 283.462L180.046 316.41L218.913 317.767Z" fill="#9F8AFF"></path>
<path d="M112.099 281.769L73.2266 280.411L92.667 313.359L131.54 314.716L112.099 281.769Z" fill="#9F8AFF"></path>
<path d="M266.298 325.56L227.432 324.203L246.876 357.157L285.743 358.515L266.298 325.56Z" fill="#9F8AFF"></path>
<path d="M183.742 322.678L203.187 355.633L242.053 356.99L222.609 324.035L183.742 322.678Z" fill="#9F8AFF"></path>
<path d="M151.559 321.553L146.824 321.388L166.269 354.342L171.003 354.508L198.372 355.463L178.927 322.508L151.559 321.553Z" fill="#9F8AFF"></path>
<path d="M96.3652 319.625L115.81 352.58L154.683 353.937L135.238 320.983L96.3652 319.625Z" fill="#9F8AFF"></path>
<path opacity="0.160784" d="M398.178 363.46L394.36 356.989L305.278 206.015L298.104 193.857C296.017 190.321 292.104 187.376 289.364 187.281L69.9019 179.617C67.1615 179.521 66.6257 182.31 68.7123 185.846L75.8865 198.004L89.0807 220.366H89.0805L100.854 240.319L120.299 273.274L125.382 281.889L145.476 315.943L148.521 321.103L167.965 354.057L168.787 355.45C170.873 358.986 174.792 361.93 177.532 362.026L396.994 369.689C399.735 369.785 400.265 366.996 398.178 363.46Z" fill="#9F8AFF"></path>
</svg>