<svg width="600" height="450" viewBox="0 0 800 600" fill="none" xmlns="http://www.w3.org/2000/svg" data-reactroot="">
<path d="M556.191 496.009H103.65C97.3857 496.009 92.2891 490.912 92.2891 484.647C92.2891 478.383 97.3857 473.286 103.65 473.286H556.191C562.455 473.286 567.552 478.383 567.552 484.647C567.552 490.912 562.455 496.009 556.191 496.009Z" fill="#75E0E6"></path>
<path d="M566.49 81.1628H565.429V14.5878C565.429 12.7827 563.942 11.2962 562.137 11.2962H513.4C511.595 11.2962 510.109 12.7827 510.109 14.5878V52.6003H509.047V14.5878C509.047 12.1456 510.958 10.2344 513.4 10.2344H562.137C564.579 10.2344 566.49 12.1456 566.49 14.5878V81.1628Z" fill="#2E3740"></path>
<path d="M436.846 188.936H433.023V74.8984H436.846C439.713 74.8984 442.155 77.2344 442.155 80.2074V183.733C442.049 186.6 439.713 188.936 436.846 188.936Z" fill="#75E0E6"></path>
<path d="M436.846 461.925H433.023V347.888H436.846C439.713 347.888 442.155 350.224 442.155 353.197V456.616C442.049 459.589 439.713 461.925 436.846 461.925Z" fill="#75E0E6"></path>
<path d="M299.447 40.7085V44.1063H225.758V40.7085C225.758 38.5849 227.457 36.9922 229.474 36.9922H295.624C297.748 36.9922 299.447 38.6911 299.447 40.7085Z" fill="#75E0E6"></path>
<path d="M10 533.809V527.545C10 503.866 29.2186 484.754 52.7906 484.754H730.645C754.323 484.754 773.436 503.973 773.436 527.545V533.809C773.436 557.487 754.323 576.6 730.645 576.6H52.7906C29.2186 576.6 10 557.487 10 533.809Z" fill="#B5CDFB"></path>
<path d="M14.1406 350.011V343.747C14.1406 320.068 33.3592 300.956 56.9313 300.956H458.505C482.183 300.956 501.296 320.175 501.296 343.747V350.011C501.296 373.689 482.077 392.802 458.505 392.802H56.9313C33.3592 392.802 14.1406 373.689 14.1406 350.011Z" fill="#B5CDFB"></path>
<path d="M536.975 350.011V343.747C536.975 320.068 556.193 300.956 579.765 300.956C603.443 300.956 622.556 320.175 622.556 343.747V350.011C622.556 373.689 603.337 392.802 579.765 392.802C556.087 392.802 536.975 373.583 536.975 350.011Z" fill="#B5CDFB"></path>
<path d="M218.964 485.284H118.199C117.88 485.284 117.668 485.072 117.668 484.754C117.668 484.435 117.88 484.223 118.199 484.223H218.964C219.282 484.223 219.495 484.435 219.495 484.754C219.495 485.072 219.282 485.284 218.964 485.284Z" fill="#2E3740"></path>
<path d="M566.808 113.442C576.894 113.442 585.071 105.265 585.071 95.179C585.071 85.0927 576.894 76.916 566.808 76.916C556.722 76.916 548.545 85.0927 548.545 95.179C548.545 105.265 556.722 113.442 566.808 113.442Z" fill="#2E3740"></path>
<path opacity="0.7" d="M755.704 166H577.003C571.163 166 566.385 161.222 566.385 155.382V39.327C566.385 33.4871 571.163 28.709 577.003 28.709H755.704C761.544 28.709 766.322 33.4871 766.322 39.327V155.488C766.322 161.328 761.544 166 755.704 166Z" fill="#B5CDFB"></path>
<path d="M425.696 567.363H214.929C209.089 567.363 204.311 562.584 204.311 556.745V51.9637C204.311 46.1238 209.089 41.3457 214.929 41.3457H425.696C431.536 41.3457 436.314 46.1238 436.314 51.9637V556.745C436.314 562.584 431.642 567.363 425.696 567.363Z" fill="#2E3740"></path>
<path opacity="0.4" d="M261.01 284.71H436.42V277.277H261.01C253.365 277.277 247.207 283.436 247.207 291.081V318.263C247.207 325.908 253.365 332.066 261.01 332.066H436.42V324.634H261.01C257.507 324.634 254.64 321.767 254.64 318.263V291.081C254.64 287.577 257.4 284.71 261.01 284.71Z" fill="black"></path>
<path opacity="0.4" d="M261.01 339.818C253.365 339.818 247.207 345.977 247.207 353.622V380.804C247.207 388.449 253.365 394.607 261.01 394.607H436.42V339.818H261.01Z" fill="black"></path>
<path opacity="0.4" d="M261.01 409.366H436.42V401.934H261.01C253.365 401.934 247.207 408.092 247.207 415.737V442.919C247.207 450.564 253.365 456.723 261.01 456.723H436.42V449.29H261.01C257.507 449.29 254.64 446.423 254.64 442.919V415.737C254.64 412.233 257.4 409.366 261.01 409.366Z" fill="black"></path>
<path opacity="0.97" d="M439.073 555.576H201.654C194.753 555.576 189.125 549.948 189.125 543.046V488.045C189.125 481.143 194.753 475.516 201.654 475.516H439.073C445.975 475.516 451.603 481.143 451.603 488.045V543.046C451.603 549.948 445.975 555.576 439.073 555.576Z" fill="#2249B3"></path>
<path d="M479.423 247.547H458.93C456.806 247.547 455.107 245.848 455.107 243.724V223.232C455.107 221.108 456.806 219.409 458.93 219.409H479.423C481.546 219.409 483.245 221.108 483.245 223.232V243.724C483.139 245.848 481.44 247.547 479.423 247.547Z" fill="#2E3740"></path>
<path opacity="0.7" d="M416.774 247.547H396.281C394.158 247.547 392.459 245.848 392.459 243.724V223.232C392.459 221.108 394.158 219.409 396.281 219.409H416.774C418.898 219.409 420.597 221.108 420.597 223.232V243.724C420.597 245.848 418.898 247.547 416.774 247.547Z" fill="#2249B3"></path>
<path opacity="0.7" d="M354.237 247.547H333.744C331.621 247.547 329.922 245.848 329.922 243.724V223.232C329.922 221.108 331.621 219.409 333.744 219.409H354.237C356.361 219.409 358.06 221.108 358.06 223.232V243.724C358.06 245.848 356.361 247.547 354.237 247.547Z" fill="#2249B3"></path>
<path opacity="0.7" d="M291.698 247.547H271.205C269.082 247.547 267.383 245.848 267.383 243.724V223.232C267.383 221.108 269.082 219.409 271.205 219.409H291.698C293.822 219.409 295.521 221.108 295.521 223.232V243.724C295.414 245.848 293.716 247.547 291.698 247.547Z" fill="#2249B3"></path>
<path d="M298.705 257.634H264.197C260.374 257.634 257.295 254.555 257.295 250.733V216.224C257.295 212.401 260.374 209.322 264.197 209.322H298.705C302.528 209.322 305.607 212.401 305.607 216.224V250.733C305.607 254.555 302.528 257.634 298.705 257.634ZM264.09 210.384C260.905 210.384 258.251 213.039 258.251 216.224V250.733C258.251 253.918 260.905 256.572 264.09 256.572H298.599C301.784 256.572 304.439 253.918 304.439 250.733V216.224C304.439 213.039 301.784 210.384 298.599 210.384H264.09Z" fill="#75E0E6"></path>
<path d="M361.244 257.634H326.736C322.913 257.634 319.834 254.555 319.834 250.733V216.224C319.834 212.401 322.913 209.322 326.736 209.322H361.244C365.067 209.322 368.146 212.401 368.146 216.224V250.733C368.146 254.555 365.067 257.634 361.244 257.634ZM326.736 210.384C323.55 210.384 320.896 213.039 320.896 216.224V250.733C320.896 253.918 323.55 256.572 326.736 256.572H361.244C364.43 256.572 367.084 253.918 367.084 250.733V216.224C367.084 213.039 364.43 210.384 361.244 210.384H326.736Z" fill="#75E0E6"></path>
<path d="M423.783 257.634H389.275C385.452 257.634 382.373 254.555 382.373 250.733V216.224C382.373 212.401 385.452 209.322 389.275 209.322H423.783C427.606 209.322 430.685 212.401 430.685 216.224V250.733C430.685 254.555 427.606 257.634 423.783 257.634ZM389.275 210.384C386.089 210.384 383.435 213.039 383.435 216.224V250.733C383.435 253.918 386.089 256.572 389.275 256.572H423.783C426.969 256.572 429.623 253.918 429.623 250.733V216.224C429.623 213.039 426.969 210.384 423.783 210.384H389.275Z" fill="#75E0E6"></path>
<path d="M486.432 257.634H451.923C448.101 257.634 445.021 254.555 445.021 250.733V216.224C445.021 212.401 448.101 209.322 451.923 209.322H486.432C490.254 209.322 493.333 212.401 493.333 216.224V250.733C493.333 254.555 490.254 257.634 486.432 257.634ZM451.817 210.384C448.632 210.384 445.977 213.039 445.977 216.224V250.733C445.977 253.918 448.632 256.572 451.817 256.572H486.326C489.511 256.572 492.166 253.918 492.166 250.733V216.224C492.166 213.039 489.511 210.384 486.326 210.384H451.817Z" fill="#75E0E6"></path>
<path d="M486.431 108.45C489.404 108.45 491.74 110.786 491.74 113.759V180.865C491.74 183.838 489.404 186.174 486.431 186.174H264.09C261.117 186.174 258.781 183.838 258.781 180.865V113.759C258.781 110.786 261.117 108.45 264.09 108.45H486.431ZM486.431 107.389H264.09C260.586 107.389 257.719 110.256 257.719 113.759V180.865C257.719 184.369 260.586 187.236 264.09 187.236H486.325C489.829 187.236 492.696 184.369 492.696 180.865V113.759C492.802 110.149 489.935 107.389 486.431 107.389Z" fill="#75E0E6"></path>
<path d="M486.431 280.888C489.404 280.888 491.74 283.224 491.74 286.197V313.273C491.74 316.246 489.404 318.582 486.431 318.582H264.09C261.117 318.582 258.781 316.246 258.781 313.273V286.091C258.781 283.118 261.117 280.782 264.09 280.782H486.431V280.888ZM486.431 279.826H264.09C260.586 279.826 257.719 282.693 257.719 286.197V313.273C257.719 316.777 260.586 319.644 264.09 319.644H486.325C489.829 319.644 492.696 316.777 492.696 313.273V286.091C492.802 282.587 489.935 279.826 486.431 279.826Z" fill="#75E0E6"></path>
<path opacity="0.97" d="M486.431 382.29H264.09C260.586 382.29 257.719 379.423 257.719 375.919V348.737C257.719 345.233 260.586 342.366 264.09 342.366H486.325C489.829 342.366 492.696 345.233 492.696 348.737V375.919C492.802 379.423 489.935 382.29 486.431 382.29Z" fill="#2249B3"></path>
<path d="M486.431 405.968C489.404 405.968 491.74 408.304 491.74 411.277V438.459C491.74 441.432 489.404 443.768 486.431 443.768H264.09C261.117 443.768 258.781 441.432 258.781 438.459V411.277C258.781 408.304 261.117 405.968 264.09 405.968H486.431ZM486.431 404.906H264.09C260.586 404.906 257.719 407.773 257.719 411.277V438.459C257.719 441.963 260.586 444.83 264.09 444.83H486.325C489.829 444.83 492.696 441.963 492.696 438.459V411.277C492.802 407.773 489.935 404.906 486.431 404.906Z" fill="#75E0E6"></path>
<path d="M279.38 310.3C273.54 310.3 268.762 305.521 268.762 299.682C268.762 293.842 273.54 289.063 279.38 289.063C285.22 289.063 289.998 293.842 289.998 299.682C289.998 305.521 285.22 310.3 279.38 310.3ZM279.38 290.231C274.071 290.231 269.824 294.479 269.824 299.788C269.824 305.097 274.071 309.344 279.38 309.344C284.689 309.344 288.936 305.097 288.936 299.788C288.936 294.479 284.689 290.231 279.38 290.231Z" fill="#75E0E6"></path>
<path d="M279.378 372.415C284.949 372.415 289.465 367.899 289.465 362.328C289.465 356.757 284.949 352.241 279.378 352.241C273.807 352.241 269.291 356.757 269.291 362.328C269.291 367.899 273.807 372.415 279.378 372.415Z" fill="#75E0E6"></path>
<path d="M279.38 435.486C273.54 435.486 268.762 430.708 268.762 424.868C268.762 419.028 273.54 414.25 279.38 414.25C285.22 414.25 289.998 419.028 289.998 424.868C289.998 430.708 285.22 435.486 279.38 435.486ZM279.38 415.312C274.071 415.312 269.824 419.559 269.824 424.868C269.824 430.177 274.071 434.424 279.38 434.424C284.689 434.424 288.936 430.177 288.936 424.868C288.936 419.559 284.689 415.312 279.38 415.312Z" fill="#75E0E6"></path>
<path d="M378.02 63.7497H262.602C258.249 63.7497 254.639 60.1396 254.639 55.7862V41.3457H385.984V55.7862C385.984 60.2458 382.48 63.7497 378.02 63.7497Z" fill="#2249B3"></path>
<path d="M232.342 531.26H215.99C211.849 531.26 208.451 527.863 208.451 523.722V507.37C208.451 503.229 211.849 499.831 215.99 499.831H232.342C236.483 499.831 239.881 503.229 239.881 507.37V523.722C239.881 527.863 236.589 531.26 232.342 531.26Z" fill="#75E0E6"></path>
<path opacity="0.1" d="M304.97 543.684C299.13 543.684 294.352 538.906 294.352 533.066V502.38C294.352 496.54 299.13 491.762 304.97 491.762H335.656C341.496 491.762 346.274 496.54 346.274 502.38V533.066C346.274 538.906 341.496 543.684 335.656 543.684H304.97Z" fill="black"></path>
<path d="M279.379 531.26H263.027C258.886 531.26 255.488 527.863 255.488 523.722V507.37C255.488 503.229 258.886 499.831 263.027 499.831H279.379C283.52 499.831 286.918 503.229 286.918 507.37V523.722C286.918 527.863 283.52 531.26 279.379 531.26Z" fill="#75E0E6"></path>
<path d="M335.655 537.207H304.968C301.465 537.207 298.598 534.34 298.598 530.836V500.15C298.598 496.646 301.465 493.779 304.968 493.779H335.655C339.159 493.779 342.025 496.646 342.025 500.15V530.836C342.025 534.34 339.159 537.207 335.655 537.207Z" fill="#2249B3"></path>
<path d="M334.807 536.039H305.82C302.528 536.039 299.768 533.385 299.768 529.987V501C299.768 497.708 302.422 494.947 305.82 494.947H334.807C338.099 494.947 340.859 497.602 340.859 501V529.987C340.859 533.385 338.205 536.039 334.807 536.039Z" fill="#2E3740"></path>
<path d="M377.596 531.26H361.244C357.103 531.26 353.705 527.863 353.705 523.722V507.37C353.705 503.229 357.103 499.831 361.244 499.831H377.596C381.737 499.831 385.134 503.229 385.134 507.37V523.722C385.134 527.863 381.737 531.26 377.596 531.26Z" fill="#75E0E6"></path>
<path opacity="0.2" d="M377.596 531.26H361.244C357.103 531.26 353.705 527.863 353.705 523.722V507.37C353.705 503.229 357.103 499.831 361.244 499.831H377.596C381.737 499.831 385.134 503.229 385.134 507.37V523.722C385.134 527.863 381.737 531.26 377.596 531.26Z" fill="black"></path>
<path d="M424.635 531.26H408.283C404.142 531.26 400.744 527.863 400.744 523.722V507.37C400.744 503.229 404.142 499.831 408.283 499.831H424.635C428.776 499.831 432.173 503.229 432.173 507.37V523.722C432.173 527.863 428.776 531.26 424.635 531.26Z" fill="#75E0E6"></path>
<path d="M363.262 560.885H277.469V563.858H363.262V560.885Z" fill="#75E0E6"></path>
<path d="M242.853 71.925H223.634C223.209 71.925 222.891 71.6065 222.891 71.1818C222.891 70.757 223.209 70.4385 223.634 70.4385H242.853C243.277 70.4385 243.596 70.757 243.596 71.1818C243.596 71.6065 243.277 71.925 242.853 71.925Z" fill="#75E0E6"></path>
<path d="M242.853 75.1106H223.634C223.209 75.1106 222.891 74.792 222.891 74.3673C222.891 73.9426 223.209 73.624 223.634 73.624H242.853C243.277 73.624 243.596 73.9426 243.596 74.3673C243.596 74.792 243.277 75.1106 242.853 75.1106Z" fill="#75E0E6"></path>
<path d="M242.853 78.4025H223.634C223.209 78.4025 222.891 78.084 222.891 77.6593C222.891 77.2346 223.209 76.916 223.634 76.916H242.853C243.277 76.916 243.596 77.2346 243.596 77.6593C243.596 78.084 243.277 78.4025 242.853 78.4025Z" fill="#75E0E6"></path>
<path opacity="0.7" d="M355.192 135.315H273.646C272.903 135.315 272.266 134.678 272.266 133.934V127.776C272.266 127.033 272.903 126.396 273.646 126.396H355.192C355.936 126.396 356.573 127.033 356.573 127.776V133.934C356.573 134.784 355.936 135.315 355.192 135.315Z" fill="#2249B3"></path>
<path opacity="0.7" d="M475.813 152.091H274.389C273.221 152.091 272.266 151.135 272.266 149.967V145.295C272.266 144.127 273.221 143.172 274.389 143.172H475.813C476.981 143.172 477.937 144.127 477.937 145.295V149.967C477.937 151.135 476.981 152.091 475.813 152.091Z" fill="#2249B3"></path>
<path opacity="0.7" d="M475.813 168.019H274.389C273.221 168.019 272.266 167.063 272.266 165.895V161.223C272.266 160.055 273.221 159.1 274.389 159.1H475.813C476.981 159.1 477.937 160.055 477.937 161.223V165.895C477.937 167.063 476.981 168.019 475.813 168.019Z" fill="#2249B3"></path>
<path opacity="0.7" d="M482.714 304.034H300.721C299.553 304.034 298.598 303.079 298.598 301.911V297.239C298.598 296.071 299.553 295.115 300.721 295.115H482.608C483.776 295.115 484.732 296.071 484.732 297.239V301.911C484.838 303.079 483.882 304.034 482.714 304.034Z" fill="#2249B3"></path>
<path d="M482.714 358.505H300.721C299.553 358.505 298.598 357.55 298.598 356.382V354.895C298.598 353.727 299.553 352.771 300.721 352.771H482.608C483.776 352.771 484.732 353.727 484.732 354.895V356.382C484.838 357.55 483.882 358.505 482.714 358.505Z" fill="#75E0E6"></path>
<path d="M482.714 371.778H300.721C299.553 371.778 298.598 370.823 298.598 369.655V364.983C298.598 363.815 299.553 362.859 300.721 362.859H482.608C483.776 362.859 484.732 363.815 484.732 364.983V369.655C484.838 370.823 483.882 371.778 482.714 371.778Z" fill="#75E0E6"></path>
<path opacity="0.7" d="M442.366 429.327H300.721C299.553 429.327 298.598 428.372 298.598 427.204V422.532C298.598 421.364 299.553 420.408 300.721 420.408H442.26C443.428 420.408 444.383 421.364 444.383 422.532V427.204C444.489 428.372 443.534 429.327 442.366 429.327Z" fill="#2249B3"></path>
<path opacity="0.7" d="M482.716 429.327H452.667C451.499 429.327 450.543 428.372 450.543 427.204V422.532C450.543 421.364 451.499 420.408 452.667 420.408H482.716C483.884 420.408 484.839 421.364 484.839 422.532V427.204C484.839 428.372 483.884 429.327 482.716 429.327Z" fill="#2249B3"></path>
<path d="M223.422 445.361H181.162C180.844 445.361 180.631 445.149 180.631 444.83C180.631 444.512 180.844 444.299 181.162 444.299H222.36V107.92H48.1184V444.299H80.5034C80.822 444.299 81.0343 444.512 81.0343 444.83C81.0343 445.149 80.822 445.361 80.5034 445.361H47.0566V106.858H223.422V445.361Z" fill="#75E0E6"></path>
<path d="M148.353 457.253H47.5875C47.269 457.253 47.0566 457.041 47.0566 456.722C47.0566 456.404 47.269 456.191 47.5875 456.191H148.353C148.671 456.191 148.883 456.404 148.883 456.722C148.883 457.041 148.565 457.253 148.353 457.253Z" fill="#2249B3"></path>
<path d="M148.353 89.5511H47.5875C47.269 89.5511 47.0566 89.3387 47.0566 89.0202C47.0566 88.7016 47.269 88.4893 47.5875 88.4893H148.353C148.671 88.4893 148.883 88.7016 148.883 89.0202C148.883 89.3387 148.565 89.5511 148.353 89.5511Z" fill="#75E0E6"></path>
<path d="M198.47 166.638H72.0098V176.406H198.47V166.638Z" fill="#2249B3"></path>
<path d="M198.468 189.998H72.0078V199.767H198.468V189.998Z" fill="#2249B3"></path>
<path d="M198.468 213.357H72.0078V223.126H198.468V213.357Z" fill="#2249B3"></path>
<path d="M198.468 236.717H72.0078V246.485H198.468V236.717Z" fill="#2249B3"></path>
<path d="M198.468 259.971H72.0078V269.739H198.468V259.971Z" fill="#2249B3"></path>
<path d="M198.468 283.33H72.0078V293.099H198.468V283.33Z" fill="#2249B3"></path>
<path d="M198.468 306.689H72.0078V316.458H198.468V306.689Z" fill="#2249B3"></path>
<path d="M198.468 424.868H72.0078V434.637H198.468V424.868Z" fill="#2249B3"></path>
<path d="M197.407 332.066H72.0078V367.318H197.407V332.066Z" fill="#2249B3"></path>
<path d="M162.155 376.662H72.0078V411.914H162.155V376.662Z" fill="#2249B3"></path>
<path d="M198.471 376.662H170.121V411.914H198.471V376.662Z" fill="#2249B3"></path>
<path opacity="0.7" d="M771.736 286.621H566.809V412.763H771.736V286.621Z" fill="#B5CDFB"></path>
<path d="M208.877 137.757H61.6048C57.7824 137.757 54.7031 134.677 54.7031 130.855C54.7031 127.032 57.7824 123.953 61.6048 123.953H208.877C212.699 123.953 215.779 127.032 215.779 130.855C215.779 134.677 212.699 137.757 208.877 137.757Z" fill="#2249B3"></path>
<path d="M772.163 413.295H566.174V286.091H772.163V413.295ZM567.342 412.233H771.208V287.153H567.342V412.233Z" fill="#75E0E6"></path>
<path d="M477.937 84.6667C488.023 84.6667 496.2 76.49 496.2 66.4036C496.2 56.3173 488.023 48.1406 477.937 48.1406C467.85 48.1406 459.674 56.3173 459.674 66.4036C459.674 76.49 467.85 84.6667 477.937 84.6667Z" fill="#75E0E6"></path>
<path d="M477.936 69.1648C478.933 69.1648 479.741 68.3566 479.741 67.3597C479.741 66.3628 478.933 65.5547 477.936 65.5547C476.939 65.5547 476.131 66.3628 476.131 67.3597C476.131 68.3566 476.939 69.1648 477.936 69.1648Z" fill="#2E3740"></path>
<path d="M471.246 69.1648C472.243 69.1648 473.052 68.3566 473.052 67.3597C473.052 66.3628 472.243 65.5547 471.246 65.5547C470.25 65.5547 469.441 66.3628 469.441 67.3597C469.441 68.3566 470.25 69.1648 471.246 69.1648Z" fill="#2249B3"></path>
<path d="M484.733 69.1648C485.73 69.1648 486.538 68.3566 486.538 67.3597C486.538 66.3628 485.73 65.5547 484.733 65.5547C483.736 65.5547 482.928 66.3628 482.928 67.3597C482.928 68.3566 483.736 69.1648 484.733 69.1648Z" fill="#2E3740"></path>
<path d="M556.721 394.607L555.766 394.076C556.297 393.12 556.721 392.271 557.252 391.315L558.208 391.846C557.677 392.696 557.252 393.651 556.721 394.607Z" fill="#2E3740"></path>
<path d="M635.611 389.617H635.186V388.555H635.505C635.929 388.555 636.46 388.555 636.885 388.449C638.372 388.343 639.858 387.918 641.239 387.387L641.663 388.343C640.177 388.98 638.584 389.298 636.991 389.511C636.567 389.617 636.036 389.617 635.611 389.617ZM628.709 388.13C626.904 387.387 624.993 386.325 622.976 384.839L623.613 383.989C625.524 385.369 627.329 386.431 629.134 387.175L628.709 388.13ZM561.603 386.219L560.754 385.688C561.922 383.777 563.196 381.972 564.47 380.273L565.32 380.91C564.045 382.609 562.771 384.308 561.603 386.219ZM647.397 384.945L646.76 384.095C648.246 382.821 649.733 381.335 651.219 379.423L652.069 380.06C650.37 382.078 648.883 383.671 647.397 384.945ZM617.879 380.698C616.711 379.636 615.543 378.574 614.375 377.406L613.101 376.238L613.844 375.495L615.118 376.663C616.286 377.725 617.454 378.893 618.622 379.848L617.879 380.698ZM569.248 375.919L568.505 375.176C570.098 373.477 571.584 371.885 573.177 370.61L573.92 371.46C572.328 372.734 570.841 374.221 569.248 375.919ZM655.785 374.858L654.936 374.327C655.998 372.734 657.059 371.035 658.334 368.805L659.289 369.336C657.803 371.46 656.741 373.265 655.785 374.858ZM608.216 371.991C606.411 370.504 604.713 369.23 603.014 368.168L603.545 367.319C605.243 368.381 606.942 369.655 608.854 371.247L608.216 371.991ZM579.017 367.637L578.486 366.682C580.503 365.514 582.521 364.664 584.538 364.027L584.857 365.089C582.946 365.62 581.034 366.469 579.017 367.637ZM597.386 365.408C595.262 364.664 593.245 364.346 591.228 364.24V363.178C593.457 363.178 595.581 363.603 597.705 364.346L597.386 365.408ZM662.368 363.603L661.413 363.072C662.368 361.373 663.536 359.355 664.704 357.444L665.554 357.975C664.492 359.886 663.324 361.904 662.368 363.603ZM712.379 361.691L712.273 360.629C714.291 360.417 716.308 359.886 718.325 359.037L718.75 359.992C716.626 360.842 714.397 361.479 712.379 361.691ZM705.69 361.267C703.566 360.736 701.549 359.78 699.638 358.506L700.275 357.656C702.08 358.931 703.885 359.78 706.008 360.311L705.69 361.267ZM724.484 356.807L723.847 355.958C725.439 354.896 727.138 353.622 728.943 352.029L729.58 352.878C727.882 354.365 726.183 355.639 724.484 356.807ZM785.75 354.577C784.9 352.454 784.051 350.436 783.202 348.631L784.157 348.206C785.007 350.011 785.856 352.029 786.705 354.152L785.75 354.577ZM694.753 354.046C694.222 353.409 693.692 352.878 693.161 352.241C692.205 351.179 691.356 350.118 690.4 349.268L691.143 348.525C692.099 349.481 693.054 350.542 694.01 351.604C694.541 352.135 695.072 352.772 695.603 353.409L694.753 354.046ZM669.27 352.666L668.421 352.029C670.013 350.011 671.5 348.525 672.986 347.251L673.623 348.1C672.243 349.268 670.863 350.755 669.27 352.666ZM734.571 348.419L733.828 347.676C735.102 346.508 736.27 345.34 737.544 344.172L738.606 343.216L739.349 343.959L738.287 344.915C737.119 346.083 735.845 347.251 734.571 348.419ZM685.303 345.658C684.135 345.233 682.967 345.021 681.693 345.021C680.844 345.021 679.994 345.127 679.251 345.233L679.039 344.172C679.888 343.959 680.738 343.853 681.587 343.853C683.074 343.853 684.348 344.065 685.622 344.596L685.303 345.658ZM780.228 343.004C779.06 340.986 777.786 339.287 776.618 337.695L777.468 337.058C778.742 338.65 780.016 340.455 781.184 342.473L780.228 343.004ZM744.021 339.5L743.278 338.756C745.083 337.057 746.782 335.677 748.268 334.509L748.905 335.359C747.525 336.527 745.932 337.801 744.021 339.5ZM772.053 333.129C770.248 331.748 768.442 330.793 766.531 330.156L766.85 329.094C768.867 329.731 770.885 330.687 772.69 332.173L772.053 333.129ZM754.427 331.855L753.896 330.899C756.126 329.731 758.143 329.094 760.16 328.775L760.373 329.837C758.462 330.156 756.444 330.793 754.427 331.855Z" fill="#2E3740"></path>
<path d="M789.044 363.921C788.725 362.859 788.406 361.903 788.088 360.947L789.044 360.629C789.362 361.585 789.681 362.646 789.999 363.708L789.044 363.921Z" fill="#2E3740"></path>
<path d="M778.85 402.251C771.099 400.659 764.622 397.473 759.631 392.801C755.915 389.297 754.11 385.793 752.73 382.926C751.137 379.635 749.863 377.299 746.677 376.237C740.625 374.326 734.997 376.768 729.582 379.21C725.016 381.228 720.557 383.139 716.203 382.289C700.064 379.104 697.94 340.03 696.56 316.67C696.135 308.706 695.605 300.531 694.755 299.894C693.056 299.894 689.552 314.653 686.473 327.607C679.465 356.912 669.909 397.155 656.212 397.579C651.115 397.792 647.717 392.589 643.682 386.749C638.904 379.635 633.383 371.565 623.721 370.61C613.633 369.654 605.033 377.299 596.751 384.625C588.575 391.846 580.08 399.384 570.418 398.216C561.924 397.155 554.597 389.934 548.545 376.662L549.501 376.237C555.34 389.191 562.455 396.199 570.524 397.155C579.762 398.323 587.725 391.209 596.114 383.776C604.608 376.237 613.315 368.486 623.933 369.442C634.126 370.397 639.754 378.679 644.638 386.006C648.461 391.633 651.752 396.624 656.212 396.411C669.166 395.987 679.04 354.576 685.517 327.288C690.083 307.963 692.419 298.619 694.967 298.726C696.666 298.832 696.985 303.397 697.728 316.458C699.002 339.499 701.232 378.042 716.522 381.121C720.557 381.971 724.804 380.06 729.264 378.148C734.891 375.706 740.625 373.158 747.102 375.175C750.818 376.343 752.199 379.104 753.791 382.396C755.278 385.262 756.871 388.554 760.481 391.952C765.365 396.517 771.736 399.597 779.275 401.189L778.85 402.251Z" fill="#75E0E6"></path>
<path d="M699.64 427.416H674.688V433.893H699.64V427.416Z" fill="#B5CDFB"></path>
<path d="M735.636 427.416H710.684V433.893H735.636V427.416Z" fill="#B5CDFB"></path>
<path d="M771.632 427.416H746.68V433.893H771.632V427.416Z" fill="#B5CDFB"></path>
<path d="M771.632 438.247H746.68V444.724H771.632V438.247Z" fill="#B5CDFB"></path>
<path d="M761.012 50.3704C766.321 50.3704 770.568 54.6176 770.568 59.9266V178.424C770.568 183.733 766.321 187.98 761.012 187.98H642.515C637.205 187.98 632.958 183.733 632.958 178.424V59.9266C632.958 54.6176 637.205 50.3704 642.515 50.3704H761.012ZM761.012 49.3086H642.515C636.675 49.3086 631.896 54.0867 631.896 59.9266V178.424C631.896 184.264 636.675 189.042 642.515 189.042H761.012C766.852 189.042 771.63 184.264 771.63 178.424V59.9266C771.63 54.0867 766.852 49.3086 761.012 49.3086Z" fill="#75E0E6"></path>
<path d="M661.415 62.4755V78.4025H645.488V62.4755H661.415ZM664.176 59.7148H642.621V81.2694H664.176V59.7148Z" fill="#2E3740"></path>
<path d="M658.336 65.4482H648.461V75.323H658.336V65.4482Z" fill="#2E3740"></path>
<path d="M661.415 160.055V175.982H645.488V160.055H661.415ZM664.176 157.294H642.621V178.849H664.176V157.294Z" fill="#2E3740"></path>
<path d="M658.336 163.027H648.461V172.902H658.336V163.027Z" fill="#2E3740"></path>
<path d="M758.04 62.4755V78.4025H742.113V62.4755H758.04ZM760.801 59.7148H739.246V81.2694H760.801V59.7148Z" fill="#2E3740"></path>
<path d="M754.961 65.4482H745.086V75.323H754.961V65.4482Z" fill="#2E3740"></path>
<path opacity="0.44" d="M681.377 65.0234H675.537V70.8634H681.377V65.0234Z" fill="#2E3740"></path>
<path opacity="0.44" d="M754.004 123.635H748.164V129.475H754.004V123.635Z" fill="#2E3740"></path>
<path opacity="0.44" d="M756.979 114.609H751.139V120.449H756.979V114.609Z" fill="#2E3740"></path>
<path opacity="0.44" d="M696.668 135.314H690.828V141.154H696.668V135.314Z" fill="#2E3740"></path>
<path opacity="0.44" d="M744.766 112.061H747.633V106.221H755.49V99.3197V94.754V93.586H725.441V90.7191H719.602V93.586H706.435V87.7461H697.941V82.6494H705.055V86.5781H710.895V82.6494H728.733V78.296H730.113V61.5195H714.93V64.9173H723.424V70.7572H714.93V76.8095H710.895V70.7572H709.302V69.9078H705.161V76.8095H698.047V72.8808H682.863V75.7477H675.537V81.5876H682.863V89.6573H691.358V98.1517H689.128V93.6922H670.015V98.1517H653.876V92.7365H648.036V109.301H653.876V103.885H670.015V105.16H661.733V111H670.015V113.973H655.893V130.537H647.611V147.101H664.175V130.537H670.015V145.72H680.846V153.472H673.095V159.312H689.553V155.17H710.576V167.381H689.553V164.514H672.988V167.381H672.564V173.221H748.27V167.806H754.216V155.17H744.766V144.659H755.49V133.085H744.766V112.061ZM738.926 99.4259V106.328H741.793V109.194H738.926V120.768H734.467V103.992H728.627V120.768H725.335V99.3197H738.926V99.4259ZM741.581 165.576H738.926H727.353V159.736H728.627H734.467H738.926H741.581V165.576ZM726.716 154.958V147.95H725.441V126.502H728.733V154.958H726.716ZM719.602 99.4259V120.874H710.576V102.717H706.435V99.5321H719.602V99.4259ZM691.358 103.779V104.416H698.047V120.768H689.128V103.779H691.358ZM701.445 132.979V142.323H689.022V126.502H697.941V132.873H701.445V132.979ZM671.077 123.316V117.477H672.351H685.305V123.316H672.458H671.077ZM711.213 154.427V142.323H707.285V132.979H710.576V126.608H719.602V148.694H720.876V164.514H723.743V167.169H716.31V154.427H711.213ZM734.573 154.958V126.502H739.032V154.958H734.573Z" fill="#2E3740"></path>
<path d="M771.736 203.058H566.809V216.543H771.736V203.058Z" fill="#75E0E6"></path>
<path d="M770.571 227.797V239.158H567.767V227.797H770.571ZM771.633 226.735H566.705V240.22H771.633V226.735Z" fill="#75E0E6"></path>
<path d="M152.389 50.1582H139.859V62.6875H152.389V50.1582Z" fill="#75E0E6"></path>
<path d="M140.39 75.6419H126.799V62.0508H140.39V75.6419ZM127.967 74.5801H139.434V63.1126H127.967V74.5801Z" fill="#75E0E6"></path>
<path d="M543.769 169.824H530.178V156.232H543.769V169.824ZM531.24 168.762H542.707V157.294H531.24V168.762Z" fill="#75E0E6"></path>
<path d="M543.238 180.866H530.709V193.395H543.238V180.866Z" fill="#75E0E6"></path>
<path d="M523.275 406.499H510.746V419.028H523.275V406.499Z" fill="#75E0E6"></path>
<path d="M523.275 429.328H510.746V441.857H523.275V429.328Z" fill="#75E0E6"></path>
<path d="M578.914 257.209H566.385V269.738H578.914V257.209Z" fill="#75E0E6"></path>
<path d="M598.557 257.209H586.027V269.738H598.557V257.209Z" fill="#2E3740"></path>
<path d="M776.833 521.173H676.068C675.749 521.173 675.537 520.961 675.537 520.642C675.537 520.324 675.749 520.111 676.068 520.111H776.833C777.152 520.111 777.364 520.324 777.364 520.642C777.364 520.961 777.045 521.173 776.833 521.173Z" fill="#2E3740"></path>
<path d="M574.347 567.893H473.582C473.263 567.893 473.051 567.68 473.051 567.362C473.051 567.043 473.263 566.831 473.582 566.831H574.347C574.665 566.831 574.878 567.043 574.878 567.362C574.878 567.68 574.665 567.893 574.347 567.893Z" fill="#2E3740"></path>
<path d="M680.528 485.284H579.763C579.445 485.284 579.232 485.072 579.232 484.754C579.232 484.435 579.445 484.223 579.763 484.223H680.528C680.847 484.223 681.059 484.435 681.059 484.754C681.059 485.072 680.847 485.284 680.528 485.284Z" fill="#2249B3"></path>
<path d="M746.678 531.155H676.068C675.749 531.155 675.537 530.942 675.537 530.624C675.537 530.305 675.749 530.093 676.068 530.093H746.678C746.996 530.093 747.209 530.305 747.209 530.624C747.209 530.942 746.996 531.155 746.678 531.155Z" fill="#2E3740"></path>
<path opacity="0.7" d="M550.989 518.838H505.438V549.63H550.989V518.838Z" fill="#2249B3"></path>
<path opacity="0.7" d="M550.989 478.383H505.438V509.175H550.989V478.383Z" fill="#2249B3"></path>
<path d="M556.828 505.565H510.215V473.711H556.828V505.565ZM511.277 504.503H555.766V474.773H511.277V504.503Z" fill="#75E0E6"></path>
<path opacity="0.7" d="M657.276 429.753H624.891V589.767H657.276V429.753Z" fill="#2249B3"></path>
<path d="M556.828 545.914H510.215V514.06H556.828V545.914ZM511.277 544.852H555.766V515.121H511.277V544.852Z" fill="#75E0E6"></path>
<path d="M610.555 586.262H510.215V554.408H610.555V586.262ZM511.277 585.2H609.493V555.47H511.277V585.2Z" fill="#75E0E6"></path>
<path d="M610.024 449.82H564.473V548.037H610.024V449.82Z" fill="#75E0E6"></path>
<path d="M664.39 586.262H617.777V424.337H664.39V586.262ZM618.839 585.2H663.329V425.399H618.839V585.2Z" fill="#75E0E6"></path>
<path d="M172.852 558.747V553.65H61.4685V558.747H172.852Z" fill="#2249B3"></path>
<path d="M127.717 525.74V520.644H16.3337V525.74H127.717Z" fill="#2249B3"></path>
<path d="M127.77 536.728V531.632H16.3864V536.728H127.77Z" fill="#2249B3"></path>
<path d="M127.715 547.717V542.62H16.3317V547.717H127.715Z" fill="#2249B3"></path>
<path d="M511.279 63.749H510.217V66.9344H511.279V63.749Z" fill="#2E3740"></path>
<path d="M511.279 223.762H510.217V217.179H511.279V223.762ZM511.279 210.702H510.217V204.119H511.279V210.702ZM511.279 197.642H510.217V191.059H511.279V197.642ZM511.279 184.582H510.217V177.999H511.279V184.582ZM511.279 171.522H510.217V164.938H511.279V171.522ZM511.279 158.462H510.217V151.878H511.279V158.462ZM511.279 145.401H510.217V138.818H511.279V145.401ZM511.279 132.341H510.217V125.758H511.279V132.341ZM511.279 119.175H510.217V112.592H511.279V119.175ZM511.279 106.115H510.217V99.5315H511.279V106.115ZM511.279 93.0545H510.217V86.4713H511.279V93.0545ZM511.279 79.9943H510.217V73.4111H511.279V79.9943Z" fill="#2E3740"></path>
<path d="M511.279 233.956H507.562V232.894H510.217V230.239H511.279V233.956Z" fill="#2E3740"></path>
<path d="M500.554 233.956H493.547V232.895H500.554V233.956ZM486.432 233.956H479.318V232.895H486.326V233.956H486.432Z" fill="#2E3740"></path>
<path d="M472.31 232.895H469.125V233.956H472.31V232.895Z" fill="#2E3740"></path>
</svg>