<svg width="800" height="600" viewBox="0 0 800 600" fill="none" xmlns="http://www.w3.org/2000/svg" data-reactroot="">
<path d="M721.573 555.895C655.711 555.825 315.221 549.203 135.485 555.268C112.932 556.03 47.4528 557.978 40.2207 535.233C35.5192 520.447 60.5515 511.215 73.9812 483.607C107.747 414.192 12.1757 343.709 41.045 262.245C54.2459 224.995 88.2345 200.211 100.024 205.564C119.886 214.584 74.5368 308.148 119.173 355.692C123.202 359.984 141.067 379.013 161.3 376.373C224.487 368.129 225.885 159.643 274.662 155.777C304.839 153.385 316.299 233.364 354.263 234.978C414.327 237.53 450.104 40.2722 515.173 43.9472C533.628 44.9896 546.792 61.7635 549.641 65.3941C585.112 110.593 535.121 190.348 549.641 199.437C570.618 212.567 687.935 54.2014 703.54 64.1691C719.008 74.0496 616.565 237.892 652.221 269.446C675.002 289.607 737.546 240.993 754.859 260.254C778.076 286.084 674.215 383.092 706.604 449.446C721.862 480.705 760.857 491.843 758.689 522.212C758.574 523.823 758.349 525.395 758.031 526.925C754.477 543.977 738.992 555.914 721.573 555.895Z" fill="#B3CAF8"></path>
<path d="M288.341 275.266H283.72C281.531 275.266 279.756 273.492 279.756 271.302V213.167C279.756 210.977 281.531 209.203 283.72 209.203H288.341V275.266Z" fill="#8FE4FF"></path>
<path d="M519.841 176.171H524.462C526.651 176.171 528.426 177.946 528.426 180.135V238.271C528.426 240.46 526.651 242.235 524.462 242.235H519.841V176.171Z" fill="#4382FF"></path>
<path d="M519.841 176.171H524.462C526.651 176.171 528.426 177.946 528.426 180.135V238.271C528.426 240.46 526.651 242.235 524.462 242.235H519.841V176.171Z" fill="black" fill-opacity="0.38"></path>
<path d="M302.705 80.2693V75.6481C302.705 73.4588 304.48 71.6841 306.669 71.6841H364.805C366.994 71.6841 368.769 73.4588 368.769 75.6481V80.2693H302.705Z" fill="#8FE4FF"></path>
<path d="M523.067 89.5079V514.348C523.067 522.598 516.377 529.288 508.127 529.288H297.507C289.257 529.288 282.557 522.598 282.557 514.348V89.5079C282.557 81.2579 289.257 74.5679 297.507 74.5679H508.127C516.377 74.5679 523.067 81.2579 523.067 89.5079Z" fill="#4382FF"></path>
<path d="M448.386 98.9964H357.237C350.257 98.9964 344.599 93.338 344.599 86.3581V74.0664H461.024V86.3581C461.024 93.338 455.366 98.9964 448.386 98.9964Z" fill="#8FE4FF"></path>
<path d="M325.122 149.648C325.122 170.071 306.732 186.631 284.052 186.631C283.552 186.631 283.052 186.622 282.552 186.604V112.693C283.052 112.675 283.552 112.666 284.052 112.666C306.732 112.666 325.122 129.216 325.122 149.648Z" fill="black" fill-opacity="0.27"></path>
<path d="M282.555 182.585C301.309 182.585 316.512 167.382 316.512 148.628C316.512 129.874 301.309 114.671 282.555 114.671C263.802 114.671 248.599 129.874 248.599 148.628C248.599 167.382 263.802 182.585 282.555 182.585Z" fill="#8FE4FF"></path>
<path d="M523.066 182.585C541.82 182.585 557.023 167.382 557.023 148.628C557.023 129.874 541.82 114.671 523.066 114.671C504.312 114.671 489.109 129.874 489.109 148.628C489.109 167.382 504.312 182.585 523.066 182.585Z" fill="#8FE4FF"></path>
<path d="M456.949 163.924H348.672C343.455 163.924 339.226 159.695 339.226 154.477V143.522C339.226 138.304 343.455 134.075 348.672 134.075H456.949C462.166 134.075 466.396 138.304 466.396 143.522V154.477C466.396 159.695 462.166 163.924 456.949 163.924Z" fill="#B3CAF8"></path>
<path d="M507.003 137.394H569.301" stroke="#005B9D" stroke-width="2" stroke-miterlimit="10" stroke-linecap="round"></path>
<path d="M507.003 148.627H544.28" stroke="#005B9D" stroke-width="2" stroke-miterlimit="10" stroke-linecap="round"></path>
<path d="M507.003 159.862H544.28" stroke="#005B9D" stroke-width="2" stroke-miterlimit="10" stroke-linecap="round"></path>
<path d="M281.024 146.104L298.195 146.668V160.821" stroke="#005B9D" stroke-width="5" stroke-miterlimit="10"></path>
<path d="M275.733 150.837L267.918 146.325L275.733 141.813L283.549 137.301V146.325V155.349L275.733 150.837Z" fill="#4382FF" stroke="#005B9D"></path>
<path d="M299.173 501.224H271.599C263.984 501.224 257.812 495.051 257.812 487.436V459.862C257.812 452.247 263.984 446.075 271.599 446.075H299.173C306.788 446.075 312.96 452.247 312.96 459.862V487.436C312.96 495.051 306.788 501.224 299.173 501.224Z" fill="#8FE4FF"></path>
<path d="M380.587 501.224H353.013C345.398 501.224 339.226 495.051 339.226 487.436V459.862C339.226 452.247 345.398 446.075 353.013 446.075H380.587C388.202 446.075 394.375 452.247 394.375 459.862V487.436C394.375 495.051 388.202 501.224 380.587 501.224Z" fill="#8FE4FF"></path>
<path d="M462.002 501.224H434.428C426.813 501.224 420.641 495.051 420.641 487.436V459.862C420.641 452.247 426.813 446.075 434.428 446.075H462.002C469.617 446.075 475.79 452.247 475.79 459.862V487.436C475.79 495.051 469.617 501.224 462.002 501.224Z" fill="#8FE4FF"></path>
<path d="M361.396 256.925H317.992V300.33H361.396V256.925Z" fill="#8FE4FF"></path>
<path d="M424.513 256.925H381.108V300.33H424.513V256.925Z" fill="#8FE4FF"></path>
<path d="M487.629 256.925H444.225V300.33H487.629V256.925Z" fill="#8FE4FF"></path>
<path d="M361.396 197.692H317.992V241.096H361.396V197.692Z" fill="#8FE4FF"></path>
<path d="M424.513 197.692H381.108V241.096H424.513V197.692Z" fill="#8FE4FF"></path>
<path d="M487.629 197.692H444.225V241.096H487.629V197.692Z" fill="#8FE4FF"></path>
<path d="M543.415 501.224H515.846C508.23 501.224 502.056 495.05 502.056 487.434V459.865C502.056 452.249 508.23 446.075 515.846 446.075H543.415C551.031 446.075 557.205 452.249 557.205 459.865V487.434C557.205 495.05 551.031 501.224 543.415 501.224Z" fill="#8FE4FF"></path>
<path d="M568.787 403.392H245.559C237.943 403.392 231.769 397.218 231.769 389.602V366.067C231.769 358.451 237.943 352.277 245.559 352.277H568.787C576.403 352.277 582.577 358.451 582.577 366.067V389.602C582.577 397.218 576.403 403.392 568.787 403.392Z" fill="#4382FF"></path>
<path d="M568.787 403.392H245.559C237.943 403.392 231.769 397.218 231.769 389.602V366.067C231.769 358.451 237.943 352.277 245.559 352.277H568.787C576.403 352.277 582.577 358.451 582.577 366.067V389.602C582.577 397.218 576.403 403.392 568.787 403.392Z" fill="black" fill-opacity="0.51"></path>
<path d="M568.787 339.887H245.559C237.943 339.887 231.769 333.713 231.769 326.097V302.562C231.769 294.946 237.943 288.772 245.559 288.772H568.787C576.403 288.772 582.577 294.946 582.577 302.562V326.097C582.577 333.713 576.403 339.887 568.787 339.887Z" fill="#4382FF"></path>
<path d="M568.787 339.886H245.559C237.943 339.886 231.769 333.712 231.769 326.096V302.561C231.769 294.945 237.943 288.771 245.559 288.771H568.787C576.403 288.771 582.577 294.945 582.577 302.561V326.096C582.577 333.712 576.403 339.886 568.787 339.886Z" fill="black" fill-opacity="0.51"></path>
<path d="M380.265 429.042C383.044 429.042 385.297 426.788 385.297 424.009C385.297 421.23 383.044 418.977 380.265 418.977C377.486 418.977 375.232 421.23 375.232 424.009C375.232 426.788 377.486 429.042 380.265 429.042Z" fill="#B3CAF8"></path>
<path opacity="0.7" d="M402.807 429.042C405.586 429.042 407.839 426.788 407.839 424.009C407.839 421.23 405.586 418.977 402.807 418.977C400.028 418.977 397.774 421.23 397.774 424.009C397.774 426.788 400.028 429.042 402.807 429.042Z" fill="#B3CAF8"></path>
<path d="M425.349 429.042C428.128 429.042 430.381 426.788 430.381 424.009C430.381 421.23 428.128 418.977 425.349 418.977C422.57 418.977 420.316 421.23 420.316 424.009C420.316 426.788 422.57 429.042 425.349 429.042Z" fill="#B3CAF8"></path>
<path d="M270.198 308.661H535.425" stroke="#FFE458" stroke-width="2.15973" stroke-miterlimit="10" stroke-linecap="round"></path>
<path d="M270.198 319.999H535.425" stroke="#FFE458" stroke-width="2.15973" stroke-miterlimit="10" stroke-linecap="round"></path>
<path d="M291.958 371.263H558.256" stroke="#FFE458" stroke-width="2.16408" stroke-miterlimit="10" stroke-linecap="round"></path>
<path d="M291.958 382.602H558.256" stroke="#FFE458" stroke-width="2.16408" stroke-miterlimit="10" stroke-linecap="round"></path>
<path d="M267.657 388.5H267.657C261.268 388.5 256.089 383.321 256.089 376.932V376.932C256.089 370.543 261.268 365.364 267.657 365.364H267.657C274.045 365.364 279.225 370.543 279.225 376.932V376.932C279.225 383.321 274.045 388.5 267.657 388.5Z" fill="#4382FF"></path>
<path d="M297.618 473.649L286.986 479.787L276.354 485.926V473.649V461.373L286.986 467.511L297.618 473.649Z" fill="#4382FF"></path>
<path d="M453.052 465.272C459.501 468.995 459.501 478.303 453.052 482.026H453.052C446.604 485.749 438.543 481.095 438.543 473.649V473.649C438.543 466.203 446.604 461.549 453.052 465.272V465.272H453.052Z" fill="#4382FF"></path>
<path d="M360.864 463.962V483.336" stroke="#005B9D" stroke-width="2.24097" stroke-miterlimit="10" stroke-linecap="round"></path>
<path d="M372.736 463.962V483.336" stroke="#005B9D" stroke-width="2.24097" stroke-miterlimit="10" stroke-linecap="round"></path>
<path d="M525.521 464.458L524.771 464.025V464.891V473.703V482.515V483.381L525.521 482.948L533.153 478.542L532.903 478.109L533.153 478.542L540.785 474.136L541.535 473.703L540.785 473.27L533.153 468.864L533.153 468.864L525.521 464.458ZM543.535 473.703L533.653 479.408L523.771 485.113V473.703V462.293L533.653 467.998L533.653 467.998L543.535 473.703Z" fill="#13223E" stroke="#005B9D"></path>
<path d="M515.127 461.32V485.979" stroke="#005B9D" stroke-width="2.24097" stroke-miterlimit="10" stroke-linecap="round"></path>
<path d="M535.424 264.655C554.176 285.785 582.457 310.349 616.232 309.553C685.298 307.925 721.16 201.023 749.509 211.51C772.286 219.935 781.297 294.185 748.743 344.021C717.041 392.552 664.758 389.098 657.594 420.616C648.542 460.444 700.578 518.534 754.871 530.148C760.931 531.445 766.301 532.009 770.619 532.245" stroke="#005B9D" stroke-miterlimit="10" stroke-linecap="round"></path>
<path d="M729.501 425.454H630.255C623.255 425.454 617.58 419.78 617.58 412.78V187.219C617.58 180.22 623.255 174.545 630.255 174.545H729.501C736.501 174.545 742.176 180.22 742.176 187.219V412.78C742.176 419.78 736.501 425.454 729.501 425.454Z" fill="#4382FF"></path>
<path d="M632.899 388.797H707.453" stroke="#FFE458" stroke-miterlimit="10" stroke-linecap="round"></path>
<path d="M632.899 396.164H661.878" stroke="#FFE458" stroke-miterlimit="10" stroke-linecap="round"></path>
<path d="M632.899 403.533H674.899" stroke="#FFE458" stroke-miterlimit="10" stroke-linecap="round"></path>
<path d="M716.151 358.217H643.605C640.103 358.217 637.264 355.378 637.264 351.876V267.851C637.264 264.349 640.103 261.51 643.605 261.51H716.151C719.653 261.51 722.492 264.349 722.492 267.851V351.876C722.492 355.378 719.653 358.217 716.151 358.217Z" stroke="#FFE458" stroke-miterlimit="10"></path>
<path d="M716.151 250.335H643.605C640.103 250.335 637.264 247.496 637.264 243.994V200.154C637.264 196.652 640.103 193.812 643.605 193.812H716.151C719.653 193.812 722.492 196.652 722.492 200.154V243.994C722.492 247.496 719.653 250.335 716.151 250.335Z" stroke="#FFE458" stroke-miterlimit="10"></path>
<path d="M720.424 375.714L715.486 372.54L710.548 375.714V365.838H720.424V375.714Z" fill="#B3CAF8"></path>
<path d="M654.581 371.688C654.521 371.548 654.491 371.388 654.491 371.219V370.729C654.491 371.058 654.521 371.378 654.581 371.688Z" fill="#D1D3D4"></path>
<path d="M650.226 366.924L649.93 366.628C648.877 365.575 647.17 365.575 646.117 366.628L645.149 367.596L644.181 366.628C643.128 365.575 641.421 365.575 640.368 366.628L640.072 366.924C639.019 367.977 639.019 369.684 640.072 370.737L641.04 371.705L645.149 375.814L650.226 370.737C651.279 369.684 651.279 367.977 650.226 366.924Z" fill="#B3CAF8"></path>
<path d="M665.448 370.728L666.881 374.836L664.258 373.938C663.358 374.998 662.008 375.668 660.508 375.668C658.108 375.668 656.118 373.968 655.668 371.708C655.658 371.698 655.658 371.698 655.658 371.688C655.598 371.378 655.568 371.058 655.568 370.728C655.568 367.998 657.778 365.788 660.508 365.788C663.238 365.788 665.448 367.998 665.448 370.728Z" fill="#B3CAF8"></path>
<path d="M227.962 269.042H145.727C143.79 269.042 142.221 267.472 142.221 265.536V243.138C142.221 241.202 143.79 239.632 145.727 239.632H227.962C229.898 239.632 231.468 241.202 231.468 243.138V265.536C231.468 267.472 229.898 269.042 227.962 269.042Z" stroke="#005B9D" stroke-width="2" stroke-miterlimit="10" stroke-linecap="round"></path>
<path d="M156.03 258.146C158.134 258.146 159.839 256.441 159.839 254.337C159.839 252.233 158.134 250.528 156.03 250.528C153.926 250.528 152.221 252.233 152.221 254.337C152.221 256.441 153.926 258.146 156.03 258.146Z" fill="#4382FF"></path>
<path d="M166.715 251.062H194.319" stroke="#005B9D" stroke-width="2" stroke-miterlimit="10" stroke-linecap="round"></path>
<path d="M166.715 258.147H211.17" stroke="#005B9D" stroke-width="2" stroke-miterlimit="10" stroke-linecap="round"></path>
<path d="M144.895 424.079C144.895 424.541 144.52 424.916 144.058 424.916C143.596 424.916 143.221 424.541 143.221 424.079C143.221 423.616 143.596 423.241 144.058 423.241C144.52 423.241 144.895 423.616 144.895 424.079Z" fill="#13223E" stroke="#005B9D" stroke-width="2"></path>
<path d="M144.895 433.462C144.895 433.925 144.52 434.3 144.058 434.3C143.596 434.3 143.221 433.925 143.221 433.462C143.221 433 143.596 432.625 144.058 432.625C144.52 432.625 144.895 433 144.895 433.462Z" fill="#13223E" stroke="#005B9D" stroke-width="2"></path>
<path d="M153.068 424.079H173.502" stroke="#005B9D" stroke-width="2" stroke-miterlimit="10" stroke-linecap="round"></path>
<path d="M153.068 433.462H185.169" stroke="#005B9D" stroke-width="2" stroke-miterlimit="10" stroke-linecap="round"></path>
<path d="M225.116 473.649H106.982C105.14 473.649 103.647 472.156 103.647 470.315V447.573C103.647 445.732 105.14 444.239 106.982 444.239H225.116C226.958 444.239 228.45 445.732 228.45 447.573V470.315C228.45 472.156 226.958 473.649 225.116 473.649Z" stroke="#005B9D" stroke-width="2" stroke-miterlimit="10" stroke-linecap="round"></path>
<path d="M124.058 456.09C125.073 456.09 125.895 455.267 125.895 454.252C125.895 453.238 125.073 452.415 124.058 452.415C123.043 452.415 122.221 453.238 122.221 454.252C122.221 455.267 123.043 456.09 124.058 456.09Z" fill="#13223E"></path>
<path d="M124.058 465.472C125.073 465.472 125.895 464.65 125.895 463.635C125.895 462.62 125.073 461.798 124.058 461.798C123.043 461.798 122.221 462.62 122.221 463.635C122.221 464.65 123.043 465.472 124.058 465.472Z" fill="#13223E"></path>
<path d="M133.068 454.252H206.951" stroke="#005B9D" stroke-width="2" stroke-miterlimit="10" stroke-linecap="round"></path>
<path d="M133.068 463.635H180.169" stroke="#005B9D" stroke-width="2" stroke-miterlimit="10" stroke-linecap="round"></path>
<path d="M565.215 162.415C563.454 167.937 561.957 174.677 564.705 176.713C570.335 180.886 590.471 162.837 598.917 155.266C612.97 142.67 623.024 130.658 629.556 122.075" stroke="#005B9D" stroke-miterlimit="10" stroke-linecap="round"></path>
<path d="M72.4492 227.777C85.0641 209.146 99.527 199.695 108.705 203.266C114.518 205.529 116.873 212.496 117.896 215.522C124.773 235.865 108.431 250.637 104.109 277.309C102.418 287.742 102.137 302.646 108.705 321.734" stroke="#005B9D" stroke-miterlimit="10" stroke-linecap="round"></path>
<path d="M65.3005 411.096C70.8946 417.238 89.1148 438.772 85.726 465.224C82.2258 492.546 57.2172 513.052 55.0877 514.756C42.4098 524.897 30.4805 528.225 29.5558 537.734C28.8522 544.971 34.9408 551.478 39.7686 555.607" stroke="#005B9D" stroke-miterlimit="10" stroke-linecap="round"></path>
</svg>