<svg width="800" height="600" viewBox="0 0 800 600" fill="none" xmlns="http://www.w3.org/2000/svg" data-reactroot="">
<path d="M565.677 390.001C698.9 392.224 746.893 529.875 756.971 425.447C766.712 324.516 643.421 92.7574 542.7 81.0437C453.704 70.6936 478.489 147.167 377.705 183.266C276.922 219.366 208.331 104.214 141.096 167.883C87.1369 218.979 153.428 258.387 85.248 407.712C52.7572 478.872 189.713 564.794 297.212 545.024C451.142 516.715 432.454 387.778 565.677 390.001Z" fill="#8FE4FF"></path>
<path fill-rule="evenodd" clip-rule="evenodd" d="M351.32 528.443C391.748 510.035 415.718 482.777 438.12 457.302C469.771 421.309 498.291 388.876 565.677 390.001C629.507 391.066 673.772 423.219 703.675 444.941C736.185 468.556 751.722 479.841 756.971 425.447C766.712 324.516 643.421 92.7574 542.7 81.0437C495.014 75.4979 479.995 94.8793 460.823 119.621C452.518 130.337 443.435 142.059 430.58 153.196C524.422 161.884 618.089 196.686 597.643 274.767C579.909 342.49 531.314 361.301 487.137 378.403C481.637 380.532 476.205 382.634 470.91 384.802C425.096 403.553 380.563 421.779 364.277 488.212C360.612 503.162 356.229 516.522 351.32 528.443Z" fill="black" fill-opacity="0.14"></path>
<path fill-rule="evenodd" clip-rule="evenodd" d="M318.402 59.3369L314.889 62.6114L320.438 63.5538L363.313 152.216L294.733 213.524L297.679 218.636L432.473 242.067L497.384 172.068L453.238 81.8266L318.537 59.3634L318.402 59.3369Z" fill="#4382FF"></path>
<path fill-rule="evenodd" clip-rule="evenodd" d="M318.402 59.3369L314.889 62.6114L320.438 63.5538L363.313 152.216L294.733 213.524L297.679 218.636L432.473 242.067L497.384 172.068L453.238 81.8266L318.537 59.3634L318.402 59.3369Z" fill="black" fill-opacity="0.31"></path>
<path d="M295.052 213.707L357.027 147.59L491.864 170.076L429.888 236.193L295.052 213.707Z" fill="#4382FF"></path>
<path d="M314.872 62.5805L357.027 147.59L491.863 170.076L449.709 85.0665L314.872 62.5805Z" fill="#4382FF"></path>
<path d="M314.873 62.5805L357.027 147.59L491.864 170.076L449.709 85.0665L314.873 62.5805Z" fill="white" fill-opacity="0.19"></path>
<path d="M323.473 67.8042L361.531 144.552L483.263 164.853L445.205 88.1048L323.473 67.8042Z" fill="white" fill-opacity="0.58"></path>
<path d="M188.412 294.247C188.412 294.247 195.994 265.999 177.284 241.078L201.303 218.449L204.187 233.96C220.995 229.225 230.357 266.862 223.998 283.004C219.073 295.506 201.74 294.247 188.412 294.247Z" fill="#DAC3A1"></path>
<path d="M549.687 440.449L576.444 451.281L566.803 470.78L539.938 460.056L549.687 440.449Z" fill="#CEB186"></path>
<path fill-rule="evenodd" clip-rule="evenodd" d="M285.848 293.071C285.848 293.071 285.848 293.071 285.111 293.757L285.848 293.071L286.207 293.457L286.094 293.972C285.509 296.647 283.428 299.627 280.623 302.572C277.787 305.549 274.092 308.611 270.083 311.446C262.091 317.097 252.685 321.957 246.122 323.404L245.688 321.437C251.871 320.075 261.02 315.388 268.921 309.802C272.858 307.018 276.444 304.039 279.165 301.183C281.702 298.519 283.388 296.063 283.997 294.042C283.897 293.938 283.779 293.814 283.643 293.671C283.168 293.174 282.474 292.456 281.603 291.576C279.862 289.816 277.417 287.411 274.601 284.831C268.943 279.647 261.886 273.852 256.067 271.105L256.926 269.284C263.047 272.173 270.298 278.159 275.961 283.347C278.807 285.954 281.276 288.383 283.035 290.16C283.914 291.049 284.616 291.775 285.099 292.28C285.34 292.532 285.527 292.729 285.653 292.864C285.716 292.931 285.765 292.983 285.797 293.017L285.835 293.057L285.847 293.07L285.848 293.071Z" fill="#4382FF"></path>
<path fill-rule="evenodd" clip-rule="evenodd" d="M228.896 290.989C246.593 288.61 266.882 278.761 276.706 248.896C278.711 242.801 282.337 232.493 286.785 222.707C289.006 217.821 291.52 212.867 294.238 208.559C296.831 204.449 300.141 200.058 304.207 197.152C308.747 193.908 315.057 194.958 318.301 199.498C321.545 204.038 320.495 210.348 315.955 213.592C315.124 214.186 313.5 215.897 311.327 219.342C309.278 222.589 307.192 226.643 305.181 231.068C301.164 239.906 297.799 249.439 295.901 255.21C283.248 293.675 255.569 307.791 231.589 311.016C226.059 311.759 220.973 307.879 220.229 302.349C219.486 296.819 223.366 291.733 228.896 290.989Z" fill="#CEB186"></path>
<path fill-rule="evenodd" clip-rule="evenodd" d="M277.792 295.982C266.02 310.587 250.149 318.675 236.338 323.062C194.318 336.409 190.101 296.804 224.524 285.87C233.807 282.921 241.995 278.211 247.408 271.494C247.408 271.494 281.627 291.224 277.792 295.982Z" fill="#4382FF"></path>
<path fill-rule="evenodd" clip-rule="evenodd" d="M277.792 295.982C266.02 310.587 250.149 318.675 236.338 323.062C194.318 336.409 190.101 296.804 224.524 285.87C233.807 282.921 241.995 278.211 247.408 271.494C247.408 271.494 281.627 291.224 277.792 295.982Z" fill="black" fill-opacity="0.5"></path>
<path fill-rule="evenodd" clip-rule="evenodd" d="M355.235 478.346C338.662 489.09 291.574 525.531 272.286 491.659C269.618 486.974 271.253 481.014 275.938 478.346C299.892 464.706 321.644 437.518 344.749 423.213C362.633 409.391 379.779 386.222 406.96 376.835C417.209 373.296 422.538 377.251 428.612 379.408C448.002 386.292 545.881 428.931 554.457 436.006C563.032 443.08 549.698 471.086 544.166 470.093C524.003 466.474 501.075 457.015 473.419 439.007C437.831 431.075 429.085 422.988 418.945 419.388C415.811 418.275 363.601 472.923 355.235 478.346Z" fill="#4382FF"></path>
<path fill-rule="evenodd" clip-rule="evenodd" d="M355.94 166.995L352.209 166.367L355.781 163.101L359.512 163.729L355.94 166.995ZM369.69 169.555L362.229 168.299L366.973 164.985L374.434 166.241L369.69 169.555ZM384.177 172.085L376.716 170.829L381.896 167.497L389.357 168.754L384.177 172.085ZM399.1 174.598L391.639 173.341L396.818 170.01L404.28 171.266L399.1 174.598ZM414.748 177.081L407.287 175.824L411.741 172.522L419.202 173.779L414.748 177.081ZM429.961 179.581L422.5 178.325L426.664 175.035L434.125 176.291L429.961 179.581ZM444.449 182.111L436.987 180.855L441.586 177.547L449.048 178.804L444.449 182.111ZM456.687 184.413L452.956 183.785L456.509 180.06L460.24 180.688C465.9 181.641 460.913 185.125 456.687 184.413Z" fill="#373248"></path>
<path fill-rule="evenodd" clip-rule="evenodd" d="M346.562 176.049L342.832 175.421L346.404 172.155L350.134 172.783L346.562 176.049ZM360.313 178.609L352.851 177.353L357.596 174.039L365.057 175.296L360.313 178.609ZM374.8 181.14L367.339 179.883L372.518 176.552L379.98 177.808L374.8 181.14ZM389.723 183.652L382.261 182.396L387.441 179.064L394.902 180.321L389.723 183.652ZM405.371 186.135L397.91 184.879L402.364 181.577L409.825 182.833L405.371 186.135ZM420.584 188.636L413.122 187.379L417.286 184.089L424.748 185.346L420.584 188.636ZM435.071 191.166L427.61 189.91L432.209 186.602L439.67 187.858L435.071 191.166ZM447.309 193.468L443.578 192.84L447.132 189.114L450.862 189.742C456.522 190.695 451.536 194.179 447.309 193.468Z" fill="#373248"></path>
<path fill-rule="evenodd" clip-rule="evenodd" d="M337.185 185.103L333.454 184.475L337.026 181.209L340.757 181.837L337.185 185.103ZM350.935 187.664L343.474 186.407L348.218 183.094L355.679 184.35L350.935 187.664ZM365.422 190.194L357.961 188.938L363.141 185.606L370.602 186.862L365.422 190.194ZM380.345 192.706L372.884 191.45L378.063 188.119L385.525 189.375L380.345 192.706ZM395.993 195.189L388.532 193.933L392.986 190.631L400.447 191.887L395.993 195.189ZM411.206 197.69L403.745 196.434L407.909 193.144L415.37 194.4L411.206 197.69ZM425.693 200.22L418.232 198.964L422.831 195.656L430.293 196.912L425.693 200.22ZM437.931 202.522L434.201 201.894L437.754 198.168L441.485 198.797C447.144 199.75 442.158 203.234 437.931 202.522Z" fill="#373248"></path>
<path fill-rule="evenodd" clip-rule="evenodd" d="M327.807 194.158L324.076 193.53L327.648 190.263L331.379 190.892L327.807 194.158ZM341.557 196.718L334.096 195.462L338.84 192.148L346.302 193.404L341.557 196.718ZM356.045 199.248L348.583 197.992L353.763 194.66L361.224 195.917L356.045 199.248ZM370.967 201.76L363.506 200.504L368.686 197.173L376.147 198.429L370.967 201.76ZM386.616 204.243L379.154 202.987L383.608 199.685L391.07 200.941L386.616 204.243ZM401.828 206.744L394.367 205.488L398.531 202.198L405.992 203.454L401.828 206.744ZM416.316 209.274L408.854 208.018L413.454 204.71L420.915 205.966L416.316 209.274ZM428.554 211.576L424.823 210.948L428.376 207.223L432.107 207.851C437.767 208.804 432.78 212.288 428.554 211.576Z" fill="#373248"></path>
<path fill-rule="evenodd" clip-rule="evenodd" d="M355.94 168.248L352.209 167.62L355.781 164.354L359.512 164.982L355.94 168.248ZM369.69 170.808L362.229 169.552L366.973 166.238L374.434 167.495L369.69 170.808ZM384.177 173.339L376.716 172.082L381.896 168.751L389.357 170.007L384.177 173.339ZM399.1 175.851L391.639 174.595L396.818 171.263L404.28 172.52L399.1 175.851ZM414.748 178.334L407.287 177.078L411.741 173.776L419.202 175.032L414.748 178.334ZM429.961 180.835L422.5 179.578L426.664 176.288L434.125 177.545L429.961 180.835ZM444.449 183.365L436.987 182.109L441.586 178.801L449.048 180.057L444.449 183.365ZM456.687 185.667L452.956 185.039L456.509 181.313L460.24 181.941C465.9 182.894 460.913 186.378 456.687 185.667Z" fill="#B3CAF8"></path>
<path fill-rule="evenodd" clip-rule="evenodd" d="M346.562 177.303L342.832 176.675L346.404 173.408L350.134 174.037L346.562 177.303ZM360.313 179.863L352.851 178.607L357.596 175.293L365.057 176.549L360.313 179.863ZM374.8 182.393L367.339 181.137L372.518 177.805L379.98 179.062L374.8 182.393ZM389.723 184.905L382.261 183.649L387.441 180.318L394.902 181.574L389.723 184.905ZM405.371 187.388L397.91 186.132L402.364 182.83L409.825 184.087L405.371 187.388ZM420.584 189.889L413.122 188.633L417.286 185.343L424.748 186.599L420.584 189.889ZM435.071 192.419L427.61 191.163L432.209 187.855L439.67 189.111L435.071 192.419ZM447.309 194.721L443.578 194.093L447.132 190.368L450.862 190.996C456.522 191.949 451.536 195.433 447.309 194.721Z" fill="#B3CAF8"></path>
<path fill-rule="evenodd" clip-rule="evenodd" d="M337.185 186.357L333.454 185.729L337.026 182.463L340.757 183.091L337.185 186.357ZM350.935 188.917L343.474 187.661L348.218 184.347L355.679 185.603L350.935 188.917ZM365.422 191.447L357.961 190.191L363.141 186.86L370.602 188.116L365.422 191.447ZM380.345 193.96L372.884 192.703L378.063 189.372L385.525 190.628L380.345 193.96ZM395.993 196.443L388.532 195.186L392.986 191.884L400.447 193.141L395.993 196.443ZM411.206 198.943L403.745 197.687L407.909 194.397L415.37 195.653L411.206 198.943ZM425.693 201.473L418.232 200.217L422.831 196.909L430.293 198.166L425.693 201.473ZM437.931 203.775L434.201 203.147L437.754 199.422L441.485 200.05C447.144 201.003 442.158 204.487 437.931 203.775Z" fill="#B3CAF8"></path>
<path fill-rule="evenodd" clip-rule="evenodd" d="M327.807 195.411L324.076 194.783L327.648 191.517L331.379 192.145L327.807 195.411ZM341.557 197.971L334.096 196.715L338.84 193.401L346.302 194.657L341.557 197.971ZM356.045 200.501L348.583 199.245L353.763 195.914L361.224 197.17L356.045 200.501ZM370.967 203.014L363.506 201.758L368.686 198.426L376.147 199.682L370.967 203.014ZM386.616 205.497L379.154 204.241L383.608 200.939L391.07 202.195L386.616 205.497ZM401.828 207.997L394.367 206.741L398.531 203.451L405.992 204.707L401.828 207.997ZM416.316 210.528L408.854 209.271L413.454 205.964L420.915 207.22L416.316 210.528ZM428.554 212.83L424.823 212.201L428.376 208.476L432.107 209.104C437.767 210.057 432.78 213.541 428.554 212.83Z" fill="#B3CAF8"></path>
<path d="M190.043 277.964C201.586 282.131 222.408 279.189 226.287 281.027C230.167 282.865 231.256 286.123 231.256 286.123C188.961 282.419 183.466 295.789 183.466 295.789C188.299 285.586 186.368 276.637 190.043 277.964Z" fill="#4382FF"></path>
<path d="M574.575 364.03L626.423 373.148L604.118 393.561L572.756 388.965L574.575 364.03Z" fill="#DAC3A1"></path>
<path fill-rule="evenodd" clip-rule="evenodd" d="M388.839 350.702C390.063 349.996 391.334 349.264 392.653 348.502C412.605 336.98 441.158 343.54 462.927 343.756C512.144 344.244 590.176 347.768 597.537 358.414C600.248 366.15 594.413 381.409 588.451 394.261C582.489 407.113 538.681 394.057 500.754 389.858C464.304 385.822 432.269 382.079 423.604 385.078C414.94 388.078 406.599 403.854 404.208 407.15C387.19 434.771 333.034 501.537 304.052 512.825C270.704 525.813 225.209 486.756 216.238 468.104C273.399 429.019 328.865 385.291 388.839 350.702Z" fill="#B3CAF8"></path>
<path fill-rule="evenodd" clip-rule="evenodd" d="M487.407 369.332C453.45 367.348 423.529 366.071 413.684 366.908C410.82 367.152 407.384 368.603 403.462 371.108C399.558 373.601 395.26 377.081 390.686 381.264C381.537 389.632 371.378 400.728 361.17 412.159C359.023 414.563 356.873 416.982 354.731 419.393C346.703 428.428 338.778 437.348 331.457 444.937C322.217 454.515 313.803 462.123 307.262 465.12C296.807 469.912 284.483 468.896 274.822 465.961C269.98 464.49 265.75 462.521 262.697 460.503C261.173 459.496 259.912 458.457 259.015 457.436C258.14 456.441 257.5 455.339 257.468 454.218C257.452 453.662 257.89 453.199 258.445 453.183C259.001 453.167 259.464 453.605 259.48 454.16C259.492 454.581 259.763 455.238 260.526 456.106C261.268 456.949 262.374 457.876 263.807 458.824C266.669 460.715 270.715 462.609 275.407 464.034C284.812 466.891 296.584 467.8 306.423 463.29C312.566 460.475 320.734 453.153 330.008 443.539C337.297 435.983 345.186 427.105 353.209 418.074C355.355 415.659 357.511 413.232 359.668 410.817C369.873 399.391 380.094 388.224 389.327 379.779C393.944 375.556 398.337 371.992 402.379 369.411C406.402 366.841 410.168 365.187 413.513 364.902C423.54 364.049 453.648 365.343 487.524 367.322C521.448 369.304 559.273 371.981 584.821 373.919C585.375 373.961 585.791 374.445 585.748 374.999C585.706 375.554 585.223 375.969 584.668 375.927C559.128 373.99 521.316 371.313 487.407 369.332Z" fill="#4382FF"></path>
<path fill-rule="evenodd" clip-rule="evenodd" d="M300.447 440.677C295.739 437.217 290.318 434.992 286.786 434.011L287.325 432.071C291.047 433.105 296.7 435.425 301.639 439.054C306.568 442.675 310.927 447.708 311.75 454.192C311.82 454.743 311.43 455.247 310.878 455.317C310.327 455.387 309.823 454.997 309.753 454.445C309.028 448.743 305.166 444.144 300.447 440.677Z" fill="#4382FF"></path>
<path d="M223.31 493.762C176.053 464.937 159.033 382.307 174.678 313.857C184.083 272.709 229.09 283.387 229.09 283.387C229.09 283.387 282.61 347.025 268.1 377.016C263.365 386.802 276.844 394.605 286.018 403.664C293.82 411.368 294.614 415.119 294.614 415.119C294.614 415.119 270.567 522.586 223.31 493.762Z" fill="#4382FF"></path>
<path d="M190.043 277.964C201.586 282.131 222.407 279.189 226.287 281.027C230.167 282.865 231.256 286.123 231.256 286.123C188.961 282.419 183.466 295.789 183.466 295.789C188.299 285.586 186.367 276.637 190.043 277.964Z" fill="black" fill-opacity="0.5"></path>
<path fill-rule="evenodd" clip-rule="evenodd" d="M257.17 311.112C281.13 313.804 310.972 307.5 333.54 271.77C334.495 270.258 335.738 268.12 337.213 265.582C341.219 258.688 346.941 248.842 353.276 240.573C361.814 229.431 374.945 216.168 392.602 215.834L393.036 238.791C386.853 238.908 379.593 243.98 371.503 254.539C366.096 261.596 361.894 268.846 358.112 275.372C356.326 278.452 354.635 281.371 352.954 284.033C324.892 328.461 285.725 337.427 254.606 333.93L257.17 311.112Z" fill="#DAC3A1"></path>
<path fill-rule="evenodd" clip-rule="evenodd" d="M318.289 331.338C298.559 346.239 275.675 351.494 256.613 352.678C214.165 355.313 204.643 318.944 222.313 303.044C228.787 297.219 240.685 302.133 253.426 301.342C266.238 300.546 278.216 297.147 287.29 290.294C287.29 290.294 324.717 326.483 318.289 331.338Z" fill="#4382FF"></path>
<path fill-rule="evenodd" clip-rule="evenodd" d="M328.881 328.107C328.881 328.107 328.882 328.107 327.97 328.535L328.881 328.107L329.088 328.547L328.872 328.983C327.302 332.143 323.766 335.113 319.289 337.837C314.775 340.584 309.147 343.172 303.192 345.51C291.278 350.187 277.934 353.907 269.276 355.904L268.824 353.942C277.413 351.96 290.658 348.268 302.456 343.636C308.357 341.32 313.866 338.78 318.243 336.117C322.418 333.576 325.425 331.003 326.841 328.514C326.785 328.402 326.719 328.269 326.642 328.118C326.363 327.566 325.945 326.762 325.394 325.763C324.293 323.764 322.661 320.988 320.548 317.886C316.312 311.668 310.179 304.202 302.536 299.036L303.663 297.368C311.607 302.737 317.909 310.437 322.212 316.752C324.368 319.917 326.032 322.748 327.158 324.791C327.721 325.813 328.15 326.638 328.439 327.209C328.584 327.495 328.693 327.717 328.767 327.87C328.804 327.946 328.832 328.004 328.851 328.044L328.873 328.09L328.879 328.102L328.881 328.107Z" fill="#B3CAF8"></path>
<path d="M424.803 210.068C421.573 199.796 415.436 200.125 415.436 200.125L400.289 200.949C400.289 200.949 389.625 208.699 371.695 222.518C372.983 225.253 373.682 230.261 379.851 235.793C381.397 237.18 390.125 244.758 409.354 229.812C428.942 230.485 429.465 224.898 424.803 210.068Z" fill="#DAC3A1"></path>
<path d="M345.829 186.839C343.368 179.011 338.691 179.261 338.691 179.261L327.149 179.89C327.149 179.89 314.742 184.117 301.396 199.223C302.377 201.307 306.874 202.226 311.575 206.442C312.753 207.499 317.381 207.74 332.034 196.351C346.961 196.864 349.382 198.139 345.829 186.839Z" fill="#CEB186"></path>
<path d="M327.973 212.131C323.646 214.286 314.929 212.017 311.111 210.613L312.76 200.84L325.863 195.279C325.869 197.456 326.383 201.998 328.395 202.752C330.909 203.694 334.59 202.513 336.995 204.348C339.4 206.184 333.38 209.438 327.973 212.131Z" fill="#CEB186"></path>
<path fill-rule="evenodd" clip-rule="evenodd" d="M294.942 327.092C288.931 320.657 282.19 314.124 277.819 310.077L279.187 308.599C283.584 312.671 290.361 319.239 296.413 325.717C299.438 328.956 302.292 332.183 304.579 335.071C306.847 337.935 308.623 340.545 309.418 342.535L307.548 343.282C306.871 341.587 305.26 339.174 303.001 336.321C300.761 333.493 297.948 330.31 294.942 327.092Z" fill="#B3CAF8"></path>
<path d="M245.938 259.258C251.981 251.332 236.257 211.053 218.638 196.146C201.018 181.239 155.467 209.656 156.742 235.974C158.819 278.884 173.379 234.688 190.56 240.311C197.921 242.72 218.724 266.665 218.724 266.665C218.724 266.665 239.896 267.183 245.938 259.258Z" fill="#DAC3A1"></path>
<path fill-rule="evenodd" clip-rule="evenodd" d="M454.623 94.9759L446.809 93.7425C439.57 92.5998 442.348 105.842 455.474 107.41C456.999 107.592 458.944 107.871 461.191 108.223L454.623 94.9759ZM465.915 117.748L457.979 116.495C450.739 115.353 453.517 128.595 466.644 130.163C468.196 130.348 470.184 130.634 472.484 130.995L465.915 117.748ZM477.207 140.519L469.148 139.247C461.909 138.104 464.687 151.346 477.813 152.915C479.392 153.103 481.424 153.396 483.775 153.766L477.207 140.519Z" fill="#040404" fill-opacity="0.33"></path>
<path d="M191.022 235.873C176.106 244.086 160.656 235.874 154.796 230.742C137.799 210.097 174.66 180.254 186.222 178.695C196.085 177.366 203.583 167.461 207.88 161.44C208.978 169.584 201.114 177.334 198.431 180.603C206.597 174.075 229.178 168.247 239.77 168.542C232.936 172.398 225.63 180.275 223.76 183.973C226.532 181.531 236.475 179.244 241.1 178.405C237.045 183.474 238.405 195.673 237.144 203.616C235.885 211.546 235.814 214.852 226.144 216.156C218.036 217.249 231.521 234.796 224.12 237.409C216.719 240.022 202.127 234.376 191.022 235.873Z" fill="#4382FF"></path>
<path d="M151.261 244.47C144.784 234.016 152.722 224.897 157.5 221.644L191.092 213.762L208.631 222.892C202.572 221.146 201.582 227.139 200.282 232.979C198.658 240.277 218.185 253.242 213.274 266.574C209.346 277.239 178 284.731 173.127 284.518C174.282 283.866 174.035 273.298 173.127 266.564C171.993 258.146 159.358 257.539 151.261 244.47Z" fill="#4382FF"></path>
<path d="M248.286 232.028C247.391 229.428 239.393 223.25 235.506 220.486L242.303 238.107C244.67 237.164 249.181 234.628 248.286 232.028Z" fill="#DAC3A1"></path>
<path fill-rule="evenodd" clip-rule="evenodd" d="M348.081 129.55L396.031 138.179L392.964 130.62L344.595 122.52L348.081 129.55ZM340.12 113.496L389.571 122.395L386.504 114.836L336.644 106.486L340.12 113.496ZM332.835 98.8053C348.076 101.614 363.288 104.624 363.288 104.624C377.007 106.79 370.619 92.2115 361.443 90.763L326.079 85.1807L332.835 98.8053Z" fill="black" fill-opacity="0.14"></path>
<path d="M202.58 223.969C208.471 219.229 213.412 224.026 213.412 228.631C213.412 236.288 221.178 238.298 221.178 238.298C220.598 240.304 217.968 244.513 212.088 245.306C206.209 246.098 202.372 242.194 201.188 240.142C199.197 236.726 196.688 228.709 202.58 223.969Z" fill="#DAC3A1"></path>
<path d="M290.178 84.7394L354.462 94.8871C363.639 96.3356 370.026 110.914 356.307 108.748C356.307 108.748 311.969 99.975 298.843 98.4068C285.716 96.8386 282.938 83.5966 290.178 84.7394Z" fill="#8FE4FF"></path>
<path d="M436.115 97.1132L500.4 107.261C509.576 108.709 515.964 123.287 502.245 121.122C502.245 121.122 457.906 112.349 444.78 110.781C431.654 109.212 428.876 95.9704 436.115 97.1132Z" fill="#B3CAF8"></path>
<path d="M447.285 119.865L511.569 130.013C520.746 131.462 527.133 146.04 513.414 143.874C513.414 143.874 469.076 135.101 455.95 133.533C442.823 131.965 440.045 118.723 447.285 119.865Z" fill="#B3CAF8"></path>
<path d="M458.454 142.617L522.739 152.765C531.915 154.214 538.303 168.792 524.584 166.626C524.584 166.626 480.245 157.853 467.119 156.285C453.993 154.717 451.215 141.475 458.454 142.617Z" fill="#B3CAF8"></path>
<path d="M572.616 449.6L561.743 465.442C558.498 469.126 557.852 464.819 555.371 466.84C552.89 468.861 564.054 480.328 569.023 484.237C573.992 488.146 581.389 475.501 587.969 465.642C594.55 455.782 612.683 443.947 615.944 440.51C619.204 437.073 623.642 428.913 622.797 425.036C621.7 419.999 617.408 419.407 611.895 424.717C607.243 429.198 584.911 441.034 572.616 449.6Z" fill="#8FE4FF"></path>
<path d="M565.829 447.329C568.201 448.018 569.762 453.021 570.247 455.437L573.388 457.155L592.597 450.851C592.924 447.149 592.607 440.317 588.721 442.602C584.835 444.888 571.439 443.139 565.227 441.979C564.439 443.475 563.457 446.639 565.829 447.329Z" fill="#8FE4FF"></path>
<path d="M575.501 482.221C573.415 483.979 567.911 482.44 565.421 481.451C565.725 484.153 566.573 484.296 572.925 488.936C579.277 493.575 590.445 477.565 591.798 473.725C593.15 469.884 603.264 456.135 609.138 455.474C615.013 454.813 627.767 433.866 627.512 428.422C627.307 424.066 623.05 421.73 621.021 421.323C629.591 434.042 598.47 454.77 593.864 457.192C589.259 459.614 578.11 480.024 575.501 482.221Z" fill="#4382FF"></path>
<path d="M579.726 437.172C579.39 436.311 579.847 435.442 580.748 435.232C581.648 435.021 582.651 435.549 582.987 436.411L586.918 446.482C587.254 447.343 586.797 448.212 585.896 448.422C584.995 448.633 583.993 448.105 583.656 447.243L579.726 437.172Z" fill="#4382FF"></path>
<path d="M588.956 432.13C588.619 431.268 589.077 430.399 589.977 430.189C590.878 429.979 591.881 430.507 592.217 431.369L596.148 441.439C596.484 442.301 596.026 443.17 595.126 443.38C594.225 443.59 593.222 443.062 592.886 442.201L588.956 432.13Z" fill="#4382FF"></path>
<path d="M321.375 109.221L379.524 118.959L382.591 126.518L325.126 116.177L321.375 109.221Z" fill="#8FE4FF"></path>
<path d="M327.835 125.005L385.984 134.743L389.051 142.303L331.586 131.961L327.835 125.005Z" fill="#8FE4FF"></path>
<path opacity="0.9" d="M402.971 47.8175L343.128 37.7855L367.859 92.3792L426.769 102.761L402.971 47.8175Z" fill="white" fill-opacity="0.54"></path>
<path d="M358.773 50.0138L396.222 56.3112L398.299 61.1768L360.906 54.5514L358.773 50.0138Z" fill="black" fill-opacity="0.1"></path>
<path d="M363.376 60.2433L400.616 66.4672L402.587 71.308L365.511 64.6408L363.376 60.2433Z" fill="black" fill-opacity="0.1"></path>
<path d="M367.594 69.3716L404.469 75.5669L406.563 80.4712L369.619 73.7845L367.594 69.3716Z" fill="black" fill-opacity="0.1"></path>
<path d="M372.193 79.5376L408.949 85.7961L411.128 90.5332L374.302 84.1364L372.193 79.5376Z" fill="black" fill-opacity="0.1"></path>
<path d="M356.642 53.1534L394.091 59.4508L396.169 64.3165L358.776 57.6911L356.642 53.1534Z" fill="#4382FF"></path>
<path d="M361.245 63.3829L398.486 69.6068L400.457 74.4477L363.381 67.7805L361.245 63.3829Z" fill="#4382FF"></path>
<path d="M365.464 72.5112L402.338 78.7065L404.433 83.6108L367.489 76.9241L365.464 72.5112Z" fill="#4382FF"></path>
<path d="M370.063 82.6772L406.819 88.9357L408.997 93.6729L372.172 87.276L370.063 82.6772Z" fill="#4382FF"></path>
<path d="M619.78 372.197L603.885 390.558C599.289 394.728 599.086 389.226 595.685 391.414C592.284 393.602 604.685 409.582 610.373 415.193C616.062 420.805 627.14 405.968 636.797 394.515C646.455 383.061 671.171 371.821 675.752 367.965C680.333 364.109 687.603 353.215 687.847 348.206C688.091 343.197 678.852 339.609 671.599 346.787C665.797 352.529 636.432 363.176 619.78 372.197Z" fill="#8FE4FF"></path>
<path d="M611.576 368.386C614.458 369.587 615.713 376.092 615.98 379.194L619.682 381.795L644.7 376.592C645.634 371.989 646.201 363.363 640.997 365.684C635.793 368.006 619.215 363.916 611.576 361.581C610.376 363.349 608.694 367.185 611.576 368.386Z" fill="#8FE4FF"></path>
<path d="M618.796 413.577C615.927 415.49 609.232 412.78 606.243 411.186C606.243 414.623 607.289 414.922 614.611 421.646C621.934 428.371 638.222 409.841 640.464 405.208C642.706 400.576 657.35 384.735 664.822 384.735C672.294 384.735 691.272 360.228 691.721 353.354C692.079 347.854 687.063 344.318 684.572 343.521C693.538 360.706 651.522 382.344 645.395 384.735C639.269 387.126 622.382 411.186 618.796 413.577Z" fill="#4382FF"></path>
<path d="M630.466 357.593C630.165 356.463 630.863 355.437 632.024 355.3C633.184 355.163 634.369 355.968 634.67 357.098L638.184 370.302C638.484 371.431 637.787 372.458 636.626 372.595C635.465 372.731 634.28 371.927 633.98 370.797L630.466 357.593Z" fill="#4382FF"></path>
<path d="M642.771 352.564C642.47 351.435 643.168 350.408 644.329 350.271C645.489 350.134 646.674 350.939 646.975 352.069L650.489 365.273C650.789 366.402 650.092 367.429 648.931 367.566C647.77 367.703 646.585 366.898 646.285 365.768L642.771 352.564Z" fill="#4382FF"></path>
<path fill-rule="evenodd" clip-rule="evenodd" d="M482.481 129.544C482.681 129.351 483 129.357 483.192 129.558L486.849 133.362L483.471 135.554C483.238 135.705 482.926 135.639 482.775 135.405C482.623 135.172 482.69 134.86 482.923 134.709L485.278 133.181L482.466 130.255C482.274 130.055 482.28 129.736 482.481 129.544Z" fill="#E8ECFA"></path>
<path fill-rule="evenodd" clip-rule="evenodd" d="M474.644 128.679C474.428 128.504 474.111 128.537 473.937 128.753L471.522 131.736L474.638 134.03C474.862 134.195 475.177 134.147 475.342 133.923C475.506 133.699 475.459 133.384 475.235 133.219L472.967 131.55L474.719 129.387C474.894 129.17 474.861 128.853 474.644 128.679Z" fill="#E8ECFA"></path>
<path d="M579.5 58.9832L617.376 49.9722L618.962 56.6378L581.086 65.6487L579.5 58.9832Z" fill="#4382FF"></path>
<path d="M582.318 70.8253L718.633 38.3943L720.219 45.0599L583.904 77.4909L582.318 70.8253Z" fill="#4382FF"></path>
<path d="M585.136 82.6675L721.45 50.2366L723.036 56.9022L586.722 89.3331L585.136 82.6675Z" fill="#4382FF"></path>
<path d="M590.771 106.352L628.647 97.3406L630.233 104.006L592.357 113.017L590.771 106.352Z" fill="#4382FF"></path>
<path d="M593.589 118.194L667.816 100.534L669.402 107.2L595.175 124.859L593.589 118.194Z" fill="#4382FF"></path>
<path d="M599.225 141.878L637.1 132.867L638.686 139.532L600.811 148.543L599.225 141.878Z" fill="#4382FF"></path>
<path d="M602.043 153.72L676.268 136.061L677.854 142.726L603.629 160.385L602.043 153.72Z" fill="#4382FF"></path>
<path d="M607.679 177.404L645.554 168.393L647.14 175.059L609.265 184.07L607.679 177.404Z" fill="#4382FF"></path>
<path d="M610.498 189.246L746.806 156.816L748.392 163.482L612.084 195.911L610.498 189.246Z" fill="#4382FF"></path>
<path d="M613.316 201.088L749.623 168.658L751.209 175.324L614.901 207.753L613.316 201.088Z" fill="#4382FF"></path>
<path d="M77.3722 41.6956L116.103 45.6472L115.408 52.4635L76.6767 48.5118L77.3722 41.6956Z" fill="#4382FF"></path>
<path d="M76.1366 53.8054L207.162 67.1738L206.467 73.99L75.4411 60.6217L76.1366 53.8054Z" fill="#4382FF"></path>
<path d="M74.9016 65.9153L205.927 79.2836L205.231 86.0998L74.2062 72.7315L74.9016 65.9153Z" fill="#4382FF"></path>
<path d="M72.4314 90.1351L111.163 94.0868L110.467 100.903L71.7359 96.9514L72.4314 90.1351Z" fill="#4382FF"></path>
<path d="M71.1964 102.245L162.026 111.512L161.33 118.328L70.501 109.061L71.1964 102.245Z" fill="#4382FF"></path>
<path d="M68.7262 126.465L107.457 130.416L106.762 137.233L68.0307 133.281L68.7262 126.465Z" fill="#4382FF"></path>
<path d="M67.4913 138.575L158.319 147.842L157.623 154.658L66.7959 145.391L67.4913 138.575Z" fill="#4382FF"></path>
<path d="M65.0211 162.794L103.752 166.746L103.057 173.562L64.3257 169.611L65.0211 162.794Z" fill="#4382FF"></path>
</svg>