<svg width="800" height="600" viewBox="0 0 800 600" fill="none" xmlns="http://www.w3.org/2000/svg" data-reactroot="">
<g clip-path="url(#clip0)">
<path opacity="0.2" d="M519.375 334.726H35.4927V363.102H519.375V334.726Z" fill="#A8BBDE"></path>
<path opacity="0.57" d="M224.878 415.192C301.367 415.192 363.374 353.186 363.374 276.696C363.374 200.207 301.367 138.2 224.878 138.2C148.388 138.2 86.3815 200.207 86.3815 276.696C86.3815 353.186 148.388 415.192 224.878 415.192Z" fill="#A8BBDE"></path>
<path fill-rule="evenodd" clip-rule="evenodd" d="M114.655 191.855C114.986 191.855 115.254 192.123 115.254 192.454V227.372C115.254 227.702 114.986 227.97 114.655 227.97C114.325 227.97 114.057 227.702 114.057 227.372V192.454C114.057 192.123 114.325 191.855 114.655 191.855Z" fill="#3913B8"></path>
<path opacity="0.7" d="M776.583 293.109H567.555V301.617H776.583V293.109Z" fill="#A8BBDE"></path>
<path opacity="0.19" d="M36.7901 587.545H789.249C793.123 478.329 781.299 454.22 770.172 451.64C750.42 447.06 736.812 511.22 681.35 524.726C648.862 532.637 608.794 521.516 581.819 504.759C566.199 495.056 566.509 490.632 553.654 484.187C514.85 464.734 469.174 483.553 454.877 488.553C343.281 527.58 239.179 390.582 117.01 436.26C53.7391 459.916 -0.652986 527.438 11.7863 563.545C15.7557 575.067 26.2462 582.564 36.7901 587.545Z" fill="#A8BBDE"></path>
<path d="M500.931 214.685H387.218V218.865H500.931V214.685Z" fill="#3913B8"></path>
<path d="M500.931 221.922H387.218V226.102H500.931V221.922Z" fill="#3913B8"></path>
<path d="M500.931 229.159H387.218V233.34H500.931V229.159Z" fill="#3913B8"></path>
<path opacity="0.2" d="M479.197 27.8877H290.562V122.489H479.197V27.8877Z" fill="#A8BBDE"></path>
<path d="M391.878 88.7324H302.993V138.475H391.878V88.7324Z" fill="#3913B8"></path>
<path d="M466.765 95.9102H396.558V100.091H466.765V95.9102Z" fill="#3913B8"></path>
<path d="M466.765 105.301H396.558V109.481H466.765V105.301Z" fill="#3913B8"></path>
<path opacity="0.7" d="M776.581 171.148H567.554V179.658H776.581V171.148Z" fill="#A8BBDE"></path>
<g opacity="0.32">
<path opacity="0.32" d="M662.577 293.109C661.701 295.983 660.677 298.816 659.504 301.617H623.911C622.731 298.816 621.714 295.983 620.838 293.109H662.577Z" fill="#1A1A1A"></path>
</g>
<path d="M519.375 377.824H35.4927V394.843H519.375V377.824Z" fill="#3913B8"></path>
<path d="M117.01 570.93L117.01 402.269H99.9912L99.9912 570.93H117.01Z" fill="#3913B8"></path>
<path d="M454.877 570.93L454.877 402.269H367.127V570.93H454.877Z" fill="#3913B8"></path>
<path fill-rule="evenodd" clip-rule="evenodd" d="M438.456 418.689V453.414H383.548V418.689H438.456ZM437.26 419.886H384.745V452.218H437.26V419.886Z" fill="#FDD17B"></path>
<path fill-rule="evenodd" clip-rule="evenodd" d="M438.456 469.237V503.962H383.548V469.237H438.456ZM437.26 470.434H384.745V502.766H437.26V470.434Z" fill="#FDD17B"></path>
<path fill-rule="evenodd" clip-rule="evenodd" d="M438.456 519.785V554.51H383.548V519.785H438.456ZM437.26 520.981H384.745V553.314H437.26V520.981Z" fill="#FDD17B"></path>
<path d="M651.245 499.57C645.952 495.477 638.668 496.2 634.081 501.188C625.783 510.212 587.904 576.217 593.035 577.601C598.167 578.984 692.56 587.161 690.836 577.601C689.372 569.484 672.036 515.648 651.245 499.57Z" fill="#FDD17B"></path>
<path d="M640.096 586.281C611.616 586.281 602.557 582.727 597.974 580.93C591.391 578.347 579.136 573.541 579.444 567.002C579.696 561.632 584.783 558.281 589.989 556.25C589.877 556.006 589.795 555.796 589.727 555.624C586.262 546.776 594.36 537.648 603.095 532.056C604.428 531.203 605.791 530.379 607.179 529.586C604.402 528.218 601.903 526.423 600.666 523.817C599.478 521.312 599.526 518.339 600.793 515.864C602.091 513.338 605.18 511.646 607.906 510.153C608.2 509.992 608.49 509.833 608.773 509.676C607.963 508.522 607.376 507.208 607.099 505.714C605.918 499.344 611.555 493.673 617.735 491.363C623.236 489.307 629.33 489.166 635.222 489.03C636.027 489.01 636.83 488.992 637.63 488.968C644.287 488.774 651.17 488.109 656.417 484.6C656.657 484.441 656.982 484.505 657.143 484.744C657.303 484.985 657.239 485.308 656.999 485.47C651.532 489.125 644.474 489.814 637.661 490.014C636.859 490.037 636.053 490.055 635.246 490.074C629.44 490.209 623.437 490.348 618.1 492.343C612.471 494.446 607.062 499.781 608.126 505.524C608.38 506.892 608.926 508.096 609.682 509.158C609.727 509.131 609.772 509.106 609.817 509.079C616.126 505.33 623.187 502.145 630.804 499.613C645.587 494.698 661.386 492.506 676.468 493.289C682.831 493.615 686.816 495.476 687.995 498.668C689.709 503.304 684.735 507.445 679.508 509.774C674.16 512.157 668.524 514.062 662.727 515.47C665.197 515.482 667.663 515.572 670.12 515.74C670.856 515.791 671.661 515.837 672.514 515.886C679.033 516.26 687.959 516.774 692.353 520.402C693.452 521.309 694.305 522.888 693.733 524.376C693.214 525.731 691.78 526.467 690.355 527.105C688.63 527.877 686.863 528.726 685.155 529.546C679.592 532.217 673.841 534.98 667.723 536.068C648.574 539.475 628.409 537.741 610.938 531.18C610.078 530.858 609.204 530.511 608.341 530.128C606.745 531.024 605.183 531.96 603.658 532.936C595.273 538.304 587.465 546.984 590.7 555.242C590.768 555.416 590.852 555.631 590.971 555.883C593.022 555.146 595.047 554.608 596.754 554.225C605.456 552.278 610.97 551.798 618.602 551.136C625.346 550.549 633.74 549.82 647.491 547.809C651.828 547.175 656.261 546.713 660.548 546.266C663.007 546.011 665.465 545.755 667.918 545.467L668.995 545.34C681.658 543.85 685.06 543.449 688.09 545.749C692.519 549.112 693.352 556.801 689.876 562.206C686.968 566.727 681.766 568.544 673.764 570.153C673.449 570.237 638.918 579.048 607.787 567.775C595.751 563.418 591.9 559.476 590.483 557.173C585.535 559.075 580.716 562.173 580.487 567.051C580.216 572.841 592.468 577.647 598.356 579.957C604.579 582.398 619.154 588.114 680.725 583.482C693.746 582.504 702.023 581.6 707.853 575.613C714.073 569.225 714.298 560.38 713.392 554.085C713.351 553.8 713.549 553.535 713.835 553.494C714.116 553.459 714.385 553.65 714.427 553.936C715.366 560.463 715.118 569.649 708.602 576.342C702.51 582.599 694.069 583.528 680.803 584.525C664.023 585.787 650.71 586.281 640.096 586.281ZM591.484 556.804C592.889 558.975 596.658 562.634 608.142 566.794C638.971 577.955 673.187 569.224 673.529 569.136C681.285 567.574 686.289 565.85 688.996 561.64C692.139 556.757 691.405 549.578 687.457 546.582C684.764 544.535 681.448 544.926 669.117 546.378L668.041 546.504C665.583 546.793 663.12 547.05 660.656 547.306C656.38 547.751 651.957 548.212 647.642 548.843C633.86 550.859 625.45 551.59 618.692 552.177C611.101 552.836 605.616 553.313 596.982 555.246C595.359 555.609 593.435 556.117 591.484 556.804ZM609.5 529.489C610.102 529.741 610.707 529.978 611.305 530.202C628.601 536.698 648.572 538.416 667.539 535.039C673.517 533.976 679.203 531.246 684.702 528.604C686.416 527.78 688.19 526.929 689.928 526.151C691.153 525.602 692.38 524.984 692.757 524.001C693.143 522.999 692.498 521.877 691.688 521.209C687.558 517.799 678.828 517.296 672.454 516.929C671.597 516.88 670.789 516.834 670.048 516.783C665.858 516.496 661.638 516.438 657.422 516.613C652.215 517.591 646.915 518.176 641.605 518.355C630.124 520.429 619.202 524.22 609.5 529.489ZM609.42 510.511C609.091 510.695 608.752 510.881 608.408 511.069C605.815 512.49 602.875 514.101 601.723 516.342C600.603 518.528 600.561 521.155 601.611 523.368C602.816 525.909 605.434 527.64 608.292 528.959C616.794 524.251 626.245 520.676 636.202 518.395C633.106 518.336 630.019 518.137 626.956 517.797C623.578 517.42 614 515.897 609.42 510.511ZM610.339 509.985C614.699 514.959 623.844 516.398 627.072 516.757C631.84 517.288 636.675 517.472 641.492 517.313C643.033 517.035 644.586 516.788 646.146 516.573C649.848 516.061 653.576 515.728 657.307 515.572C664.863 514.145 672.213 511.88 679.084 508.819C683.658 506.781 688.48 502.994 687.015 499.029C685.722 495.531 680.537 494.544 676.415 494.332C661.455 493.568 645.796 495.731 631.135 500.605C623.588 503.114 616.595 506.267 610.351 509.977C610.347 509.98 610.343 509.982 610.339 509.985Z" fill="#3913B8"></path>
<path d="M641.709 497.756C579.243 497.748 579.961 436.007 579.961 436.007C579.961 436.007 641.709 435.281 641.709 497.756Z" fill="#A8BBDE"></path>
<path d="M641.709 497.756C704.176 497.748 703.458 436.007 703.458 436.007C703.458 436.007 641.709 435.281 641.709 497.756Z" fill="#A8BBDE"></path>
<path d="M641.709 432.508C579.243 432.5 579.961 370.759 579.961 370.759C579.961 370.759 641.709 370.033 641.709 432.508Z" fill="#A8BBDE"></path>
<path d="M641.709 432.508C704.176 432.5 703.458 370.759 703.458 370.759C703.458 370.759 641.709 370.033 641.709 432.508Z" fill="#A8BBDE"></path>
<path d="M641.709 367.259C579.243 367.251 579.961 305.51 579.961 305.51C579.961 305.51 641.709 304.784 641.709 367.259Z" fill="#A8BBDE"></path>
<path d="M641.709 367.259C704.176 367.251 703.458 305.51 703.458 305.51C703.458 305.51 641.709 304.784 641.709 367.259Z" fill="#A8BBDE"></path>
<path d="M641.71 315.518C692.706 264.509 641.71 214.685 641.71 214.685C641.71 214.685 590.7 264.509 641.71 315.518Z" fill="#A8BBDE"></path>
<path opacity="0.7" d="M704.19 168.59H623.75L639.945 88.1494H720.385L704.19 168.59Z" fill="#A8BBDE"></path>
<path d="M698.644 161.645H632.092L645.491 95.0938H712.043L698.644 161.645Z" fill="#ECF8F8"></path>
<path d="M665.268 145.485C665.268 145.485 673.748 120.256 689.826 119.824C689.826 119.824 667.388 138.203 668.131 145.59L665.268 145.485Z" fill="#3913B8"></path>
<path d="M665.268 145.484C665.268 145.484 659.83 119.43 643.916 117.1C643.916 117.1 664.023 138.002 662.412 145.25L665.268 145.484Z" fill="#FDD17B"></path>
<path d="M668.131 145.589C668.131 145.589 669.589 107.583 654.037 103.481C654.037 103.481 667.682 138.464 665.268 145.485L668.131 145.589Z" fill="#3913B8"></path>
<path d="M654.906 158.531V158.53C654.906 149.464 660.291 142.046 666.874 142.046C673.456 142.046 678.842 149.464 678.842 158.53V158.531" fill="#3913B8"></path>
<path d="M672.181 106.232C672.181 109.168 669.438 111.549 669.438 111.549C669.438 111.549 666.694 109.168 666.694 106.232C666.694 103.295 669.438 100.914 669.438 100.914C669.438 100.914 672.181 103.295 672.181 106.232Z" fill="#FDD17B"></path>
<path d="M677.324 110.635C675.248 112.711 671.624 112.455 671.624 112.455C671.624 112.455 671.368 108.832 673.445 106.755C675.521 104.678 679.144 104.935 679.144 104.935C679.144 104.935 679.401 108.558 677.324 110.635Z" fill="#FDD17B"></path>
<path d="M677.848 117.385C674.911 117.385 672.53 114.642 672.53 114.642C672.53 114.642 674.911 111.898 677.848 111.898C680.785 111.898 683.165 114.642 683.165 114.642C683.165 114.642 680.785 117.385 677.848 117.385Z" fill="#FDD17B"></path>
<path d="M673.445 122.528C671.368 120.452 671.624 116.828 671.624 116.828C671.624 116.828 675.248 116.572 677.324 118.649C679.401 120.725 679.144 124.349 679.144 124.349C679.144 124.349 675.521 124.605 673.445 122.528Z" fill="#FDD17B"></path>
<path d="M666.694 123.052C666.694 120.115 669.438 117.734 669.438 117.734C669.438 117.734 672.181 120.115 672.181 123.052C672.181 125.989 669.438 128.37 669.438 128.37C669.438 128.37 666.694 125.989 666.694 123.052Z" fill="#FDD17B"></path>
<path d="M661.551 118.649C663.628 116.572 667.251 116.828 667.251 116.828C667.251 116.828 667.507 120.452 665.431 122.528C663.354 124.605 659.731 124.349 659.731 124.349C659.731 124.349 659.474 120.725 661.551 118.649Z" fill="#FDD17B"></path>
<path d="M661.027 111.898C663.964 111.898 666.345 114.642 666.345 114.642C666.345 114.642 663.964 117.385 661.027 117.385C658.091 117.385 655.71 114.642 655.71 114.642C655.71 114.642 658.091 111.898 661.027 111.898Z" fill="#FDD17B"></path>
<path d="M665.431 106.755C667.507 108.832 667.251 112.455 667.251 112.455C667.251 112.455 663.628 112.711 661.551 110.635C659.474 108.558 659.731 104.935 659.731 104.935C659.731 104.935 663.354 104.678 665.431 106.755Z" fill="#FDD17B"></path>
<path d="M669.438 118.925C671.803 118.925 673.721 117.008 673.721 114.642C673.721 112.277 671.803 110.359 669.438 110.359C667.072 110.359 665.155 112.277 665.155 114.642C665.155 117.008 667.072 118.925 669.438 118.925Z" fill="#FDD17B"></path>
<path d="M771.843 266.475C771.843 281.479 755.974 287.349 744.675 287.349C735.376 287.349 717.508 281.479 717.508 266.475C717.508 251.471 729.671 239.308 744.675 239.308C759.679 239.308 771.843 251.471 771.843 266.475Z" fill="#C7E9EB"></path>
<path d="M762.739 292.208H726.612C725.27 292.208 724.182 291.12 724.182 289.778V289.778C724.182 288.436 725.27 287.349 726.612 287.349H762.739C764.081 287.349 765.168 288.436 765.168 289.778V289.778C765.168 291.12 764.081 292.208 762.739 292.208Z" fill="#FDD17B"></path>
<path d="M759.858 283.769H729.493V287.349H759.858V283.769Z" fill="#FDD17B"></path>
<path d="M631.953 148.716C631.953 160.723 622.219 170.457 610.212 170.457C598.205 170.457 588.471 160.723 588.471 148.716" fill="#A8BBDE"></path>
<path d="M605.538 163.431C605.389 163.431 605.24 163.43 605.091 163.428C599.141 163.346 593.449 161.555 589.064 158.383C588.831 158.214 588.777 157.887 588.947 157.653C589.116 157.42 589.442 157.369 589.677 157.536C593.889 160.583 599.369 162.304 605.106 162.383C610.305 162.454 615.669 161.265 621.116 158.853C624.591 157.313 627.89 155.362 630.924 153.053C631.458 152.646 631.5 152.047 631.363 151.622C631.225 151.198 630.838 150.738 630.165 150.723C621.817 150.537 613.45 151.26 605.273 152.883C604.843 152.969 604.823 153.332 604.826 153.442C604.829 153.524 604.867 153.935 605.334 153.994C607.135 154.223 608.975 154.028 610.641 153.426C610.914 153.331 611.211 153.47 611.31 153.74C611.408 154.012 611.267 154.312 610.996 154.41C609.175 155.066 607.171 155.279 605.202 155.031C604.394 154.928 603.81 154.289 603.782 153.478C603.754 152.681 604.283 152.014 605.069 151.858C613.323 150.22 621.776 149.491 630.19 149.678C631.193 149.7 632.043 150.337 632.357 151.3C632.669 152.261 632.356 153.276 631.557 153.884C628.459 156.243 625.089 158.236 621.539 159.808C616.109 162.214 610.728 163.431 605.538 163.431Z" fill="#3913B8"></path>
<g opacity="0.57">
<path opacity="0.57" d="M763.366 135.445V170.237L744.167 142.423C742.839 140.5 744.981 138.087 747.048 139.177L780.955 157.06L724.523 170.237L763.366 135.445Z" fill="#AAE5E8"></path>
</g>
<path d="M762.356 170.905L756.214 162.007L721.121 170.201L746.301 147.646L742.204 141.71C741.47 140.646 741.553 139.28 742.412 138.313C743.27 137.346 744.616 137.103 745.759 137.705L753.086 141.569L758.699 136.542C759.352 135.957 760.255 135.814 761.058 136.173C761.858 136.53 762.356 137.298 762.356 138.176V146.458L775.065 153.161C775.985 153.646 776.493 154.625 776.36 155.657C776.227 156.687 775.488 157.506 774.475 157.742L762.356 160.572V170.905ZM746.9 148.514L724.861 168.254L755.576 161.082L746.9 148.514ZM757.308 161.75L761.311 167.551V160.817L757.308 161.75ZM747.685 147.811L756.67 160.827L761.311 159.743V147.089L753.242 142.833L747.685 147.811ZM762.356 147.64V159.499L774.238 156.724C774.946 156.559 775.262 155.996 775.323 155.524C775.385 155.051 775.22 154.424 774.577 154.085L762.356 147.64ZM744.461 138.419C743.925 138.419 743.472 138.693 743.193 139.007C742.782 139.471 742.501 140.301 743.064 141.116L747.086 146.943L752.256 142.313L745.272 138.63C744.99 138.481 744.716 138.419 744.461 138.419ZM754.071 142.09L761.311 145.907V138.176C761.311 137.709 761.057 137.317 760.631 137.126C760.206 136.939 759.743 137.008 759.397 137.319L754.071 142.09Z" fill="#3913B8"></path>
<path d="M393.286 363.068L481.078 363.068L481.078 354.625L393.286 354.625L393.286 363.068Z" fill="#3913B8"></path>
<path d="M395.905 354.625L483.697 354.625L483.697 346.182L395.905 346.182L395.905 354.625Z" fill="#FDD17B"></path>
<path d="M393.991 372.179L482.991 372.179L482.991 363.069L393.991 363.069L393.991 372.179Z" fill="#FDD17B"></path>
<path d="M197.736 152.183H29.3658V160.69H197.736V152.183Z" fill="#3913B8"></path>
<path d="M74.3287 139.165L162.121 139.165L162.121 130.722L74.3287 130.722L74.3287 139.165Z" fill="#A8BBDE"></path>
<path d="M66.6146 130.722L154.407 130.722L154.407 122.279L66.6146 122.279L66.6146 130.722Z" fill="#FDD17B"></path>
<path d="M49.1947 152.18L70.4701 152.18L70.4701 139.165L49.1947 139.165L49.1947 152.18Z" fill="#3913B8"></path>
<path d="M53.225 139.515L74.3288 139.515L74.3288 130.722L53.225 130.722L53.225 139.515Z" fill="#3913B8"></path>
<path d="M45.7162 130.896L66.82 130.896L66.82 122.278L45.7162 122.278L45.7162 130.896Z" fill="#3913B8"></path>
<path d="M70.4701 152.18L159.47 152.18L159.47 139.165L70.4701 139.165L70.4701 152.18Z" fill="#FDD17B"></path>
<path fill-rule="evenodd" clip-rule="evenodd" d="M94.9942 64.1198C94.7165 65.0336 94.3621 66.1042 94.0569 67.0686H95.1529C95.423 66.2083 95.7458 65.2418 95.9944 64.424L96.005 64.3891C96.4726 62.8527 96.9142 61.4018 97.3417 60.1873L97.3421 60.1861C98.4198 57.1245 99.6411 53.6547 99.2758 50.1268C99.0222 47.668 98.0163 45.3962 97.0435 43.1989L97.0375 43.1854L97.031 43.1708C96.3696 41.677 95.6858 40.1327 95.2585 38.5629C93.3795 31.6634 96.863 23.6442 103.189 20.3077C103.444 20.173 103.542 19.8566 103.407 19.6014C103.273 19.3452 102.954 19.2503 102.701 19.383C95.9597 22.9389 92.2476 31.4848 94.2501 38.8385C94.7002 40.4889 95.4024 42.075 96.0822 43.609L96.0882 43.6226C97.0709 45.8425 97.9994 47.9402 98.2368 50.235C98.5777 53.5286 97.3978 56.8824 96.3557 59.8403C95.9202 61.075 95.4755 62.537 95.0049 64.0845L94.9942 64.1198Z" fill="#3913B8"></path>
<path fill-rule="evenodd" clip-rule="evenodd" d="M85.4123 39.6121C89.3384 48.2266 91.5127 57.6463 91.7841 67.11H92.8301C92.5578 57.4977 90.3516 47.9291 86.3636 39.1793L85.9635 38.3067C83.9834 34.0016 81.936 29.5486 83.5394 25.4323C83.6446 25.1629 83.5109 24.8608 83.2424 24.7556C82.974 24.6505 82.6709 24.7842 82.5658 25.0526C80.8011 29.5822 83.0393 34.4497 85.0143 38.7435L85.4123 39.6121Z" fill="#3913B8"></path>
<path d="M88.4988 63.282C88.1895 63.282 87.9017 63.1636 87.7731 63.1116C86.3054 62.5074 84.9133 59.82 83.614 57.1184C83.4537 56.7877 83.3149 56.4978 83.2006 56.2723C81.9871 53.8901 81.0369 51.3813 80.3755 48.8154C80.1469 47.9285 79.9734 46.8068 80.6694 45.9985C81.4523 45.088 82.874 45.2115 83.7385 45.8454C84.5356 46.4271 84.9714 47.3202 85.3491 48.1857C86.4861 50.7873 87.4394 53.5032 88.1814 56.258C88.4978 57.4317 88.8948 58.98 89.1612 60.5406C89.1898 60.711 89.2275 60.8886 89.2632 61.0631C89.4347 61.8858 89.596 62.6635 89.0918 63.082C88.9101 63.232 88.6998 63.282 88.4988 63.282ZM82.1932 46.3873C81.9075 46.3873 81.638 46.4751 81.4614 46.6803C81.0818 47.1212 81.2226 47.9132 81.388 48.5542C82.0299 51.0466 82.9536 53.4839 84.1314 55.7987C84.2488 56.0293 84.3917 56.3263 84.555 56.6652C85.3327 58.2809 86.9505 61.6429 88.1712 62.144C88.265 62.1828 88.3365 62.2063 88.3885 62.2185C88.3875 61.9868 88.2977 61.5551 88.2406 61.2765C88.2018 61.0887 88.162 60.8998 88.1303 60.7171C87.8721 59.1984 87.4822 57.6818 87.173 56.5295C86.4442 53.8247 85.5083 51.1578 84.3917 48.6042C84.0569 47.8397 83.7089 47.1171 83.122 46.6884C82.8648 46.5006 82.5188 46.3873 82.1932 46.3873Z" fill="#3913B8"></path>
<path d="M91.2637 41.0117C89.0101 36.2678 88.1793 31.8576 88.7203 27.528C89.401 22.0911 92.1884 16.9389 96.3659 13.3932C96.7272 13.087 97.8315 12.1551 98.9696 12.5501C99.4564 12.7185 99.8167 13.0625 100.012 13.5452C100.408 14.524 100.039 15.8754 99.6044 16.7358C98.8348 18.2555 97.9826 19.7599 97.1579 21.2143C95.579 23.9997 93.947 26.8799 92.8763 29.9245C91.5781 33.6111 91.3586 37.3211 92.2405 40.6535L91.2637 41.0117ZM98.3858 13.4983C98.0296 13.4983 97.5876 13.7269 97.0416 14.1893C93.0611 17.5686 90.4064 22.4779 89.7572 27.6587C89.3908 30.5859 89.6878 33.5611 90.6656 36.6709C90.6411 34.3582 91.0514 31.9607 91.8904 29.5775C92.9917 26.4462 94.6482 23.5251 96.2485 20.6999C97.0671 19.2547 97.9142 17.7615 98.6715 16.2642C99.1012 15.415 99.2543 14.4587 99.0431 13.9372C98.9614 13.7351 98.8287 13.6075 98.6277 13.5381C98.5511 13.5115 98.4715 13.4983 98.3858 13.4983ZM92.3834 29.751H92.3936H92.3834Z" fill="#3913B8"></path>
<path opacity="0.7" fill-rule="evenodd" clip-rule="evenodd" d="M84.1911 14.8857C90.9161 14.8857 90.9272 25.3371 84.1911 25.3371C77.4661 25.3371 77.455 14.8857 84.1911 14.8857ZM104.059 15.2409C110.784 15.2409 110.795 25.6923 104.059 25.6923C97.334 25.6923 97.3228 15.2409 104.059 15.2409ZM97.142 48.7149C103.867 48.7149 103.878 59.1663 97.142 59.1663C90.4171 59.1663 90.4059 48.7149 97.142 48.7149ZM108.037 122.642H77.942C77.5265 122.642 77.1897 122.305 77.1897 121.889V79.49C77.1897 76.3849 79.7069 73.8677 82.812 73.8677H88.9087V68.2857C88.9087 67.6183 89.4497 67.0773 90.1171 67.0773H95.8614C96.5288 67.0773 97.0698 67.6183 97.0698 68.2857V73.8677H103.167C106.272 73.8677 108.789 76.3849 108.789 79.49V121.889C108.789 122.305 108.452 122.642 108.037 122.642ZM99.0106 33.7891C103.405 33.7891 103.412 40.618 99.0106 40.618C94.6165 40.618 94.6092 33.7891 99.0106 33.7891Z" fill="#A8BBDE"></path>
<path opacity="0.57" d="M479.665 68.6606H294.709C289.329 68.6606 284.967 64.2989 284.967 58.9184V58.1826C284.967 52.8022 289.329 48.4404 294.709 48.4404H479.665C485.045 48.4404 489.407 52.8022 489.407 58.1826V58.9184C489.407 64.2989 485.045 68.6606 479.665 68.6606Z" fill="#A8BBDE"></path>
<path fill-rule="evenodd" clip-rule="evenodd" d="M284.401 43.1954C279.12 43.1954 274.838 47.4767 274.838 52.7581V52.7581C274.838 58.0394 279.12 62.3208 284.401 62.3208H485.357C490.639 62.3208 494.92 58.0394 494.92 52.7581C494.92 47.4767 490.639 43.1954 485.357 43.1954H284.401ZM273.642 52.7581C273.642 46.816 278.459 41.999 284.401 41.999H485.357C491.299 41.999 496.116 46.816 496.116 52.7581C496.116 58.7002 491.299 63.5172 485.357 63.5172H284.401C278.459 63.5172 273.642 58.7002 273.642 52.7581V52.7581Z" fill="#3913B8"></path>
<path d="M466.765 76.0449H302.993V83.5652H466.765V76.0449Z" fill="#3913B8"></path>
<path d="M500.931 208.716H387.218V199.821C387.218 197.187 389.353 195.052 391.987 195.052H496.162C498.795 195.052 500.931 197.187 500.931 199.821V208.716Z" fill="#A8BBDE"></path>
<path d="M394.951 203.768C396.11 203.768 397.05 202.828 397.05 201.668C397.05 200.509 396.11 199.569 394.951 199.569C393.791 199.569 392.852 200.509 392.852 201.668C392.852 202.828 393.791 203.768 394.951 203.768Z" fill="#3913B8"></path>
<path d="M402.107 203.768C403.266 203.768 404.206 202.828 404.206 201.668C404.206 200.509 403.266 199.569 402.107 199.569C400.948 199.569 400.008 200.509 400.008 201.668C400.008 202.828 400.948 203.768 402.107 203.768Z" fill="#FDD17B"></path>
<path d="M299.415 38.8867C300.574 38.8867 301.514 37.9469 301.514 36.7876C301.514 35.6283 300.574 34.6885 299.415 34.6885C298.256 34.6885 297.316 35.6283 297.316 36.7876C297.316 37.9469 298.256 38.8867 299.415 38.8867Z" fill="#A8BBDE"></path>
<path d="M306.571 38.8867C307.731 38.8867 308.671 37.9469 308.671 36.7876C308.671 35.6283 307.731 34.6885 306.571 34.6885C305.412 34.6885 304.472 35.6283 304.472 36.7876C304.472 37.9469 305.412 38.8867 306.571 38.8867Z" fill="#FDD17B"></path>
<path d="M310.15 96.625C311.309 96.625 312.249 95.6852 312.249 94.5259C312.249 93.3666 311.309 92.4268 310.15 92.4268C308.99 92.4268 308.05 93.3666 308.05 94.5259C308.05 95.6852 308.99 96.625 310.15 96.625Z" fill="#A8BBDE"></path>
<path d="M317.306 96.625C318.465 96.625 319.405 95.6852 319.405 94.5259C319.405 93.3666 318.465 92.4268 317.306 92.4268C316.147 92.4268 315.207 93.3666 315.207 94.5259C315.207 95.6852 316.147 96.625 317.306 96.625Z" fill="#FDD17B"></path>
<path d="M500.93 239.401H410.689V267.234H500.93V239.401Z" fill="#3913B8"></path>
<path d="M83.2969 372.306H54.5306V342.556C54.5306 340.257 56.3944 338.394 58.6935 338.394H79.134C81.4331 338.394 83.2969 340.257 83.2969 342.556V372.306Z" fill="#A8BBDE"></path>
<path d="M60.4057 326.685L56.199 327.466L62.4141 360.955L66.6208 360.174L60.4057 326.685Z" fill="#A8BBDE"></path>
<path d="M60.1889 325.516L55.9822 326.297L55.8088 325.363L57.2313 321.304L60.0155 324.582L60.1889 325.516Z" fill="#A8BBDE"></path>
<path d="M71.2067 360.174L75.4134 360.955L81.6285 327.466L77.4218 326.685L71.2067 360.174Z" fill="#A8BBDE"></path>
<path d="M77.6387 325.516L81.8454 326.297L82.0187 325.363L80.5963 321.304L77.812 324.582L77.6387 325.516Z" fill="#A8BBDE"></path>
<path d="M67.8281 352.223L72.0931 352.562L74.7939 318.609L70.5289 318.269L67.8281 352.223Z" fill="#A8BBDE"></path>
<path d="M70.623 317.085L74.8881 317.424L74.9634 316.477L73.1268 312.588L70.6984 316.138L70.623 317.085Z" fill="#A8BBDE"></path>
<path d="M244.219 311.801H205.867V337.253H244.219V311.801Z" fill="#FDD17B"></path>
<path opacity="0.32" d="M244.219 311.801H205.867V317.842H244.219V311.801Z" fill="#1A1A1A"></path>
<path d="M255.968 337.252H194.119V334.182C194.119 333.086 195.007 332.198 196.102 332.198H253.984C255.08 332.198 255.968 333.086 255.968 334.182V337.252Z" fill="#3913B8"></path>
<path d="M327.453 372.306H315.246L296.012 351.311C293.717 348.806 290.475 347.379 287.077 347.379H154.818C151.421 347.379 148.18 348.805 145.885 351.309L126.64 372.306H114.433L145.406 341.333C148.019 338.72 151.563 337.252 155.259 337.252H286.637C290.333 337.252 293.878 338.721 296.491 341.335L327.453 372.306Z" fill="#FDD17B"></path>
<path d="M322.594 313.826H127.161C122.274 313.826 118.313 309.865 118.313 304.979V186.187C118.313 181.301 122.274 177.34 127.161 177.34H322.594C327.481 177.34 331.442 181.301 331.442 186.187V304.979C331.442 309.865 327.481 313.826 322.594 313.826Z" fill="#3913B8"></path>
<path d="M329.049 313.827H120.706C119.385 313.827 118.313 312.755 118.313 311.434V286.49H331.442V311.434C331.442 312.755 330.37 313.827 329.049 313.827Z" fill="#FDD17B"></path>
<path d="M224.877 303.574C226.764 303.574 228.293 302.045 228.293 300.159C228.293 298.272 226.764 296.743 224.877 296.743C222.991 296.743 221.462 298.272 221.462 300.159C221.462 302.045 222.991 303.574 224.877 303.574Z" fill="#3913B8"></path>
<path d="M263.048 219.745H186.707V256.759H263.048V219.745Z" fill="#A8BBDE"></path>
<path d="M220.045 239.4L186.707 219.745H263.048L229.71 239.4C226.728 241.158 223.027 241.158 220.045 239.4Z" fill="#C7E9EB"></path>
<path d="M188.912 228.575C193.789 228.575 197.742 224.622 197.742 219.745C197.742 214.868 193.789 210.915 188.912 210.915C184.035 210.915 180.082 214.868 180.082 219.745C180.082 224.622 184.035 228.575 188.912 228.575Z" fill="#FDD17B"></path>
<path d="M317.152 192.866H132.603C131.14 192.866 129.954 191.68 129.954 190.217C129.954 188.754 131.14 187.568 132.603 187.568H317.152C318.615 187.568 319.801 188.754 319.801 190.217C319.801 191.68 318.615 192.866 317.152 192.866Z" fill="#A8BBDE"></path>
<path d="M319.801 209.912H283.609V215.359H319.801V209.912Z" fill="#A8BBDE"></path>
<path d="M319.801 217.275H283.609V219.668H319.801V217.275Z" fill="#A8BBDE"></path>
<path d="M319.801 221.584H283.609V223.977H319.801V221.584Z" fill="#A8BBDE"></path>
<path d="M222.899 263.158H186.707V265.551H222.899V263.158Z" fill="#FDD17B"></path>
<path d="M319.801 234.509H283.609V236.901H319.801V234.509Z" fill="#A8BBDE"></path>
<path d="M319.801 238.816H283.609V241.209H319.801V238.816Z" fill="#A8BBDE"></path>
<path d="M319.801 247.434H283.609V249.826H319.801V247.434Z" fill="#A8BBDE"></path>
<path d="M319.801 251.741H283.609V254.134H319.801V251.741Z" fill="#A8BBDE"></path>
<path d="M319.801 256.05H283.609V273.066H319.801V256.05Z" fill="#A8BBDE"></path>
<path d="M164.203 202.355H93.6428V238.252H164.203V202.355Z" fill="#A8BBDE"></path>
<path d="M164.203 243.075H93.6428V251.741H164.203V243.075Z" fill="#FDD17B"></path>
<path d="M144.935 266.704H112.911C110.518 266.704 108.578 264.764 108.578 262.371V262.371C108.578 259.978 110.518 258.038 112.911 258.038H144.935C147.328 258.038 149.268 259.978 149.268 262.371V262.371C149.268 264.764 147.328 266.704 144.935 266.704Z" fill="#FDD17B"></path>
<path d="M113.615 206.979H97.1595V209.371H113.615V206.979Z" fill="#3913B8"></path>
<path d="M152.47 215.128H105.375V217.521H152.47V215.128Z" fill="#3913B8"></path>
<path d="M152.47 220.304H105.375V222.696H152.47V220.304Z" fill="#3913B8"></path>
<path d="M152.47 225.479H105.375V227.872H152.47V225.479Z" fill="#3913B8"></path>
<path d="M270.08 372.515H144.864C144.864 370.206 146.736 368.334 149.045 368.334H265.899C268.208 368.334 270.08 370.206 270.08 372.515Z" fill="#3913B8"></path>
<path d="M297.022 372.515H276.119C276.119 370.206 277.991 368.334 280.3 368.334H292.842C295.15 368.334 297.022 370.206 297.022 372.515Z" fill="#3913B8"></path>
<path fill-rule="evenodd" clip-rule="evenodd" d="M360.541 112.958C357.903 112.958 355.765 115.097 355.765 117.735C355.765 120.373 357.903 122.511 360.541 122.511C363.179 122.511 365.318 120.373 365.318 117.735C365.318 115.097 363.179 112.958 360.541 112.958ZM354.568 117.735C354.568 114.436 357.242 111.762 360.541 111.762C363.84 111.762 366.514 114.436 366.514 117.735C366.514 121.033 363.84 123.708 360.541 123.708C357.242 123.708 354.568 121.033 354.568 117.735Z" fill="#FDD17B"></path>
<path fill-rule="evenodd" clip-rule="evenodd" d="M301.705 259.578C299.067 259.578 296.929 261.717 296.929 264.355C296.929 266.993 299.067 269.131 301.705 269.131C304.343 269.131 306.482 266.993 306.482 264.355C306.482 261.717 304.343 259.578 301.705 259.578ZM295.732 264.355C295.732 261.056 298.406 258.382 301.705 258.382C305.004 258.382 307.678 261.056 307.678 264.355C307.678 267.653 305.004 270.328 301.705 270.328C298.406 270.328 295.732 267.653 295.732 264.355Z" fill="#3913B8"></path>
<path fill-rule="evenodd" clip-rule="evenodd" d="M360.541 240.445C360.871 240.445 361.139 240.713 361.139 241.044V243.656C361.139 243.987 360.871 244.255 360.541 244.255C360.211 244.255 359.943 243.987 359.943 243.656V241.044C359.943 240.713 360.211 240.445 360.541 240.445Z" fill="#FDD17B"></path>
<path fill-rule="evenodd" clip-rule="evenodd" d="M360.541 123.59C360.871 123.59 361.139 123.858 361.139 124.188V126.726C361.139 127.056 360.871 127.324 360.541 127.324C360.211 127.324 359.943 127.056 359.943 126.726V124.188C359.943 123.858 360.211 123.59 360.541 123.59ZM360.541 131.203C360.871 131.203 361.139 131.471 361.139 131.801V136.877C361.139 137.207 360.871 137.475 360.541 137.475C360.211 137.475 359.943 137.207 359.943 136.877V131.801C359.943 131.471 360.211 131.203 360.541 131.203ZM360.541 141.354C360.871 141.354 361.139 141.622 361.139 141.953V147.028C361.139 147.358 360.871 147.626 360.541 147.626C360.211 147.626 359.943 147.358 359.943 147.028V141.953C359.943 141.622 360.211 141.354 360.541 141.354ZM360.541 151.506C360.871 151.506 361.139 151.773 361.139 152.104V157.179C361.139 157.51 360.871 157.777 360.541 157.777C360.211 157.777 359.943 157.51 359.943 157.179V152.104C359.943 151.773 360.211 151.506 360.541 151.506ZM360.541 161.657C360.871 161.657 361.139 161.924 361.139 162.255V167.33C361.139 167.661 360.871 167.929 360.541 167.929C360.211 167.929 359.943 167.661 359.943 167.33V162.255C359.943 161.924 360.211 161.657 360.541 161.657ZM360.541 171.808C360.871 171.808 361.139 172.076 361.139 172.406V177.482C361.139 177.812 360.871 178.08 360.541 178.08C360.211 178.08 359.943 177.812 359.943 177.482V172.406C359.943 172.076 360.211 171.808 360.541 171.808ZM360.541 181.959C360.871 181.959 361.139 182.227 361.139 182.557V187.633C361.139 187.963 360.871 188.231 360.541 188.231C360.211 188.231 359.943 187.963 359.943 187.633V182.557C359.943 182.227 360.211 181.959 360.541 181.959ZM360.541 192.11C360.871 192.11 361.139 192.378 361.139 192.708V197.784C361.139 198.114 360.871 198.382 360.541 198.382C360.211 198.382 359.943 198.114 359.943 197.784V192.708C359.943 192.378 360.211 192.11 360.541 192.11ZM360.541 202.261C360.871 202.261 361.139 202.529 361.139 202.859V207.935C361.139 208.265 360.871 208.533 360.541 208.533C360.211 208.533 359.943 208.265 359.943 207.935V202.859C359.943 202.529 360.211 202.261 360.541 202.261ZM360.541 212.412C360.871 212.412 361.139 212.68 361.139 213.011V218.086C361.139 218.417 360.871 218.684 360.541 218.684C360.211 218.684 359.943 218.417 359.943 218.086V213.011C359.943 212.68 360.211 212.412 360.541 212.412ZM360.541 222.564C360.871 222.564 361.139 222.831 361.139 223.162V228.237C361.139 228.568 360.871 228.836 360.541 228.836C360.211 228.836 359.943 228.568 359.943 228.237V223.162C359.943 222.831 360.211 222.564 360.541 222.564ZM360.541 232.715C360.871 232.715 361.139 232.983 361.139 233.313V235.851C361.139 236.181 360.871 236.449 360.541 236.449C360.211 236.449 359.943 236.181 359.943 235.851V233.313C359.943 232.983 360.211 232.715 360.541 232.715Z" fill="#FDD17B"></path>
<path fill-rule="evenodd" clip-rule="evenodd" d="M360.541 118.38C360.871 118.38 361.139 118.648 361.139 118.978V121.591C361.139 121.921 360.871 122.189 360.541 122.189C360.211 122.189 359.943 121.921 359.943 121.591V118.978C359.943 118.648 360.211 118.38 360.541 118.38Z" fill="#FDD17B"></path>
<path fill-rule="evenodd" clip-rule="evenodd" d="M360.541 243.059C360.872 243.059 361.139 243.326 361.139 243.657V265.156H301.705C301.375 265.156 301.107 264.888 301.107 264.558C301.107 264.227 301.375 263.96 301.705 263.96H359.943V243.657C359.943 243.326 360.211 243.059 360.541 243.059Z" fill="#FDD17B"></path>
<path opacity="0.57" d="M418.627 243.657H385.588V276.696H418.627V243.657Z" fill="#A8BBDE"></path>
<path opacity="0.57" d="M458.698 243.657H425.659V276.696H458.698V243.657Z" fill="#A8BBDE"></path>
<path fill-rule="evenodd" clip-rule="evenodd" d="M335.495 209.314C335.825 209.314 336.093 209.582 336.093 209.913V244.831C336.093 245.161 335.825 245.429 335.495 245.429C335.164 245.429 334.897 245.161 334.897 244.831V209.913C334.897 209.582 335.164 209.314 335.495 209.314Z" fill="#3913B8"></path>
<path fill-rule="evenodd" clip-rule="evenodd" d="M283.011 317.842C283.011 317.512 283.279 317.244 283.609 317.244H331.442C331.772 317.244 332.04 317.512 332.04 317.842C332.04 318.173 331.772 318.44 331.442 318.44H283.609C283.279 318.44 283.011 318.173 283.011 317.842Z" fill="#3913B8"></path>
<path fill-rule="evenodd" clip-rule="evenodd" d="M434.356 355.349C434.356 355.019 434.624 354.751 434.954 354.751H482.787C483.117 354.751 483.385 355.019 483.385 355.349C483.385 355.68 483.117 355.947 482.787 355.947H434.954C434.624 355.947 434.356 355.68 434.356 355.349Z" fill="#3913B8"></path>
<path fill-rule="evenodd" clip-rule="evenodd" d="M384.38 372.178C384.38 371.848 384.647 371.58 384.978 371.58H432.81C433.14 371.58 433.408 371.848 433.408 372.178C433.408 372.509 433.14 372.776 432.81 372.776H384.978C384.647 372.776 384.38 372.509 384.38 372.178Z" fill="#3913B8"></path>
</g>
<defs>
<clipPath id="clip0">
<rect x="10" y="12.4541" width="780" height="575.092" fill="white"></rect>
</clipPath>
</defs>
</svg>