<svg width="800" height="600" viewBox="0 0 800 600" fill="none" xmlns="http://www.w3.org/2000/svg" data-reactroot="">
<path d="M737.113 223.227H671.015V240.469H737.113V223.227Z" fill="#4382FF"></path>
<path d="M770.162 239.744H704.063V256.986H770.162V239.744Z" fill="#4382FF"></path>
<path fill-rule="evenodd" clip-rule="evenodd" d="M671.242 226.901C671.812 226.901 672.274 227.363 672.274 227.933V239.437H730.867C731.437 239.437 731.899 239.899 731.899 240.469C731.899 241.04 731.437 241.502 730.867 241.502H670.209V227.933C670.209 227.363 670.672 226.901 671.242 226.901Z" fill="#8FE4FF"></path>
<path fill-rule="evenodd" clip-rule="evenodd" d="M736.08 240.469C736.08 239.899 736.543 239.437 737.113 239.437H746.943C747.513 239.437 747.976 239.899 747.976 240.469C747.976 241.039 747.513 241.501 746.943 241.501H737.113C736.543 241.501 736.08 241.039 736.08 240.469Z" fill="#8FE4FF"></path>
<path d="M436.588 507.949H494.614V492.812H436.588V507.949Z" fill="#4382FF"></path>
<path d="M248.708 78.2681L306.734 78.2681V63.131L248.708 63.131V78.2681Z" fill="#4382FF"></path>
<path fill-rule="evenodd" clip-rule="evenodd" d="M692.784 133.879C693.639 133.879 694.332 134.572 694.332 135.427V535.849C694.332 536.704 693.639 537.397 692.784 537.397C691.929 537.397 691.235 536.704 691.235 535.849V135.427C691.235 134.572 691.929 133.879 692.784 133.879Z" fill="#4382FF"></path>
<path fill-rule="evenodd" clip-rule="evenodd" d="M559.877 40.5484C559.877 39.6932 560.57 39 561.426 39H668.459C682.748 39 694.332 50.584 694.332 64.8735V120.668C694.332 121.523 693.639 122.216 692.784 122.216C691.929 122.216 691.235 121.523 691.235 120.668V64.8735C691.235 52.2942 681.038 42.0967 668.459 42.0967H561.426C560.57 42.0967 559.877 41.4035 559.877 40.5484Z" fill="#4382FF"></path>
<path fill-rule="evenodd" clip-rule="evenodd" d="M469.026 42.0967C456.446 42.0967 446.249 52.2942 446.249 64.8735V64.8735C446.249 65.7287 445.556 66.4219 444.701 66.4219C443.845 66.4219 443.152 65.7287 443.152 64.8735V64.8735C443.152 50.584 454.736 39 469.026 39H552.775C553.63 39 554.323 39.6932 554.323 40.5484C554.323 41.4035 553.63 42.0967 552.775 42.0967H469.026Z" fill="#4382FF"></path>
<path d="M788.645 545.435H596.921V545.435C596.921 535.602 604.892 527.631 614.725 527.631H770.841C780.674 527.631 788.645 535.602 788.645 545.435V545.435Z" fill="#4382FF"></path>
<path d="M526.188 193.997H365.809C364.669 193.997 363.745 193.073 363.745 191.933V151.621C363.745 106.193 400.571 69.3672 445.998 69.3672H445.999C491.426 69.3672 528.252 106.193 528.252 151.621V191.933C528.252 193.073 527.328 193.997 526.188 193.997Z" fill="#4382FF"></path>
<path d="M461.532 524.371H340.221V369.394H420.598C443.205 369.394 461.532 387.72 461.532 410.327V524.371Z" fill="#4382FF"></path>
<path d="M461.532 524.37H340.221V369.392H420.598C443.205 369.392 461.532 387.719 461.532 410.326V524.37Z" fill="black" fill-opacity="0.19"></path>
<path d="M393.492 372.4C414.862 372.4 432.247 389.799 432.247 411.186V522.191H315.293V372.4H393.492ZM393.492 370.22H313.115V524.371H434.426V411.186C434.426 388.561 416.099 370.22 393.492 370.22Z" fill="#8FE4FF"></path>
<path fill-rule="evenodd" clip-rule="evenodd" d="M41.9753 520.475H63.327V545.311H41.9753V520.475ZM44.0398 522.539V543.247H61.2625V522.539H44.0398Z" fill="#4382FF"></path>
<path fill-rule="evenodd" clip-rule="evenodd" d="M169.585 520.474H190.937V545.311H169.585V520.474ZM171.65 522.539V543.246H188.872V522.539H171.65Z" fill="#4382FF"></path>
<path d="M296.199 520.347H276.912V539.634H296.199V520.347Z" fill="#4382FF"></path>
<path d="M419.904 520.81H400.616V540.097H419.904V520.81Z" fill="#4382FF"></path>
<path d="M424.737 433.442H41.1245V524.403H424.737V433.442Z" fill="#B3CAF8"></path>
<path d="M272.411 265.601H52.8361L86.1527 425.393H305.728L272.411 265.601Z" fill="#B3CAF8"></path>
<path d="M346.609 425.393H305.53L272.213 265.601H298.302C314.196 265.601 327.91 276.751 331.154 292.31L356.393 413.359C357.687 419.566 352.949 425.393 346.609 425.393Z" fill="#B3CAF8"></path>
<path opacity="0.2" d="M272.781 524.403C272.781 524.403 274.711 449.101 268.28 439.831C266.526 437.302 228.591 436.25 219.042 433.442H333.559L338.308 524.403H272.781Z" fill="#4382FF"></path>
<path fill-rule="evenodd" clip-rule="evenodd" d="M32.2109 264.568H59.5695C75.9521 264.568 90.0879 276.061 93.4317 292.098L121.439 426.425H65.958L52.8 363.317C52.6837 362.759 53.0418 362.212 53.5998 362.096C54.1579 361.979 54.7047 362.337 54.821 362.896L67.6364 424.36H118.899L91.4107 292.52C88.2664 277.439 74.9743 266.633 59.5695 266.633H34.7502L52.9949 354.137C53.1113 354.695 52.7532 355.242 52.1951 355.358C51.637 355.475 51.0902 355.117 50.9739 354.559L32.2109 264.568Z" fill="#4382FF"></path>
<path d="M201.722 433.44H41.1205V464.798H201.722V433.44Z" fill="#4382FF"></path>
<path d="M187.007 134.911H120.909V152.153H187.007V134.911Z" fill="#4382FF"></path>
<path d="M153.731 146.431H87.6329V163.674H153.731V146.431Z" fill="#4382FF"></path>
<path d="M519.041 312.418H577.067V297.281H519.041V312.418Z" fill="#4382FF"></path>
<path d="M567.111 91.4302L625.137 91.4302V76.2931H567.111V91.4302Z" fill="#4382FF"></path>
<path fill-rule="evenodd" clip-rule="evenodd" d="M566.575 468.496C527.097 468.496 495.093 500.499 495.093 539.977C495.093 542.828 492.782 545.139 489.932 545.139C487.082 545.139 484.771 542.828 484.771 539.977C484.771 494.798 521.396 458.173 566.575 458.173C611.754 458.173 648.379 494.798 648.379 539.977C648.379 542.828 646.068 545.139 643.217 545.139C640.367 545.139 638.056 542.828 638.056 539.977C638.056 500.499 606.053 468.496 566.575 468.496Z" fill="#4382FF"></path>
<path fill-rule="evenodd" clip-rule="evenodd" d="M403.88 459.191C403.88 456.341 406.19 454.03 409.041 454.03H724.108C726.958 454.03 729.269 456.341 729.269 459.191C729.269 462.042 726.958 464.353 724.108 464.353H409.041C406.19 464.353 403.88 462.042 403.88 459.191Z" fill="#4382FF"></path>
<path d="M468.924 453.284H468.924C457.884 453.284 448.934 444.335 448.934 433.295V427.436C448.934 425.205 450.743 423.396 452.974 423.396H484.873C487.104 423.396 488.913 425.205 488.913 427.436V433.295C488.913 444.335 479.964 453.284 468.924 453.284Z" fill="#8FE4FF"></path>
<path d="M448.808 438.341H445.358C442.43 438.341 440.056 435.966 440.056 433.038V433.038C440.056 430.109 442.43 427.735 445.358 427.735H448.808C451.737 427.735 454.111 430.109 454.111 433.038V433.038C454.111 435.966 451.737 438.341 448.808 438.341Z" fill="#8FE4FF"></path>
<path d="M470.833 415C465.109 411.756 458.523 406.73 457.645 399.73C456.56 391.076 465.082 386.423 467.709 375.437C469.232 369.071 468.984 359.71 461.116 346.632C476.305 354.566 479.778 361.736 480.203 366.761C480.92 375.232 477.351 382.953 476.039 385.154C471.636 392.538 466.814 393.188 465.396 398.805C464.492 402.383 465.072 407.575 470.833 415Z" fill="#8FE4FF"></path>
<path d="M490.349 455.326H448.934C448.934 452.77 451.006 450.699 453.562 450.699H485.722C488.277 450.699 490.349 452.77 490.349 455.326Z" fill="#8FE4FF"></path>
<path d="M676.759 455.325H656.554V390.797C656.554 386.073 660.385 382.242 665.11 382.242H668.203C672.928 382.242 676.759 386.073 676.759 390.797V455.325Z" fill="#8FE4FF"></path>
<path d="M662.075 391.363H669.172V350.909H662.075V391.363Z" fill="#8FE4FF"></path>
<path d="M660.846 355.617H670.401V350.159C670.401 349.404 669.789 348.792 669.034 348.792H662.213C661.458 348.792 660.846 349.404 660.846 350.159V355.617Z" fill="#4382FF"></path>
<path d="M697.334 455.326H674.983V383.939C674.983 378.712 679.22 374.474 684.447 374.474H687.87C693.097 374.474 697.334 378.712 697.334 383.939V455.326Z" fill="#8FE4FF"></path>
<path d="M681.577 379.795H688.674V339.34H681.577V379.795Z" fill="#8FE4FF"></path>
<path d="M680.349 344.049H689.904V338.591C689.904 337.836 689.292 337.224 688.537 337.224H681.716C680.961 337.224 680.349 337.836 680.349 338.591V344.049Z" fill="#4382FF"></path>
<path d="M620.894 430.233H620.893C613.418 430.233 607.359 424.174 607.359 416.698V394.603H634.428V416.698C634.428 424.174 628.369 430.233 620.894 430.233Z" fill="#8FE4FF"></path>
<path d="M622.544 426.416H619.999V454.43H622.544V426.416Z" fill="#8FE4FF"></path>
<path d="M611.176 454.69C611.176 453.284 612.316 452.145 613.721 452.145H628.066C629.471 452.145 630.611 453.284 630.611 454.69H611.176Z" fill="#8FE4FF"></path>
<path d="M588.039 430.233C580.564 430.233 574.504 424.174 574.504 416.698V394.603H601.574V416.698C601.574 424.174 595.514 430.233 588.039 430.233Z" fill="#8FE4FF"></path>
<path d="M589.689 426.416H587.144V454.43H589.689V426.416Z" fill="#8FE4FF"></path>
<path d="M578.322 454.69C578.322 453.284 579.461 452.145 580.867 452.145H595.212C596.617 452.145 597.757 453.284 597.757 454.69H578.322Z" fill="#8FE4FF"></path>
<path d="M533.053 342.054H591.079V326.917H533.053V342.054Z" fill="#4382FF"></path>
<path d="M504.04 327.555H562.066V312.418H504.04V327.555Z" fill="#4382FF"></path>
<path fill-rule="evenodd" clip-rule="evenodd" d="M10 559.792C10 559.222 10.4622 558.76 11.0322 558.76H788.968C789.538 558.76 790 559.222 790 559.792C790 560.363 789.538 560.825 788.968 560.825H11.0322C10.4622 560.825 10 560.363 10 559.792Z" fill="#4382FF"></path>
<path d="M464.184 73.5104H427.814V73.5104C427.814 66.2511 433.698 58.3018 440.958 58.3018H451.04C458.299 58.3018 464.184 66.2511 464.184 73.5104V73.5104Z" fill="#4382FF"></path>
<path fill-rule="evenodd" clip-rule="evenodd" d="M119.876 146.431C119.876 145.861 120.339 145.398 120.909 145.398H154.763V158.967C154.763 159.537 154.301 159.999 153.731 159.999C153.161 159.999 152.699 159.537 152.699 158.967V147.463H120.909C120.339 147.463 119.876 147.001 119.876 146.431Z" fill="#8FE4FF"></path>
<path fill-rule="evenodd" clip-rule="evenodd" d="M420.558 176.803C420.558 176.233 421.02 175.771 421.59 175.771H510.143C510.713 175.771 511.175 176.233 511.175 176.803C511.175 177.373 510.713 177.835 510.143 177.835H421.59C421.02 177.835 420.558 177.373 420.558 176.803Z" fill="#8FE4FF"></path>
<path fill-rule="evenodd" clip-rule="evenodd" d="M385.841 176.803C385.841 176.233 386.304 175.771 386.874 175.771H414.364C414.934 175.771 415.396 176.233 415.396 176.803C415.396 177.373 414.934 177.835 414.364 177.835H386.874C386.304 177.835 385.841 177.373 385.841 176.803Z" fill="#8FE4FF"></path>
<path fill-rule="evenodd" clip-rule="evenodd" d="M354.424 176.803C354.424 176.233 354.886 175.771 355.456 175.771H379.649C380.219 175.771 380.681 176.233 380.681 176.803C380.681 177.373 380.219 177.835 379.649 177.835H355.456C354.886 177.835 354.424 177.373 354.424 176.803Z" fill="#8FE4FF"></path>
<path d="M676.767 410.865C676.762 412.523 676.758 413.633 676.758 413.633L676.767 410.865Z" fill="#8FE4FF"></path>
<path d="M676.783 398.33C676.791 400.583 676.784 404.464 676.776 407.769L676.783 398.33Z" fill="#8FE4FF"></path>
<path fill-rule="evenodd" clip-rule="evenodd" d="M676.782 397.821C677.063 397.82 677.291 398.047 677.292 398.328C677.299 400.582 677.293 404.465 677.284 407.77C677.284 408.051 677.055 408.278 676.775 408.277C676.494 408.276 676.267 408.048 676.267 407.767C676.275 404.462 676.282 400.582 676.275 398.331C676.274 398.051 676.501 397.822 676.782 397.821Z" fill="#4382FF"></path>
<path d="M674.589 385.073C675.53 386.048 676.449 387.409 676.584 389.084C676.684 390.316 676.737 392.647 676.764 395.233" fill="#8FE4FF"></path>
<path fill-rule="evenodd" clip-rule="evenodd" d="M674.236 384.708C674.438 384.512 674.76 384.518 674.955 384.72C675.938 385.738 676.942 387.204 677.091 389.043L677.091 389.043C677.192 390.297 677.246 392.645 677.272 395.228C677.275 395.509 677.05 395.739 676.769 395.742C676.488 395.744 676.258 395.519 676.255 395.238C676.228 392.649 676.175 390.337 676.077 389.125M674.236 384.708C674.034 384.903 674.028 385.225 674.223 385.427ZM674.223 385.427C675.123 386.359 675.955 387.614 676.077 389.125Z" fill="#4382FF"></path>
<path d="M479.928 413.801C474.569 411.706 471.21 407.079 471.511 402.602C471.665 400.318 472.79 397.8 474.674 396.079C477.098 393.864 479.129 394.477 481.394 392.916C483.235 391.649 485.285 388.908 485.545 382.243C486.414 383.17 489.096 386.272 489.103 390.742C489.104 391.264 489.071 393.627 487.72 396.277C485.519 400.592 482.343 400.725 480.406 403.986C479.39 405.696 478.493 408.642 479.928 413.801Z" fill="#B3CAF8"></path>
<path d="M455.489 379.861C460.979 378.134 464.643 373.744 464.645 369.258C464.646 366.968 463.694 364.38 461.931 362.536C459.662 360.161 455.44 358.925 455.44 358.925C456.238 360.24 457.257 362.238 457.893 364.838C458.565 367.581 458.511 369.761 458.486 370.373C458.316 374.694 456.635 378.02 455.489 379.861Z" fill="#B3CAF8"></path>
<path fill-rule="evenodd" clip-rule="evenodd" d="M485.678 451.21L485.672 451.211L485.644 451.214H476.168C475.883 451.214 475.652 450.983 475.652 450.698C475.652 450.413 475.883 450.182 476.168 450.182H485.589C485.608 450.18 485.635 450.178 485.668 450.177C485.733 450.174 485.823 450.172 485.934 450.175C486.156 450.183 486.464 450.213 486.826 450.301C487.553 450.479 488.491 450.892 489.369 451.818C489.565 452.025 489.557 452.352 489.35 452.548C489.143 452.744 488.817 452.736 488.62 452.529C487.897 451.766 487.143 451.441 486.581 451.304C486.298 451.235 486.061 451.212 485.899 451.207C485.819 451.204 485.757 451.206 485.718 451.208C485.699 451.209 485.686 451.21 485.678 451.21Z" fill="#4382FF"></path>
<path fill-rule="evenodd" clip-rule="evenodd" d="M470.886 450.698C470.886 450.413 471.117 450.182 471.402 450.182H474.103C474.388 450.182 474.619 450.413 474.619 450.698C474.619 450.983 474.388 451.214 474.103 451.214H471.402C471.117 451.214 470.886 450.983 470.886 450.698Z" fill="#4382FF"></path>
<path fill-rule="evenodd" clip-rule="evenodd" d="M467.706 450.698C467.706 450.413 467.937 450.182 468.222 450.182H469.337C469.622 450.182 469.853 450.413 469.853 450.698C469.853 450.983 469.622 451.214 469.337 451.214H468.222C467.937 451.214 467.706 450.983 467.706 450.698Z" fill="#4382FF"></path>
<path d="M315.249 535.521L302.798 533.719L300.535 521.457L312.333 521.392L315.249 535.521Z" fill="#9C7159"></path>
<path d="M351.347 532.475L340.278 533.77L337.25 517.776L348.41 517.167L351.347 532.475Z" fill="#9C7159"></path>
<path d="M382.21 542.452H332.302C331.248 542.452 330.393 541.598 330.393 540.544C330.393 539.489 331.248 538.635 332.302 538.635H382.21C383.264 538.635 384.119 539.489 384.119 540.544C384.119 541.598 383.264 542.452 382.21 542.452Z" fill="#4382FF"></path>
<path d="M339.573 530.042C339.573 530.042 333.824 537.396 338.104 538.588C342.385 539.779 375.573 538.635 375.573 538.635L373.953 531.614L347.462 528.375L339.573 530.042Z" fill="#9C7159"></path>
<path d="M382.534 538.635L354.114 540.544L353.535 527.912L372.273 528.374C377.94 528.374 382.534 532.968 382.534 538.635V538.635Z" fill="#4382FF"></path>
<path d="M306.552 347.618C306.552 347.618 297.833 341.779 297.287 342.706C295.35 345.995 301.076 352.272 301.076 352.272L306.552 347.618Z" fill="#231F20"></path>
<path d="M314.749 394.867L262.149 388.98C260.25 388.79 258.688 387.4 258.281 385.535L243.33 317.115C242.315 312.47 245.258 307.882 249.903 306.867C254.543 305.85 259.135 308.795 260.151 313.439L272.99 372.2L313.568 384.572C318.316 384.837 313.765 392.947 314.749 394.867Z" fill="#835A4B"></path>
<path d="M282.41 349.018C282.41 349.018 283.011 347.611 287.755 343.561C289.322 342.224 292.708 341.268 292.708 341.268C292.708 341.268 297.755 340.02 298.252 340.807C299.858 343.346 296.754 344.703 294.818 345.076C294.72 345.095 294.65 345.175 294.573 345.24L298.539 349.01L282.41 349.018Z" fill="#835A4B"></path>
<path d="M282.41 349.018C282.41 349.018 286.237 343.364 290.571 343.042C292.626 342.89 298.252 351.14 298.252 351.14L282.41 349.018Z" fill="#9C7159"></path>
<path d="M308.172 345.174C308.172 345.174 301.622 339.436 301.076 340.362C299.139 343.651 303.527 347.669 303.527 347.669L308.172 345.174Z" fill="#835A4B"></path>
<path d="M262.56 382.351L213.584 383.068C211.639 377.526 208.924 369.574 205.891 359.931C195.873 328.083 204.82 306.145 205.908 302.341C206.989 298.56 222.922 289.709 229.1 291.404C231.895 292.055 244.902 289.891 248.522 292.985C259.294 302.189 261.854 323.478 261.457 329.545C260.719 340.828 259.309 349.935 259.105 361.088C258.941 370.024 260.853 377.4 262.56 382.351Z" fill="#8FE4FF"></path>
<path fill-rule="evenodd" clip-rule="evenodd" d="M244.009 405.347C244.589 395.102 253.364 387.266 263.609 387.846L311.919 390.579C323.92 391.258 334.068 399.681 336.957 411.333L359.534 498.697C362.102 508.633 356.129 518.768 346.194 521.336C336.259 523.903 326.123 517.931 323.556 507.995L302.696 427.278L261.51 424.948C251.265 424.368 243.429 415.593 244.009 405.347Z" fill="#8FE4FF"></path>
<path fill-rule="evenodd" clip-rule="evenodd" d="M199.436 410.548C199.436 398.006 209.603 387.839 222.145 387.839H284.633C296.461 387.839 304.483 394.865 308.39 399.61C312.299 404.359 315.531 410.813 316.37 418.03L330.301 502.917C332.332 515.293 323.946 526.973 311.569 529.004C299.193 531.035 287.513 522.649 285.482 510.272L272.842 433.258H222.145C209.603 433.258 199.436 423.09 199.436 410.548Z" fill="#4382FF"></path>
<path d="M308.636 383.068C308.636 383.068 326.635 384.326 328.118 385.808C329.6 387.291 337.803 400.428 336.222 400.922C335.607 401.114 337.126 402.997 333.059 402.009C331.797 401.703 326.734 397.858 326.734 397.858C326.734 397.858 317.486 394.131 315.962 393.726C315.176 393.517 314.441 393.113 313.782 392.624C311.695 391.078 310.474 390.688 310.271 388.098L310.146 386.5L308.636 383.068Z" fill="#835A4B"></path>
<path d="M299.426 337.116H299.426C291.951 337.116 285.891 331.056 285.891 323.581V307.829H312.961V323.581C312.961 331.056 306.901 337.116 299.426 337.116Z" fill="#4382FF"></path>
<path d="M301.076 333.298H298.531V365.567H301.076V333.298Z" fill="#4382FF"></path>
<path d="M289.709 367.51C289.709 366.105 290.848 364.965 292.254 364.965H306.599C308.004 364.965 309.144 366.105 309.144 367.51H289.709Z" fill="#4382FF"></path>
<path d="M347.936 546.112H297.122C296.068 546.112 295.214 545.258 295.214 544.204C295.214 543.15 296.068 542.295 297.122 542.295H347.936C348.991 542.295 349.845 543.15 349.845 544.204C349.845 545.258 348.991 546.112 347.936 546.112Z" fill="#4382FF"></path>
<path d="M302.798 533.72C302.798 533.72 297.765 541.104 302.045 542.295C306.326 543.487 340.393 542.295 340.393 542.295L338.773 535.274L312.282 532.035L302.798 533.72Z" fill="#9C7159"></path>
<path d="M348.261 542.296L319.84 544.205L319.262 531.572L338 532.035C343.667 532.035 348.261 536.629 348.261 542.296Z" fill="#4382FF"></path>
<path d="M212.299 379.035C204.266 389.903 199.669 400.412 199.608 411.241L278.146 397.952C278.146 397.952 273.018 387.321 260.817 376.407L212.299 379.035Z" fill="#4382FF"></path>
<path d="M262.153 271.993C261.792 273.559 261.319 275.153 260.802 276.687C260.691 277.036 260.568 277.376 260.446 277.705C259.74 279.686 258.954 281.529 258.206 283.038C257.54 284.365 256.079 285.105 254.614 284.861L244.011 281.165L243.969 281.158C243.969 281.158 243.395 283.555 243.029 286.124C242.854 287.367 242.723 288.648 242.732 289.714C242.787 296.238 242.269 300.866 240.687 301.034C238.54 301.261 236.149 301.39 233.881 301.056C228.7 300.306 224.192 297.112 224.901 287.009C224.915 286.749 224.917 286.469 224.897 286.171C224.405 278.838 214.208 267.934 214.208 267.934C213.183 266.999 212.255 265.965 211.445 264.84C209.71 262.411 208.515 259.553 208.044 256.398C206.475 245.796 213.799 235.911 224.412 234.341L239.573 232.093C240.106 232.016 240.63 231.96 241.145 231.926C251.145 231.256 260.137 238.381 261.63 248.461C261.736 249.106 261.788 249.733 261.821 250.383L261.912 250.345C261.912 250.345 262.065 251.235 262.246 252.713C262.776 256.909 263.61 265.802 262.153 271.993Z" fill="#9C7159"></path>
<path d="M262.186 257.019C262.186 257.019 267.273 268.926 266.195 270.433C265.877 270.877 264.277 270.617 261.867 270.722C260.181 270.795 257.934 266.828 258.605 265.28L262.186 257.019Z" fill="#9C7159"></path>
<path fill-rule="evenodd" clip-rule="evenodd" d="M251.365 259.975L250.849 259.081C250.355 259.366 250.186 259.997 250.471 260.491C250.757 260.984 251.388 261.153 251.881 260.869C251.881 260.869 251.881 260.869 251.881 260.869L251.89 260.864L251.926 260.843C251.959 260.825 252.011 260.797 252.078 260.76C252.214 260.687 252.416 260.583 252.671 260.458C253.182 260.209 253.903 259.885 254.739 259.586C256.45 258.974 258.483 258.526 260.175 258.874C260.734 258.989 261.28 258.629 261.394 258.071C261.509 257.512 261.15 256.966 260.591 256.852C258.33 256.387 255.853 256.995 254.044 257.642C253.12 257.972 252.328 258.329 251.766 258.602C251.485 258.74 251.26 258.857 251.103 258.941C251.025 258.983 250.963 259.016 250.921 259.04L250.87 259.068L250.856 259.077L250.852 259.079L250.85 259.08C250.85 259.08 250.849 259.081 251.365 259.975Z" fill="#231F20"></path>
<path d="M256.845 264.754C257.564 264.754 258.147 264.171 258.147 263.452C258.147 262.734 257.564 262.151 256.845 262.151C256.126 262.151 255.544 262.734 255.544 263.452C255.544 264.171 256.126 264.754 256.845 264.754Z" fill="#231F20"></path>
<path d="M260.802 276.687C260.691 277.036 260.568 277.376 260.446 277.705C258.293 277.539 257.233 275.923 256.964 275L257.958 274.706C257.984 274.787 258.587 276.681 260.802 276.687Z" fill="#231F20"></path>
<path d="M244.01 281.165L243.968 281.158C243.968 281.158 243.395 283.555 243.029 286.124C241.901 285.507 240.246 280.486 240.596 279.687C240.596 279.687 240.927 279.841 241.512 280.091C242.343 280.449 242.381 280.478 244.01 281.165Z" fill="#231F20"></path>
<path d="M224.455 373.685C221.497 373.685 198.983 309.953 198.983 309.953C198.002 304.536 200.634 293.832 211.44 293.835C222.249 293.838 225.677 300.293 226.861 305.67C229.31 316.794 238.206 355.033 238.206 355.033L286.059 348.016C291.297 346.32 296.126 346.864 297.819 352.102C299.513 357.34 296.041 359.741 290.802 361.435C290.802 361.435 230.994 375.003 224.455 373.685Z" fill="#9C7159"></path>
<path d="M289.703 347.559C289.703 347.559 292.869 347.821 295.525 347.18C297.547 346.692 302.495 345.656 302.495 345.656C302.495 345.656 305.071 360.452 302.758 361.609C300.444 362.765 298.437 363.515 294.677 363.631C291.822 363.719 285.36 362.714 285.36 362.714L289.703 347.559Z" fill="#9C7159"></path>
<path d="M301.966 357.791C301.966 357.791 307.406 353.601 307.634 350.767C307.862 347.932 310.138 343.328 305.337 344.837C300.537 346.347 299.048 347.089 299.048 347.089L301.966 357.791Z" fill="#9C7159"></path>
<path d="M242.279 257.019C249.758 256.034 258.867 254.372 266.346 253.387C265.9 249.533 266.1 239.035 260.398 232.039C249.708 218.926 232.348 226.445 229.283 226.505C226.592 226.557 216.571 226.757 214.881 231.537C214.331 233.09 214.825 234.708 215.341 235.844C211.495 235.219 206.142 235.406 204.261 248.05C202.855 257.506 202.2 259.665 201.626 261.293C200.216 265.29 198.291 268.208 196.594 271.704C190.962 283.307 190.38 284.474 190 287.148C189.603 289.939 196.961 292.205 195.664 295.998C195.1 297.644 194.442 299.067 192.943 301.751C187.192 312.042 183.863 314.722 183.225 320.839C182.513 327.676 179.056 327.467 187.452 348.95C189.557 354.335 190.888 358.358 195.087 361.79C199.01 364.996 205.698 362.967 208.721 363.359C204.91 351.23 204.399 343.271 204.402 336.342C204.407 326.586 202.022 319.156 207.581 312.162C208.72 310.73 212.576 304.214 217.993 304.18C222.532 304.152 225.066 308.612 229.167 307.537C231.481 306.93 232.805 304.952 233.779 303.452C236.399 299.418 239.756 293.405 238.878 278.49C238.381 270.053 242.452 263.437 242.279 257.019Z" fill="#231F20"></path>
<path fill-rule="evenodd" clip-rule="evenodd" d="M253.856 388.006C253.856 387.436 254.318 386.974 254.889 386.974H259.171C259.741 386.974 260.203 387.436 260.203 388.006C260.203 388.576 259.741 389.038 259.171 389.038H254.889C254.318 389.038 253.856 388.576 253.856 388.006Z" fill="#B3CAF8"></path>
<path fill-rule="evenodd" clip-rule="evenodd" d="M263.553 389.038C263.553 389.038 263.553 389.038 263.519 388.006C263.486 386.975 263.486 386.975 263.486 386.975L263.685 386.968C263.814 386.964 264.005 386.959 264.249 386.951C264.738 386.937 265.442 386.917 266.305 386.895C268.032 386.852 270.394 386.799 272.937 386.764C277.998 386.694 283.858 386.692 286.812 386.979C291.719 387.456 299.217 389.404 305.072 394.745C305.494 395.129 305.524 395.782 305.139 396.203C304.755 396.624 304.102 396.654 303.681 396.27C298.268 391.332 291.256 389.485 286.612 389.034C283.795 388.76 278.059 388.758 272.966 388.828C270.433 388.863 268.079 388.916 266.358 388.959C265.498 388.981 264.796 389.001 264.309 389.015C264.066 389.022 263.877 389.028 263.748 389.032L263.553 389.038ZM262.488 388.039C262.469 387.47 262.917 386.993 263.486 386.975L263.519 388.006L263.553 389.038C262.983 389.056 262.506 388.609 262.488 388.039Z" fill="#B3CAF8"></path>
</svg>