<svg width="800" height="600" viewBox="0 0 800 600" fill="none" xmlns="http://www.w3.org/2000/svg" data-reactroot="">
<path opacity="0.2" d="M775.74 309.654H657.007C649.19 309.654 642.747 303.316 642.747 295.394V227.049C642.747 219.232 649.085 212.788 657.007 212.788H775.74C783.556 212.788 790 219.126 790 227.049V295.394C789.894 303.211 783.556 309.654 775.74 309.654Z" fill="#1E1E1E"></path>
<path opacity="0.2" fill-rule="evenodd" clip-rule="evenodd" d="M605.246 196.204H723.979C731.796 196.204 738.134 189.866 738.239 182.049V158.27H590.986V181.944C590.986 189.866 597.43 196.204 605.246 196.204Z" fill="#1E1E1E"></path>
<path fill-rule="evenodd" clip-rule="evenodd" d="M464.964 158.282V94.0569C464.964 86.7682 470.879 80.7471 478.274 80.7471H775.527C782.816 80.7471 788.837 86.6626 788.837 94.0569V158.282H464.964ZM513.979 193.987V537.509C513.979 545.431 507.535 551.875 499.613 551.875H280.528C272.606 551.875 266.162 545.431 266.162 537.509V193.987C266.162 186.065 272.606 179.621 280.528 179.621H499.613C507.535 179.516 513.979 185.959 513.979 193.987ZM363.979 149.409C364.401 148.987 364.718 148.353 364.718 147.719C364.718 146.346 363.662 145.184 362.394 145.184H270.282C269.542 145.184 268.908 145.501 268.486 145.923C268.063 146.451 267.747 146.979 267.747 147.719C267.747 149.092 268.803 150.148 270.176 150.148H362.289C362.923 150.148 363.556 149.832 363.979 149.409ZM432.956 147.719C432.956 148.353 432.639 148.987 432.217 149.409C431.794 149.832 431.16 150.148 430.527 150.148H372.005C370.632 150.148 369.576 149.092 369.576 147.719C369.576 146.979 369.893 146.451 370.315 145.923C370.738 145.501 371.372 145.184 372.005 145.184H430.421C431.794 145.184 432.956 146.346 432.956 147.719ZM21.9375 207.931H204.578C206.057 207.931 207.219 206.769 207.219 205.29C207.219 203.811 206.057 202.649 204.578 202.649H21.9375C20.4586 202.649 19.2966 203.811 19.2966 205.29C19.2966 206.769 20.4586 207.931 21.9375 207.931ZM204.578 233.706H21.9375C20.4586 233.706 19.2966 232.544 19.2966 231.065C19.2966 229.586 20.4586 228.424 21.9375 228.424H204.578C206.057 228.424 207.219 229.586 207.219 231.065C207.219 232.544 206.057 233.706 204.578 233.706ZM21.9375 259.479H132.853C134.332 259.479 135.494 258.317 135.494 256.838C135.494 255.359 134.332 254.197 132.853 254.197H21.9375C20.4586 254.197 19.2966 255.359 19.2966 256.838C19.2966 258.317 20.4586 259.479 21.9375 259.479ZM132.853 285.254H21.9375C20.4586 285.254 19.2966 284.092 19.2966 282.613C19.2966 281.134 20.4586 279.972 21.9375 279.972H132.853C134.332 279.972 135.494 281.134 135.494 282.613C135.494 284.092 134.332 285.254 132.853 285.254ZM736.127 179.937V158.388H588.873V179.937C588.873 187.86 595.211 194.198 603.134 194.198H721.866C729.789 194.198 736.127 187.754 736.127 179.937ZM787.677 272.472V294.022C787.677 301.944 781.339 308.282 773.416 308.282H654.684C646.867 308.282 640.423 301.944 640.423 294.022V272.472H787.677ZM770.879 241.205C772.358 241.205 773.519 240.043 773.519 238.564C773.519 237.086 772.358 235.924 770.879 235.924H701.266C699.787 235.924 698.625 237.086 698.625 238.564C698.625 240.043 699.787 241.205 701.266 241.205H770.879ZM773.519 247.859C773.519 249.338 772.358 250.5 770.879 250.5H701.266C699.787 250.5 698.625 249.338 698.625 247.859C698.625 246.38 699.787 245.218 701.266 245.218H770.879C772.358 245.218 773.519 246.38 773.519 247.859ZM31.4453 450.781H81.0932C83.8397 450.781 86.058 448.563 86.1637 445.817V410.746C86.1637 408 83.9453 405.781 81.1989 405.781H31.4453C28.6989 405.781 26.4806 408 26.4806 410.746V445.817C26.4806 448.563 28.6989 450.781 31.4453 450.781ZM163.273 450.781H113.625C110.879 450.781 108.66 448.563 108.66 445.817V410.746C108.66 408 110.879 405.781 113.625 405.781H163.379C166.125 405.781 168.343 408 168.343 410.746V445.817C168.238 448.563 166.02 450.781 163.273 450.781ZM31.4453 523.248H81.0932C83.8397 523.248 86.058 521.03 86.1637 518.283V483.213C86.1637 480.466 83.9453 478.248 81.1989 478.248H31.4453C28.6989 478.248 26.4806 480.466 26.4806 483.213V518.283C26.4806 521.03 28.6989 523.248 31.4453 523.248ZM163.273 523.248H113.625C110.879 523.248 108.66 521.03 108.66 518.283V483.213C108.66 480.466 110.879 478.248 113.625 478.248H163.379C166.125 478.248 168.343 480.466 168.343 483.213V518.283C168.238 521.03 166.02 523.248 163.273 523.248ZM737.604 436.311H773.519C774.893 436.311 776.055 435.255 776.055 433.776C776.055 432.403 774.893 431.241 773.519 431.241H737.604C736.231 431.241 735.069 432.403 735.069 433.776C735.069 435.149 736.231 436.311 737.604 436.311ZM773.519 444.234H737.604C736.231 444.234 735.069 443.072 735.069 441.699C735.069 440.325 736.231 439.163 737.604 439.163H773.519C774.893 439.163 776.055 440.325 776.055 441.699C776.055 443.072 774.893 444.234 773.519 444.234ZM764.543 415.501C764.543 420.46 760.523 424.48 755.564 424.48C750.605 424.48 746.585 420.46 746.585 415.501C746.585 410.542 750.605 406.522 755.564 406.522C760.523 406.522 764.543 410.542 764.543 415.501Z" fill="#3913B8"></path>
<path d="M50.8803 97.3304C50.7747 97.3304 50.5634 97.2248 50.4578 97.1192C50.2465 96.9079 50.2465 96.591 50.4578 96.3797L63.0282 84.1262C63.2395 83.915 63.5564 83.915 63.7676 84.1262C63.9789 84.3375 63.9789 84.6544 63.7676 84.8657L51.3028 97.2248C51.1972 97.3304 50.9859 97.3304 50.8803 97.3304Z" fill="#627076"></path>
<path d="M62.817 114.338C62.817 116.768 39.0494 116.768 39.0494 114.338C38.6268 114.338 38.3099 114.021 38.3099 113.599V100.395C38.3099 99.9722 38.6268 99.6553 39.0494 99.6553C39.0494 97.9652 62.817 97.9652 62.817 99.6553C63.2395 99.6553 63.5564 99.9722 63.5564 100.395V113.599C63.5564 114.021 63.2395 114.338 62.817 114.338Z" fill="#B5CDFB"></path>
<path opacity="0.2" d="M789.894 366.592H710.352V387.719H789.894V366.592Z" fill="#3913B8"></path>
<path d="M61.0212 63.8451C61.0212 72.6127 56.3733 79.6901 50.7747 79.6901C45.1761 79.6901 40.5282 72.6127 40.5282 63.8451C40.5282 55.0775 50.7747 48 50.7747 48C50.7747 48 61.0212 55.0775 61.0212 63.8451Z" fill="#B5CDFB"></path>
<path d="M50.8802 109.057C50.5633 109.057 50.3521 108.846 50.3521 108.529V63.7401C50.3521 63.4232 50.5633 63.2119 50.8802 63.2119C51.1971 63.2119 51.4084 63.4232 51.4084 63.7401V108.423C51.4084 108.74 51.1971 109.057 50.8802 109.057Z" fill="#627076"></path>
<path d="M50.8802 69.339C50.669 69.339 50.5633 69.2333 50.4577 69.1277C50.3521 68.9164 50.3521 68.5995 50.669 68.3883L54.4718 65.9587C54.6831 65.8531 55 65.8531 55.2112 66.17C55.3169 66.3812 55.3169 66.6981 55 66.9094L51.1971 69.2333C51.0915 69.2333 50.9859 69.339 50.8802 69.339Z" fill="#627076"></path>
<path d="M50.8802 72.8243C50.669 72.8243 50.5633 72.7187 50.4577 72.613C50.3521 72.4018 50.3521 72.0849 50.669 71.8736L54.4718 69.444C54.6831 69.3384 55 69.3384 55.2112 69.6553C55.3169 69.8666 55.3169 70.1835 55 70.3947L51.1971 72.8243C51.0915 72.8243 50.9859 72.8243 50.8802 72.8243Z" fill="#627076"></path>
<path d="M50.8804 69.3379C50.7747 69.3379 50.6691 69.3379 50.5635 69.2323L46.7606 66.8027C46.5494 66.6971 46.4437 66.2745 46.5494 66.0633C46.655 65.852 47.0775 65.7464 47.2888 65.852L51.0916 68.2816C51.3029 68.3872 51.4085 68.8097 51.3029 69.021C51.1973 69.2323 51.0916 69.3379 50.8804 69.3379Z" fill="#627076"></path>
<path d="M50.8804 72.8242C50.7747 72.8242 50.6691 72.8242 50.5635 72.7186L46.7606 70.289C46.5494 70.1834 46.4437 69.7608 46.5494 69.5496C46.655 69.3383 47.0775 69.2327 47.2888 69.3383L51.0916 71.7679C51.3029 71.8735 51.4085 72.2961 51.3029 72.5073C51.1973 72.8242 51.0916 72.8242 50.8804 72.8242Z" fill="#627076"></path>
<path opacity="0.2" d="M788.838 539.938H604.084V551.874H788.838V539.938Z" fill="#3913B8"></path>
<path opacity="0.2" d="M788.838 517.12H604.084V529.057H788.838V517.12Z" fill="#3913B8"></path>
<path opacity="0.2" d="M789.894 340.816H640.423V352.753H789.894V340.816Z" fill="#3913B8"></path>
<path opacity="0.2" d="M789.895 321.275H640.423V333.212H789.895V321.275Z" fill="#3913B8"></path>
<path d="M623.732 514.584C672.213 514.584 711.514 475.283 711.514 426.802C711.514 378.322 672.213 339.021 623.732 339.021C575.252 339.021 535.951 378.322 535.951 426.802C535.951 475.283 575.252 514.584 623.732 514.584Z" fill="#B5CDFB"></path>
<path d="M755.563 460.078C773.941 460.078 788.838 445.18 788.838 426.803C788.838 408.426 773.941 393.528 755.563 393.528C737.186 393.528 722.289 408.426 722.289 426.803C722.289 445.18 737.186 460.078 755.563 460.078Z" fill="#B5CDFB"></path>
<path d="M526.127 490.184H255.704C248.099 490.184 241.866 483.951 241.866 476.346V110.113C241.866 102.508 248.099 96.2754 255.704 96.2754H526.127C533.732 96.2754 539.965 102.508 539.965 110.113V476.346C539.965 483.951 533.732 490.184 526.127 490.184ZM255.704 97.4374C248.732 97.4374 242.923 103.142 242.923 110.219V476.451C242.923 483.423 248.627 489.233 255.704 489.233H526.127C533.099 489.233 538.908 483.529 538.908 476.451V110.113C538.908 103.142 533.204 97.3317 526.127 97.3317H255.704V97.4374Z" fill="#9F8AFF"></path>
<path opacity="0.2" d="M513.979 479.937V506.346H343.169C323.627 506.346 307.676 491.029 307.676 472.12V255.994C307.676 241.099 317.606 228.423 331.444 223.775C330.916 225.888 330.599 228.001 330.599 230.325V455.113C330.599 468.846 341.796 480.043 355.528 480.043H513.979V479.937Z" fill="#1E1E1E"></path>
<path d="M263.838 116.662C266.405 116.662 268.486 114.581 268.486 112.014C268.486 109.447 266.405 107.366 263.838 107.366C261.271 107.366 259.19 109.447 259.19 112.014C259.19 114.581 261.271 116.662 263.838 116.662Z" fill="#B5CDFB"></path>
<path d="M280.528 116.662C283.095 116.662 285.176 114.581 285.176 112.014C285.176 109.447 283.095 107.366 280.528 107.366C277.961 107.366 275.88 109.447 275.88 112.014C275.88 114.581 277.961 116.662 280.528 116.662Z" fill="#C8BCF5"></path>
<path d="M297.324 116.662C299.891 116.662 301.972 114.581 301.972 112.014C301.972 109.447 299.891 107.366 297.324 107.366C294.757 107.366 292.676 109.447 292.676 112.014C292.676 114.581 294.757 116.662 297.324 116.662Z" fill="#7AC2BF"></path>
<path opacity="0.1" d="M512.183 159.232H269.225C263.521 159.232 258.979 154.69 258.979 148.986C258.979 143.282 263.521 138.739 269.225 138.739H512.077C517.782 138.739 522.324 143.282 522.324 148.986C522.429 154.584 517.782 159.232 512.183 159.232Z" fill="#1E1E1E"></path>
<path d="M599.437 230.323V455.112C599.437 468.844 588.239 480.041 574.507 480.041H355.423C341.69 480.041 330.493 468.844 330.493 455.112V230.323C330.493 228.105 330.81 225.886 331.338 223.774C334.19 213.21 343.908 205.393 355.423 205.393H574.507C588.239 205.288 599.437 216.485 599.437 230.323Z" fill="#F9F8FE"></path>
<path d="M322.676 60.5712C319.395 60.5712 317.806 58.1825 316.363 56.0135L316.232 55.8177C314.965 53.8106 313.803 52.1205 311.584 52.1205C309.459 52.1205 308.4 53.6726 307.107 55.5683L306.937 55.8177L306.806 56.0135C305.363 58.1825 303.774 60.5712 300.493 60.5712C297.218 60.5712 295.528 58.036 294.049 55.8177C292.782 53.8106 291.62 52.1205 289.401 52.1205C287.276 52.1205 286.217 53.6726 284.924 55.5683L284.754 55.8177L284.623 56.0135C283.18 58.1825 281.591 60.5712 278.31 60.5712C275.029 60.5712 273.439 58.1824 271.997 56.0135L271.866 55.8177C270.599 53.8106 269.437 52.1205 267.218 52.1205C265.092 52.1205 264.034 53.6726 262.741 55.5683L262.57 55.8177L262.44 56.0135C260.997 58.1824 259.408 60.5712 256.127 60.5712C252.846 60.5712 251.256 58.1824 249.813 56.0135L249.683 55.8177C248.415 53.8106 247.254 52.1205 245.035 52.1205C242.909 52.1205 241.851 53.6726 240.558 55.5683L240.387 55.8177L240.257 56.0135C238.814 58.1824 237.225 60.5712 233.944 60.5712C230.669 60.5712 228.979 58.036 227.5 55.8177C226.232 53.8106 225.07 52.1205 222.852 52.1205C220.726 52.1205 219.668 53.6726 218.375 55.5683L218.204 55.8177L218.074 56.0135C216.631 58.1824 215.042 60.5712 211.761 60.5712C208.486 60.5712 206.796 58.036 205.317 55.8177C204.049 53.8106 202.887 52.1205 200.669 52.1205C198.543 52.1205 197.484 53.6726 196.191 55.5683L196.021 55.8177L195.891 56.0135C194.448 58.1824 192.859 60.5712 189.577 60.5712C186.296 60.5712 184.707 58.1824 183.264 56.0135L183.134 55.8177C181.866 53.8106 180.704 52.1205 178.486 52.1205C176.36 52.1205 175.301 53.6726 174.008 55.5683L173.838 55.8177L173.708 56.0135C172.265 58.1824 170.676 60.5712 167.394 60.5712C164.113 60.5712 162.524 58.1824 161.081 56.0135L160.951 55.8177C159.683 53.8106 158.521 52.1205 156.303 52.1205C155.669 52.1205 155.246 51.698 155.246 51.0642C155.246 50.4303 155.669 50.0078 156.303 50.0078C159.577 50.0078 161.268 52.543 162.746 54.7613C164.014 56.7684 165.176 58.4585 167.394 58.4585C169.52 58.4585 170.579 56.9064 171.872 55.0107L172.042 54.7613L172.173 54.5655C173.616 52.3966 175.205 50.0078 178.486 50.0078C181.767 50.0078 183.356 52.3966 184.799 54.5655L184.93 54.7613C186.197 56.7684 187.359 58.4585 189.577 58.4585C191.703 58.4585 192.762 56.9064 194.055 55.0107L194.225 54.7613L194.356 54.5655C195.799 52.3966 197.388 50.0078 200.669 50.0078C203.95 50.0078 205.539 52.3966 206.982 54.5655L207.113 54.7613C208.38 56.7684 209.542 58.4585 211.761 58.4585C213.886 58.4585 214.945 56.9064 216.238 55.0107L216.408 54.7613L216.539 54.5655C217.982 52.3966 219.571 50.0078 222.852 50.0078C226.127 50.0078 227.817 52.543 229.296 54.7613C230.563 56.7684 231.725 58.4585 233.944 58.4585C236.069 58.4585 237.128 56.9064 238.421 55.0107L238.592 54.7613L238.722 54.5655C240.165 52.3966 241.754 50.0078 245.035 50.0078C248.316 50.0078 249.906 52.3966 251.348 54.5655L251.479 54.7613C252.746 56.7684 253.908 58.4585 256.127 58.4585C258.253 58.4585 259.311 56.9064 260.604 55.0107L260.775 54.7613L260.905 54.5655C262.348 52.3966 263.937 50.0078 267.218 50.0078C270.499 50.0078 272.089 52.3966 273.532 54.5655L273.662 54.7613C274.93 56.7684 276.092 58.4585 278.31 58.4585C280.436 58.4585 281.494 56.9064 282.788 55.0107L282.958 54.7613L283.088 54.5655C284.531 52.3965 286.12 50.0078 289.401 50.0078C292.683 50.0078 294.272 52.3965 295.715 54.5655L295.845 54.7613C297.113 56.7684 298.275 58.4585 300.493 58.4585C302.619 58.4585 303.677 56.9064 304.971 55.0107L305.141 54.7613L305.271 54.5655C306.714 52.3965 308.303 50.0078 311.584 50.0078C314.866 50.0078 316.455 52.3965 317.898 54.5655L318.028 54.7613C319.296 56.7684 320.458 58.4585 322.676 58.4585C323.31 58.4585 323.732 58.8811 323.732 59.5149C323.732 60.1487 323.31 60.5712 322.676 60.5712Z" fill="#9F8AFF"></path>
<path d="M61.9218 81.1892C60.9242 79.082 58.6986 77.683 58.6986 77.683C58.6986 77.683 55.0014 80.3239 55.107 83.3873C55.107 86.4506 56.7972 88.8802 58.8042 88.8802C58.8394 88.8785 58.8744 88.876 58.9093 88.8729L58.9093 88.8804C59.0149 90.8875 61.5501 92.472 64.6135 92.3664C67.6769 92.2607 70.1065 88.5635 70.1065 88.5635C70.1065 88.5635 68.6176 86.5388 66.579 85.5745C67.3191 83.4168 66.8308 80.8533 66.8308 80.8533C66.8308 80.8533 64.1463 80.3295 61.9218 81.1892Z" fill="#9F8AFF"></path>
<path d="M218.31 171.486C223.275 166.521 226.338 159.655 226.338 152.05C226.338 136.944 214.084 124.585 198.873 124.585H63.433C63.512 124.467 63.5572 124.322 63.5572 124.163V100.395C63.5572 99.9726 63.2403 99.6557 62.8177 99.6557C62.8177 102.191 39.0501 102.191 39.0501 99.6557C38.6276 99.6557 38.3107 99.9726 38.3107 100.395V124.163C38.3107 124.322 38.3559 124.467 38.4349 124.585H37.4648C34.0845 124.585 30.9155 125.219 27.9577 126.275C24.1549 127.648 20.7746 129.867 18.0282 132.613C13.0634 137.578 10 144.444 10 152.05C10 167.155 22.2535 179.514 37.4648 179.514H198.873C206.479 179.514 213.345 176.451 218.31 171.486Z" fill="#9F8AFF"></path>
<path fill-rule="evenodd" clip-rule="evenodd" d="M511.551 137.894H268.593C265.741 137.894 263.206 139.056 261.304 140.852C259.403 142.753 258.347 145.289 258.347 148.141C258.347 153.845 262.889 158.387 268.593 158.387H511.445C514.297 158.387 516.833 157.225 518.734 155.43C520.635 153.634 521.692 150.993 521.692 148.141C521.797 142.437 517.149 137.894 511.551 137.894ZM363.98 149.408C363.558 149.831 362.924 150.148 362.29 150.148H270.178C268.804 150.148 267.748 149.091 267.748 147.718C267.748 146.979 268.065 146.451 268.488 145.922C268.91 145.5 269.544 145.183 270.283 145.183H362.396C363.769 145.183 364.826 146.345 364.826 147.613C364.72 148.352 364.403 148.986 363.98 149.408ZM432.22 149.408C431.797 149.831 431.164 150.148 430.53 150.148H372.009C370.635 150.148 369.579 149.091 369.579 147.718C369.579 146.979 369.896 146.451 370.319 145.922C370.741 145.5 371.375 145.183 372.009 145.183H430.424C431.797 145.183 432.854 146.345 432.854 147.613C432.959 148.352 432.642 148.986 432.22 149.408Z" fill="#9F8AFF"></path>
<path d="M588.872 450.781V455.112C588.872 463.035 582.428 469.478 574.505 469.478H355.421C347.498 469.478 341.055 463.035 341.055 455.112V230.324C341.055 222.401 347.498 215.957 355.421 215.957H574.505C582.428 215.852 588.872 222.295 588.872 230.324V402.612H620.776V450.781H588.872Z" fill="#9F8AFF"></path>
<path fill-rule="evenodd" clip-rule="evenodd" d="M773.416 211.522H654.684C646.867 211.522 640.423 217.86 640.423 225.783V272.579H787.571V225.783C787.677 217.86 781.339 211.522 773.416 211.522ZM770.881 250.501H701.268C699.79 250.501 698.628 249.339 698.628 247.86C698.628 246.381 699.79 245.219 701.268 245.219H770.881C772.36 245.219 773.522 246.381 773.522 247.86C773.522 249.339 772.36 250.501 770.881 250.501ZM770.881 241.205H701.268C699.79 241.205 698.628 240.043 698.628 238.565C698.628 237.086 699.79 235.924 701.268 235.924H770.881C772.36 235.924 773.522 237.086 773.522 238.565C773.522 240.043 772.36 241.205 770.881 241.205Z" fill="#9F8AFF"></path>
<path d="M46.7622 424.057C46.7622 427.616 43.8773 430.501 40.3186 430.501C36.7598 430.501 33.8749 427.616 33.8749 424.057C33.8749 420.498 36.7598 417.613 40.3186 417.613C43.8773 417.613 46.7622 420.498 46.7622 424.057Z" fill="#9F8AFF"></path>
<path d="M31.4445 453.212L57.3248 421.839L71.5853 439.585L79.6135 430.712L90.8107 453.212H31.4445Z" fill="#9F8AFF"></path>
<path d="M128.942 424.057C128.942 427.616 126.057 430.501 122.498 430.501C118.94 430.501 116.055 427.616 116.055 424.057C116.055 420.498 118.94 417.613 122.498 417.613C126.057 417.613 128.942 420.498 128.942 424.057Z" fill="#9F8AFF"></path>
<path d="M113.628 453.212L139.614 421.839L153.769 439.585L161.797 430.712L172.995 453.212H113.628Z" fill="#9F8AFF"></path>
<path d="M46.7622 496.521C46.7622 500.08 43.8773 502.965 40.3186 502.965C36.7598 502.965 33.8749 500.08 33.8749 496.521C33.8749 492.963 36.7598 490.078 40.3186 490.078C43.8773 490.078 46.7622 492.963 46.7622 496.521Z" fill="#9F8AFF"></path>
<path d="M31.4445 525.677L57.3248 494.198L71.5853 512.05L79.6135 503.177L90.8107 525.677H31.4445Z" fill="#9F8AFF"></path>
<path d="M128.942 496.521C128.942 500.08 126.057 502.965 122.498 502.965C118.94 502.965 116.055 500.08 116.055 496.521C116.055 492.963 118.94 490.078 122.498 490.078C126.057 490.078 128.942 492.963 128.942 496.521Z" fill="#9F8AFF"></path>
<path d="M113.628 525.677L139.614 494.198L153.769 512.05L161.797 503.177L172.995 525.677H113.628Z" fill="#9F8AFF"></path>
<path d="M187.254 405.781H236.374V409.267H187.254V405.781Z" fill="#9F8AFF"></path>
<path d="M236.374 413.704H187.254V417.19H236.374V413.704Z" fill="#9F8AFF"></path>
<path d="M187.254 421.626H236.374V425.112H187.254V421.626Z" fill="#9F8AFF"></path>
<path d="M228.029 437.366H187.254V440.852H228.029V437.366Z" fill="#9F8AFF"></path>
<path d="M187.254 445.289H228.029V448.775H187.254V445.289Z" fill="#9F8AFF"></path>
<path d="M228.029 479.197H187.254V482.683H228.029V479.197Z" fill="#9F8AFF"></path>
<path d="M187.254 487.119H236.374V490.605H187.254V487.119Z" fill="#9F8AFF"></path>
<path d="M249.684 502.964H187.254V506.45H249.684V502.964Z" fill="#9F8AFF"></path>
<path d="M187.254 510.782H229.825V514.268H187.254V510.782Z" fill="#9F8AFF"></path>
<path d="M249.684 518.704H187.254V522.19H249.684V518.704Z" fill="#9F8AFF"></path>
<path d="M679.401 463.459H709.401C712.148 463.459 714.366 465.677 714.366 468.424V498.424C714.366 501.17 712.148 503.388 709.401 503.388H679.401C676.655 503.388 674.437 501.17 674.437 498.424V468.424C674.437 465.677 676.655 463.459 679.401 463.459Z" fill="#9F8AFF"></path>
<path d="M360.519 67.6333C361.961 69.8022 363.551 72.1909 366.832 72.1909C367.36 72.1909 367.888 71.7684 367.888 71.1346C367.888 70.5008 367.466 70.0782 366.832 70.0782C364.613 70.0782 363.451 68.3881 362.184 66.3811C362.141 66.316 362.097 66.2507 362.053 66.1852C360.611 64.0163 359.021 61.6275 355.74 61.6275C352.459 61.6275 350.87 64.0162 349.427 66.1851C349.383 66.2507 349.34 66.316 349.297 66.3811C349.239 66.4647 349.183 66.5479 349.126 66.6304C347.833 68.5261 346.774 70.0782 344.649 70.0782C342.43 70.0782 341.268 68.3881 340.001 66.3811C339.957 66.316 339.914 66.2507 339.87 66.1852C338.427 64.0163 336.838 61.6275 333.557 61.6275C330.276 61.6275 328.687 64.0162 327.244 66.1851C327.2 66.2507 327.157 66.316 327.114 66.3811C327.056 66.4647 327 66.5479 326.943 66.6304C325.65 68.5261 324.591 70.0782 322.466 70.0782C320.247 70.0782 319.085 68.3881 317.818 66.3811C317.774 66.316 317.731 66.2507 317.687 66.1852C316.244 64.0163 314.655 61.6275 311.374 61.6275C308.093 61.6275 306.504 64.0162 305.061 66.1851C305.017 66.2507 304.974 66.316 304.93 66.3811C304.873 66.4647 304.816 66.5479 304.76 66.6304C303.467 68.5261 302.408 70.0782 300.282 70.0782C298.064 70.0782 296.902 68.3881 295.635 66.3811C294.156 64.1627 292.466 61.6275 289.191 61.6275C285.91 61.6275 284.321 64.0162 282.878 66.1851C282.834 66.2507 282.791 66.316 282.747 66.3811C282.69 66.4648 282.633 66.5479 282.577 66.6304C281.284 68.5261 280.225 70.0782 278.099 70.0782C275.881 70.0782 274.719 68.3881 273.452 66.3811C273.408 66.316 273.365 66.2507 273.321 66.1852C271.878 64.0163 270.289 61.6275 267.008 61.6275C263.727 61.6275 262.138 64.0163 260.695 66.1852C260.651 66.2507 260.608 66.316 260.564 66.3811C260.507 66.4648 260.45 66.5479 260.394 66.6304C259.101 68.5261 258.042 70.0782 255.916 70.0782C253.698 70.0782 252.536 68.3881 251.268 66.3811C251.225 66.316 251.182 66.2507 251.138 66.1852C249.695 64.0163 248.106 61.6275 244.825 61.6275C241.544 61.6275 239.954 64.0163 238.511 66.1852C238.468 66.2507 238.424 66.316 238.381 66.3811C238.324 66.4648 238.267 66.5479 238.211 66.6304C236.918 68.5261 235.859 70.0782 233.733 70.0782C231.515 70.0782 230.353 68.3881 229.085 66.3811C229.042 66.316 228.998 66.2507 228.955 66.1852C227.512 64.0163 225.923 61.6275 222.642 61.6275C219.36 61.6275 217.771 64.0163 216.328 66.1852C216.285 66.2507 216.241 66.316 216.198 66.3811C216.141 66.4648 216.084 66.5479 216.028 66.6304C214.735 68.5261 213.676 70.0782 211.55 70.0782C209.332 70.0782 208.17 68.3881 206.902 66.3811C205.423 64.1627 203.733 61.6275 200.459 61.6275C199.825 61.6275 199.402 62.0501 199.402 62.6839C199.402 63.3177 199.825 63.7402 200.459 63.7402C202.677 63.7402 203.839 65.4303 205.106 67.4374C205.15 67.5024 205.193 67.5677 205.237 67.6332C206.68 69.8022 208.269 72.1909 211.55 72.1909C214.831 72.1909 216.42 69.8022 217.863 67.6333C217.907 67.5677 217.95 67.5024 217.994 67.4374C218.051 67.3537 218.108 67.2705 218.164 67.188C219.457 65.2923 220.516 63.7402 222.642 63.7402C224.86 63.7402 226.022 65.4303 227.29 67.4374C227.333 67.5024 227.376 67.5677 227.42 67.6332C228.863 69.8022 230.452 72.1909 233.733 72.1909C237.014 72.1909 238.604 69.8022 240.046 67.6333C240.09 67.5677 240.133 67.5024 240.177 67.4374C240.234 67.3537 240.291 67.2705 240.347 67.188C241.64 65.2923 242.699 63.7402 244.825 63.7402C247.043 63.7402 248.205 65.4303 249.473 67.4374C250.951 69.6557 252.642 72.1909 255.916 72.1909C259.197 72.1909 260.787 69.8022 262.23 67.6333C262.273 67.5677 262.317 67.5024 262.36 67.4374C262.417 67.3537 262.474 67.2705 262.53 67.188C263.823 65.2923 264.882 63.7402 267.008 63.7402C269.226 63.7402 270.388 65.4303 271.656 67.4374C273.135 69.6557 274.825 72.1909 278.099 72.1909C281.381 72.1909 282.97 69.8022 284.413 67.6333C284.456 67.5678 284.5 67.5024 284.543 67.4374C284.6 67.3537 284.657 67.2705 284.713 67.188C286.006 65.2923 287.065 63.7402 289.191 63.7402C291.409 63.7402 292.571 65.4303 293.839 67.4374C293.882 67.5024 293.926 67.5678 293.969 67.6333C295.412 69.8022 297.001 72.1909 300.282 72.1909C303.564 72.1909 305.153 69.8022 306.596 67.6333C306.639 67.5677 306.683 67.5024 306.726 67.4374C306.783 67.3537 306.84 67.2705 306.896 67.188C308.19 65.2923 309.248 63.7402 311.374 63.7402C313.592 63.7402 314.754 65.4303 316.022 67.4374C316.065 67.5024 316.109 67.5678 316.152 67.6333C317.595 69.8022 319.184 72.1909 322.466 72.1909C325.747 72.1909 327.336 69.8022 328.779 67.6333C328.822 67.5677 328.866 67.5024 328.909 67.4374C328.967 67.3537 329.023 67.2705 329.08 67.188C330.373 65.2923 331.431 63.7402 333.557 63.7402C335.775 63.7402 336.937 65.4303 338.205 67.4374C339.684 69.6557 341.374 72.1909 344.649 72.1909C347.93 72.1909 349.519 69.8022 350.962 67.6333C351.006 67.5677 351.049 67.5024 351.092 67.4374C351.15 67.3537 351.206 67.2705 351.263 67.188C352.556 65.2923 353.614 63.7402 355.74 63.7402C357.959 63.7402 359.121 65.4303 360.388 67.4374C360.432 67.5024 360.475 67.5678 360.519 67.6333Z" fill="#9F8AFF"></path>
<path opacity="0.4" d="M411.725 303.105C428.644 303.105 442.359 289.39 442.359 272.472C442.359 255.553 428.644 241.838 411.725 241.838C394.807 241.838 381.092 255.553 381.092 272.472C381.092 289.39 394.807 303.105 411.725 303.105Z" fill="white"></path>
<path d="M77.3944 308.598C77.0775 308.598 76.8662 308.387 76.8662 308.07V301.732C76.8662 301.415 77.0775 301.204 77.3944 301.204C77.7113 301.204 77.9226 301.415 77.9226 301.732V308.07C77.9226 308.387 77.7113 308.598 77.3944 308.598Z" fill="#3913B8"></path>
<path opacity="0.4" fill-rule="evenodd" clip-rule="evenodd" d="M588.874 370.711V402.612H572.607V450.781H588.874V455.007C588.874 462.929 582.43 469.373 574.508 469.373H369.473L458.311 316.31L521.797 405.887L588.874 370.711ZM455.141 402.612H503.31V450.781H455.141V402.612Z" fill="white"></path>
<path d="M77.3944 367.225C77.0775 367.225 76.8662 367.013 76.8662 366.696V352.013C76.8662 351.696 77.0775 351.485 77.3944 351.485C77.7113 351.485 77.9226 351.696 77.9226 352.013V366.696C77.9226 367.013 77.7113 367.225 77.3944 367.225ZM77.3944 337.964C77.0775 337.964 76.8662 337.753 76.8662 337.436V322.753C76.8662 322.436 77.0775 322.225 77.3944 322.225C77.7113 322.225 77.9226 322.436 77.9226 322.753V337.436C77.9226 337.647 77.7113 337.964 77.3944 337.964Z" fill="#3913B8"></path>
<path d="M83.7324 388.246H76.8662V381.38C76.8662 381.063 77.0775 380.852 77.3944 380.852C77.7113 380.852 77.9226 381.063 77.9226 381.38V387.19H83.7324C84.0493 387.19 84.2606 387.401 84.2606 387.718C84.2606 388.035 84.0493 388.246 83.7324 388.246Z" fill="#3913B8"></path>
<path d="M429.472 388.246H417.113C416.796 388.246 416.584 388.035 416.584 387.718C416.584 387.401 416.796 387.189 417.113 387.189H429.472C429.789 387.189 430 387.401 430 387.718C430 388.035 429.683 388.246 429.472 388.246ZM404.753 388.246H392.394C392.077 388.246 391.866 388.035 391.866 387.718C391.866 387.401 392.077 387.189 392.394 387.189H404.753C405.07 387.189 405.282 387.401 405.282 387.718C405.282 388.035 405.07 388.246 404.753 388.246ZM380.035 388.246H367.676C367.359 388.246 367.148 388.035 367.148 387.718C367.148 387.401 367.359 387.189 367.676 387.189H380.035C380.352 387.189 380.563 387.401 380.563 387.718C380.563 388.035 380.352 388.246 380.035 388.246ZM355.317 388.246H342.958C342.641 388.246 342.43 388.035 342.43 387.718C342.43 387.401 342.641 387.189 342.958 387.189H355.317C355.634 387.189 355.845 387.401 355.845 387.718C355.845 388.035 355.634 388.246 355.317 388.246ZM330.704 388.246H318.345C318.028 388.246 317.817 388.035 317.817 387.718C317.817 387.401 318.028 387.189 318.345 387.189H330.704C331.021 387.189 331.232 387.401 331.232 387.718C331.232 388.035 330.915 388.246 330.704 388.246ZM305.986 388.246H293.627C293.31 388.246 293.099 388.035 293.099 387.718C293.099 387.401 293.31 387.189 293.627 387.189H305.986C306.303 387.189 306.514 387.401 306.514 387.718C306.514 388.035 306.303 388.246 305.986 388.246ZM281.268 388.246H268.908C268.592 388.246 268.38 388.035 268.38 387.718C268.38 387.401 268.592 387.189 268.908 387.189H281.268C281.584 387.189 281.796 387.401 281.796 387.718C281.796 388.035 281.584 388.246 281.268 388.246ZM256.549 388.246H244.19C243.873 388.246 243.662 388.035 243.662 387.718C243.662 387.401 243.873 387.189 244.19 387.189H256.549C256.866 387.189 257.077 387.401 257.077 387.718C257.077 388.035 256.866 388.246 256.549 388.246ZM231.937 388.246H219.577C219.261 388.246 219.049 388.035 219.049 387.718C219.049 387.401 219.261 387.189 219.577 387.189H231.937C232.253 387.189 232.465 387.401 232.465 387.718C232.465 388.035 232.148 388.246 231.937 388.246ZM207.218 388.246H194.859C194.542 388.246 194.331 388.035 194.331 387.718C194.331 387.401 194.542 387.189 194.859 387.189H207.218C207.535 387.189 207.746 387.401 207.746 387.718C207.746 388.035 207.535 388.246 207.218 388.246ZM182.5 388.246H170.141C169.824 388.246 169.613 388.035 169.613 387.718C169.613 387.401 169.824 387.189 170.141 387.189H182.5C182.817 387.189 183.028 387.401 183.028 387.718C183.028 388.035 182.817 388.246 182.5 388.246ZM157.782 388.246H145.423C145.106 388.246 144.894 388.035 144.894 387.718C144.894 387.401 145.106 387.189 145.423 387.189H157.782C158.099 387.189 158.31 387.401 158.31 387.718C158.31 388.035 158.099 388.246 157.782 388.246ZM133.169 388.246H120.81C120.493 388.246 120.282 388.035 120.282 387.718C120.282 387.401 120.493 387.189 120.81 387.189H133.169C133.486 387.189 133.697 387.401 133.697 387.718C133.697 388.035 133.38 388.246 133.169 388.246ZM108.451 388.246H96.0915C95.7746 388.246 95.5634 388.035 95.5634 387.718C95.5634 387.401 95.7746 387.189 96.0915 387.189H108.451C108.768 387.189 108.979 387.401 108.979 387.718C108.979 388.035 108.768 388.246 108.451 388.246Z" fill="#3913B8"></path>
<path d="M448.169 388.246H441.831C441.514 388.246 441.303 388.035 441.303 387.718C441.303 387.401 441.514 387.189 441.831 387.189H448.169C448.486 387.189 448.697 387.401 448.697 387.718C448.697 388.035 448.38 388.246 448.169 388.246Z" fill="#3913B8"></path>
<path d="M449.859 391.944C452.193 391.944 454.084 390.052 454.084 387.719C454.084 385.385 452.193 383.493 449.859 383.493C447.526 383.493 445.634 385.385 445.634 387.719C445.634 390.052 447.526 391.944 449.859 391.944Z" fill="#3913B8"></path>
<path d="M77.3944 310.183C79.728 310.183 81.6198 308.291 81.6198 305.958C81.6198 303.624 79.728 301.732 77.3944 301.732C75.0608 301.732 73.1691 303.624 73.1691 305.958C73.1691 308.291 75.0608 310.183 77.3944 310.183Z" fill="#3913B8"></path>
<path d="M133.38 334.162H101.901V302.577H133.38V334.162ZM102.958 333.105H132.324V303.633H102.958V333.105Z" fill="#3913B8"></path>
<path d="M176.479 334.162H145V302.577H176.479V334.162ZM146.056 333.105H175.423V303.633H146.056V333.105Z" fill="#3913B8"></path>
<path d="M578.204 446.557L597.641 423.212L609.049 439.057L626.268 425.43V446.557H578.204Z" fill="#B5CDFB"></path>
<path d="M588.662 421.627C593.038 421.627 596.585 418.08 596.585 413.705C596.585 409.329 593.038 405.782 588.662 405.782C584.287 405.782 580.74 409.329 580.74 413.705C580.74 418.08 584.287 421.627 588.662 421.627Z" fill="#B5CDFB"></path>
<path d="M626.479 447.085H577.254V397.859H626.479V447.085ZM578.415 446.028H625.528V398.916H578.415V446.028Z" fill="#3913B8"></path>
<path d="M562.042 402.613H513.873V450.782H562.042V402.613Z" fill="#3913B8"></path>
<path d="M679.401 402.613H631.232V450.782H679.401V402.613Z" fill="#3913B8"></path>
<path d="M460.423 446.557L479.859 423.212L491.373 439.057L508.592 425.43V446.557H460.423Z" fill="#B5CDFB"></path>
<path d="M509.12 447.085H459.894V397.859H509.12V447.085ZM460.951 446.028H508.063V398.916H460.951V446.028Z" fill="#3913B8"></path>
<path d="M470.88 421.627C475.256 421.627 478.803 418.08 478.803 413.705C478.803 409.329 475.256 405.782 470.88 405.782C466.505 405.782 462.958 409.329 462.958 413.705C462.958 418.08 466.505 421.627 470.88 421.627Z" fill="#B5CDFB"></path>
<path d="M529.613 429.232C531.013 429.232 532.148 428.096 532.148 426.696C532.148 425.296 531.013 424.161 529.613 424.161C528.213 424.161 527.078 425.296 527.078 426.696C527.078 428.096 528.213 429.232 529.613 429.232Z" fill="#9F8AFF"></path>
<path opacity="0.38" d="M537.958 429.232C539.358 429.232 540.493 428.096 540.493 426.696C540.493 425.296 539.358 424.161 537.958 424.161C536.558 424.161 535.423 425.296 535.423 426.696C535.423 428.096 536.558 429.232 537.958 429.232Z" fill="#9F8AFF"></path>
<path d="M546.197 429.232C547.597 429.232 548.732 428.096 548.732 426.696C548.732 425.296 547.597 424.161 546.197 424.161C544.797 424.161 543.662 425.296 543.662 426.696C543.662 428.096 544.797 429.232 546.197 429.232Z" fill="#9F8AFF"></path>
<path d="M647.077 429.232C648.478 429.232 649.613 428.096 649.613 426.696C649.613 425.296 648.478 424.161 647.077 424.161C645.677 424.161 644.542 425.296 644.542 426.696C644.542 428.096 645.677 429.232 647.077 429.232Z" fill="#9F8AFF"></path>
<path opacity="0.38" d="M655.317 429.232C656.717 429.232 657.852 428.096 657.852 426.696C657.852 425.296 656.717 424.161 655.317 424.161C653.917 424.161 652.782 425.296 652.782 426.696C652.782 428.096 653.917 429.232 655.317 429.232Z" fill="#9F8AFF"></path>
<path d="M663.662 429.232C665.062 429.232 666.197 428.096 666.197 426.696C666.197 425.296 665.062 424.161 663.662 424.161C662.262 424.161 661.127 425.296 661.127 426.696C661.127 428.096 662.262 429.232 663.662 429.232Z" fill="#9F8AFF"></path>
<path opacity="0.3" d="M511.761 119.62C515.144 119.62 517.887 116.877 517.887 113.493C517.887 110.109 515.144 107.366 511.761 107.366C508.377 107.366 505.634 110.109 505.634 113.493C505.634 116.877 508.377 119.62 511.761 119.62Z" fill="#1E1E1E"></path>
<path d="M736.127 111.592V158.387H588.873V111.592C588.873 103.775 595.211 97.3311 603.134 97.3311H721.866C729.683 97.3311 736.127 103.775 736.127 111.592Z" fill="#B5CDFB"></path>
<path opacity="0.3" d="M662.5 145.923C671.776 145.923 679.296 138.403 679.296 129.127C679.296 119.851 671.776 112.331 662.5 112.331C653.224 112.331 645.704 119.851 645.704 129.127C645.704 138.403 653.224 145.923 662.5 145.923Z" fill="white"></path>
<path opacity="0.1" d="M722.5 173.915H602.5C600.915 173.915 599.648 172.648 599.648 171.063C599.648 169.479 600.915 168.211 602.5 168.211H722.5C724.084 168.211 725.352 169.479 725.352 171.063C725.352 172.542 724.084 173.915 722.5 173.915Z" fill="#1E1E1E"></path>
<path opacity="0.1" d="M722.5 184.057H602.5C600.915 184.057 599.648 182.789 599.648 181.205C599.648 179.62 600.915 178.353 602.5 178.353H722.5C724.084 178.353 725.352 179.62 725.352 181.205C725.352 182.789 724.084 184.057 722.5 184.057Z" fill="#1E1E1E"></path>
<path opacity="0.3" d="M672.641 260.008C681.917 260.008 689.437 252.488 689.437 243.212C689.437 233.936 681.917 226.416 672.641 226.416C663.365 226.416 655.845 233.936 655.845 243.212C655.845 252.488 663.365 260.008 672.641 260.008Z" fill="white"></path>
<path d="M662.5 138.21C662.183 138.21 661.972 137.999 661.972 137.682V120.464C661.972 120.147 662.183 119.936 662.5 119.936C662.817 119.936 663.028 120.147 663.028 120.464V137.682C663.028 137.999 662.817 138.21 662.5 138.21Z" fill="#3913B8"></path>
<path d="M671.056 129.655H653.838C653.521 129.655 653.31 129.444 653.31 129.127C653.31 128.81 653.521 128.599 653.838 128.599H671.056C671.373 128.599 671.585 128.81 671.585 129.127C671.585 129.444 671.373 129.655 671.056 129.655Z" fill="#3913B8"></path>
<path opacity="0.1" d="M681.303 298.141H670.317C668.31 298.141 666.725 296.556 666.725 294.549V283.563C666.725 281.556 668.31 279.972 670.317 279.972H681.303C683.31 279.972 684.894 281.556 684.894 283.563V294.549C684.894 296.556 683.31 298.141 681.303 298.141Z" fill="#1E1E1E"></path>
<path opacity="0.1" d="M706.866 298.141H695.88C693.873 298.141 692.289 296.556 692.289 294.549V283.563C692.289 281.556 693.873 279.972 695.88 279.972H706.866C708.873 279.972 710.458 281.556 710.458 283.563V294.549C710.352 296.556 708.768 298.141 706.866 298.141Z" fill="#1E1E1E"></path>
<path opacity="0.1" d="M732.324 298.141H721.338C719.331 298.141 717.746 296.556 717.746 294.549V283.563C717.746 281.556 719.331 279.972 721.338 279.972H732.324C734.331 279.972 735.915 281.556 735.915 283.563V294.549C735.915 296.556 734.331 298.141 732.324 298.141Z" fill="#1E1E1E"></path>
<path opacity="0.1" d="M757.782 298.141H746.796C744.789 298.141 743.204 296.556 743.204 294.549V283.563C743.204 281.556 744.789 279.972 746.796 279.972H757.782C759.789 279.972 761.373 281.556 761.373 283.563V294.549C761.373 296.556 759.789 298.141 757.782 298.141Z" fill="#1E1E1E"></path>
<path d="M522.43 125.113H344.754C344.437 125.113 344.225 124.902 344.225 124.585C344.225 124.268 344.437 124.057 344.754 124.057H522.43C522.746 124.057 522.958 124.268 522.958 124.585C522.958 124.902 522.641 125.113 522.43 125.113Z" fill="#9F8AFF"></path>
<path d="M689.542 475.922V492.401C689.542 493.457 690.704 494.091 691.655 493.457L703.592 485.218C704.331 484.69 704.331 483.528 703.592 483L691.655 474.76C690.704 474.232 689.542 474.866 689.542 475.922Z" fill="#F9F8FE"></path>
<path d="M775.423 473.282H735.81C735.493 473.282 735.176 472.965 735.176 472.648V468.951C735.176 468.634 735.493 468.317 735.81 468.317H775.423C775.74 468.317 776.056 468.634 776.056 468.951V472.648C776.056 472.965 775.74 473.282 775.423 473.282Z" fill="#B5CDFB"></path>
<path d="M775.423 483.105H735.81C735.493 483.105 735.176 482.788 735.176 482.472V478.774C735.176 478.458 735.493 478.141 735.81 478.141H775.423C775.74 478.141 776.056 478.458 776.056 478.774V482.472C776.056 482.894 775.74 483.105 775.423 483.105Z" fill="#B5CDFB"></path>
<path d="M775.423 493.035H735.81C735.493 493.035 735.176 492.718 735.176 492.401V488.704C735.176 488.387 735.493 488.07 735.81 488.07H775.423C775.74 488.07 776.056 488.387 776.056 488.704V492.401C776.056 492.718 775.74 493.035 775.423 493.035Z" fill="#B5CDFB"></path>
<path d="M775.423 502.86H735.81C735.493 502.86 735.176 502.543 735.176 502.226V498.529C735.176 498.212 735.493 497.896 735.81 497.896H775.423C775.74 497.896 776.056 498.212 776.056 498.529V502.226C776.056 502.543 775.74 502.86 775.423 502.86Z" fill="#B5CDFB"></path>
<path d="M775.423 512.684H735.81C735.493 512.684 735.176 512.367 735.176 512.05V508.353C735.176 508.036 735.493 507.719 735.81 507.719H775.423C775.74 507.719 776.056 508.036 776.056 508.353V512.05C776.056 512.472 775.74 512.684 775.423 512.684Z" fill="#B5CDFB"></path>
<path d="M775.423 522.612H735.81C735.493 522.612 735.176 522.295 735.176 521.978V518.281C735.176 517.964 735.493 517.647 735.81 517.647H775.423C775.74 517.647 776.056 517.964 776.056 518.281V521.978C776.056 522.295 775.74 522.612 775.423 522.612Z" fill="#B5CDFB"></path>
<path opacity="0.1" fill-rule="evenodd" clip-rule="evenodd" d="M39.0502 124.902C39.0502 127.332 62.8178 127.332 62.8178 124.902C63.0807 124.902 63.3028 124.78 63.433 124.585H74.4383C74.6496 124.796 74.7552 125.007 74.7552 125.219C74.7552 127.12 63.9806 128.599 50.7763 128.599C40.2129 128.599 31.3397 127.648 28.0651 126.275C31.0228 125.219 34.1918 124.585 37.5721 124.585H38.4349C38.5651 124.78 38.7872 124.902 39.0502 124.902Z" fill="#1E1E1E"></path>
</svg>